<svg viewBox="0 0 857 1200" version="1.1"
	xmlns="http://www.w3.org/2000/svg"
	xmlns:xlink="http://www.w3.org/1999/xlink">
	<g id="Social" stroke="none" stroke-width="1" fill="none" fill-rule="evenodd">
		<g id="social-mast-vec" fill-rule="nonzero">
			<rect id="Rectangle" fill="#6364FF" x="0" y="0" width="857" height="1200"></rect>
			<path d="M119.056,1033.888 C104.8,1033.888 95.512,1043.824 95.512,1056.838 C95.512,1070.392 104.962,1079.734 119.272,1079.734 C123.214,1079.734 126.886,1079.086 130.072,1077.844 L130.072,1073.146 C126.94,1074.442 123.322,1075.09 119.38,1075.09 C108.526,1075.09 100.858,1068.232 100.858,1056.838 C100.858,1046.146 107.986,1038.694 119.002,1038.694 C130.504,1038.694 137.038,1045.444 137.038,1054.624 C137.038,1059.862 135.526,1063.642 132.448,1063.642 C130.612,1063.642 129.64,1062.454 129.64,1059.808 L129.64,1045.336 L123.538,1045.336 L123.538,1048.09 C122.134,1045.822 120.028,1044.688 117.058,1044.688 C111.55,1044.688 107.338,1049.008 107.338,1056.676 C107.338,1064.668 111.442,1068.772 117.058,1068.772 C120.352,1068.772 123.106,1067.26 124.51,1064.182 C125.374,1067.152 128.074,1068.88 131.8,1068.88 C138.658,1068.88 142.33,1062.616 142.33,1054.408 C142.33,1042.42 132.718,1033.888 119.056,1033.888 Z M118.57,1063.804 C115.114,1063.804 113.494,1061.212 113.494,1056.676 C113.494,1052.356 115.06,1049.656 118.57,1049.656 C121.972,1049.656 123.646,1052.356 123.646,1056.676 C123.646,1061.212 121.972,1063.804 118.57,1063.804 Z" id="Shape" fill="#FFFFFF"></path>
			<polygon id="Path" fill="#FFFFFF" points="173.457143 1041.286 173.457143 1034.752 146.295143 1034.752 146.295143 1073.2 153.585143 1073.2 153.585143 1056.622 171.675143 1056.622 171.675143 1050.358 153.585143 1050.358 153.585143 1041.286"></polygon>
			<path d="M207.176286,1068.718 L206.852286,1062.994 C206.690286,1058.998 205.556286,1056.136 201.290286,1054.786 C205.448286,1053.328 207.716286,1050.034 207.716286,1045.606 C207.716286,1039.126 203.018286,1034.752 194.162286,1034.752 L176.720286,1034.752 L176.720286,1073.2 L184.010286,1073.2 L184.010286,1058.134 L193.514286,1058.134 C197.402286,1058.134 199.454286,1059.484 199.670286,1064.398 L199.832286,1068.61 C199.886286,1070.5 200.156286,1072.066 200.858286,1073.2 L208.364286,1073.2 C207.608286,1072.066 207.230286,1070.392 207.176286,1068.718 Z M184.010286,1052.41 L184.010286,1040.746 L193.460286,1040.746 C197.672286,1040.746 200.210286,1042.636 200.210286,1046.416 C200.210286,1050.358 197.672286,1052.41 193.730286,1052.41 L184.010286,1052.41 Z" id="Shape" fill="#FFFFFF"></path>
			<path d="M234.307429,1034.752 L230.095429,1041.664 C228.205429,1044.85 226.261429,1048.144 224.425429,1051.438 C222.589429,1048.198 220.591429,1044.958 218.647429,1041.718 L214.381429,1034.752 L206.119429,1034.752 L220.645429,1058.026 L220.645429,1073.2 L227.935429,1073.2 L227.935429,1058.026 L242.353429,1034.752 L234.307429,1034.752 Z" id="Path" fill="#FFFFFF"></path>
			<polygon id="Path" fill="#FFFFFF" points="274.236571 1034.752 242.268571 1034.752 242.268571 1041.286 254.580571 1041.286 254.580571 1073.2 261.924571 1073.2 261.924571 1041.286 274.236571 1041.286"></polygon>
			<path d="M293.159714,1052.464 L293.159714,1058.35 L303.203714,1058.35 C302.825714,1063.966 298.127714,1067.692 292.457714,1067.692 C285.221714,1067.692 280.739714,1062.454 280.739714,1053.976 C280.739714,1045.498 285.113714,1040.26 292.187714,1040.26 C297.479714,1040.26 301.313714,1043.068 302.393714,1047.55 L309.899714,1047.55 C308.603714,1039.234 301.853714,1033.888 292.133714,1033.888 C280.415714,1033.888 273.125714,1041.88 273.125714,1053.976 C273.125714,1066.072 280.415714,1074.064 291.485714,1074.064 C296.885714,1074.064 301.313714,1071.958 304.013714,1068.124 L305.039714,1073.2 L310.331714,1073.2 L310.331714,1052.464 L293.159714,1052.464 Z" id="Path" fill="#FFFFFF"></path>
			<path d="M337.300857,1033.888 C323.044857,1033.888 313.756857,1043.824 313.756857,1056.838 C313.756857,1070.392 323.206857,1079.734 337.516857,1079.734 C341.458857,1079.734 345.130857,1079.086 348.316857,1077.844 L348.316857,1073.146 C345.184857,1074.442 341.566857,1075.09 337.624857,1075.09 C326.770857,1075.09 319.102857,1068.232 319.102857,1056.838 C319.102857,1046.146 326.230857,1038.694 337.246857,1038.694 C348.748857,1038.694 355.282857,1045.444 355.282857,1054.624 C355.282857,1059.862 353.770857,1063.642 350.692857,1063.642 C348.856857,1063.642 347.884857,1062.454 347.884857,1059.808 L347.884857,1045.336 L341.782857,1045.336 L341.782857,1048.09 C340.378857,1045.822 338.272857,1044.688 335.302857,1044.688 C329.794857,1044.688 325.582857,1049.008 325.582857,1056.676 C325.582857,1064.668 329.686857,1068.772 335.302857,1068.772 C338.596857,1068.772 341.350857,1067.26 342.754857,1064.182 C343.618857,1067.152 346.318857,1068.88 350.044857,1068.88 C356.902857,1068.88 360.574857,1062.616 360.574857,1054.408 C360.574857,1042.42 350.962857,1033.888 337.300857,1033.888 Z M336.814857,1063.804 C333.358857,1063.804 331.738857,1061.212 331.738857,1056.676 C331.738857,1052.356 333.304857,1049.656 336.814857,1049.656 C340.216857,1049.656 341.890857,1052.356 341.890857,1056.676 C341.890857,1061.212 340.216857,1063.804 336.814857,1063.804 Z" id="Shape" fill="#FFFFFF"></path>
			<path d="M379.606,1044.688 C375.718,1044.688 372.856,1046.254 370.966,1048.954 L370.966,1034.752 L364.162,1034.752 L364.162,1073.2 L370.696,1073.2 L370.696,1069.204 C372.586,1072.12 375.556,1073.848 379.606,1073.848 C387.274,1073.848 392.08,1068.124 392.08,1059.268 C392.08,1050.412 387.274,1044.688 379.606,1044.688 Z M377.986,1068.232 C373.558,1068.232 370.804,1065.154 370.804,1059.268 C370.804,1053.382 373.558,1050.304 377.986,1050.304 C382.414,1050.304 385.168,1053.166 385.168,1059.052 C385.168,1064.938 382.414,1068.232 377.986,1068.232 Z" id="Shape" fill="#FFFFFF"></path>
			<path d="M421.965143,1059.754 C421.965143,1050.898 416.727143,1044.688 408.195143,1044.688 C399.933143,1044.688 394.425143,1050.52 394.425143,1059.268 C394.425143,1068.178 400.095143,1073.848 408.303143,1073.848 C414.999143,1073.848 419.859143,1070.23 421.263143,1064.56 L414.729143,1064.56 C413.703143,1067.044 411.597143,1068.556 408.357143,1068.556 C404.415143,1068.556 401.607143,1066.342 401.121143,1061.374 L421.965143,1061.374 L421.965143,1059.754 Z M408.141143,1049.98 C412.191143,1049.98 414.621143,1052.68 415.161143,1056.622 L401.175143,1056.622 C401.823143,1052.032 404.523143,1049.98 408.141143,1049.98 Z" id="Shape" fill="#FFFFFF"></path>
			<path d="M438.620286,1073.848 C447.098286,1073.848 452.768286,1068.124 452.768286,1059.268 C452.768286,1050.412 447.098286,1044.688 438.620286,1044.688 C430.142286,1044.688 424.418286,1050.412 424.418286,1059.268 C424.418286,1068.124 430.142286,1073.848 438.620286,1073.848 Z M438.620286,1068.232 C434.192286,1068.232 431.384286,1065.154 431.384286,1059.268 C431.384286,1053.382 434.192286,1050.304 438.620286,1050.304 C442.994286,1050.304 445.856286,1053.382 445.856286,1059.268 C445.856286,1065.154 442.994286,1068.232 438.620286,1068.232 Z" id="Shape" fill="#FFFFFF"></path>
			<path d="M471.259429,1044.904 C466.939429,1044.904 464.293429,1047.172 462.943429,1050.304 L462.943429,1045.336 L456.355429,1045.336 L456.355429,1073.2 L463.159429,1073.2 L463.159429,1059.052 C463.159429,1053.76 466.183429,1051.276 471.205429,1051.276 L472.933429,1051.276 L472.933429,1045.012 C472.339429,1044.904 471.853429,1044.904 471.259429,1044.904 Z" id="Path" fill="#FFFFFF"></path>
			<path d="M475.980571,1041.718 L482.676571,1041.718 L482.676571,1035.346 L475.980571,1035.346 L475.980571,1041.718 Z M475.926571,1073.2 L482.730571,1073.2 L482.730571,1045.336 L475.926571,1045.336 L475.926571,1073.2 Z" id="Shape" fill="#FFFFFF"></path>
			<path d="M507.647714,1045.336 L507.647714,1049.17 C505.811714,1046.362 502.895714,1044.688 498.845714,1044.688 C491.231714,1044.688 486.317714,1050.358 486.317714,1058.89 C486.317714,1067.368 491.339714,1073.092 498.899714,1073.092 C502.787714,1073.092 505.595714,1071.526 507.431714,1068.934 L507.431714,1072.444 C507.431714,1076.818 505.055714,1079.194 500.573714,1079.194 C496.847714,1079.194 494.687714,1077.682 494.363714,1074.712 L487.667714,1074.712 C488.099714,1080.49 492.419714,1084.432 500.465714,1084.432 C509.537714,1084.432 514.235714,1079.626 514.235714,1072.282 L514.235714,1045.336 L507.647714,1045.336 Z M500.411714,1067.476 C496.037714,1067.476 493.283714,1064.344 493.283714,1058.944 C493.283714,1053.544 496.037714,1050.304 500.411714,1050.304 C504.839714,1050.304 507.593714,1053.328 507.593714,1058.89 C507.593714,1064.398 504.839714,1067.476 500.411714,1067.476 Z" id="Shape" fill="#FFFFFF"></path>
			<path d="M519.118857,1041.718 L525.814857,1041.718 L525.814857,1035.346 L519.118857,1035.346 L519.118857,1041.718 Z M519.064857,1073.2 L525.868857,1073.2 L525.868857,1045.336 L519.064857,1045.336 L519.064857,1073.2 Z" id="Shape" fill="#FFFFFF"></path>
			<path d="M545.98,1044.688 C542.038,1044.688 539.068,1046.686 537.286,1049.332 L537.286,1045.336 L530.698,1045.336 L530.698,1073.2 L537.502,1073.2 L537.502,1057.594 C537.502,1052.626 540.742,1050.574 543.712,1050.574 C547.168,1050.574 548.95,1052.302 548.95,1055.866 L548.95,1073.2 L555.754,1073.2 L555.754,1054.732 C555.754,1048.09 551.812,1044.688 545.98,1044.688 Z" id="Path" fill="#FFFFFF"></path>
			<path d="M585.639143,1073.2 C584.883143,1072.12 584.505143,1069.906 584.505143,1067.908 L584.505143,1053.058 C584.505143,1048.036 581.211143,1044.688 572.895143,1044.688 C564.201143,1044.688 560.745143,1048.306 560.367143,1054.192 L567.063143,1054.192 C567.333143,1050.79 568.953143,1049.764 572.841143,1049.764 C576.783143,1049.764 577.917143,1051.06 577.917143,1053.22 C577.917143,1055.272 576.567143,1056.082 573.975143,1056.406 L569.763143,1056.784 C561.879143,1057.54 559.071143,1060.834 559.071143,1065.478 C559.071143,1070.878 563.175143,1073.848 569.115143,1073.848 C573.219143,1073.848 576.243143,1072.39 578.079143,1069.798 C578.187143,1071.148 578.403143,1072.444 578.835143,1073.2 L585.639143,1073.2 Z M570.735143,1068.988 C567.603143,1068.988 566.037143,1067.53 566.037143,1065.208 C566.037143,1062.994 567.279143,1061.644 571.059143,1061.212 L574.731143,1060.78 C576.189143,1060.618 577.215143,1060.294 577.917143,1059.646 L577.917143,1062.184 C577.917143,1067.044 574.353143,1068.988 570.735143,1068.988 Z" id="Shape" fill="#FFFFFF"></path>
			<polygon id="Path" fill="#FFFFFF" points="588.848286 1073.2 595.652286 1073.2 595.652286 1034.752 588.848286 1034.752"></polygon>
			<polygon id="Path" fill="#FFFFFF" points="599.779429 1073.2 607.717429 1073.2 607.717429 1065.478 599.779429 1065.478"></polygon>
			<path d="M622.806571,1073.956 C630.582571,1073.956 635.172571,1070.824 635.172571,1065.208 C635.172571,1060.402 632.202571,1057.918 625.506571,1056.73 L621.996571,1056.19 C618.972571,1055.65 617.352571,1054.84 617.352571,1052.788 C617.352571,1050.79 618.918571,1049.548 622.212571,1049.548 C625.722571,1049.548 627.936571,1050.574 628.098571,1054.138 L634.524571,1054.138 C634.308571,1048.414 630.798571,1044.688 622.212571,1044.688 C614.760571,1044.688 610.656571,1047.874 610.656571,1053.112 C610.656571,1057.864 613.788571,1060.51 619.782571,1061.536 L622.968571,1062.076 C627.180571,1062.778 628.422571,1063.75 628.422571,1065.748 C628.422571,1067.854 626.856571,1069.096 622.914571,1069.096 C618.864571,1069.096 617.082571,1067.854 616.704571,1064.344 L610.062571,1064.344 C610.494571,1071.094 614.868571,1073.956 622.806571,1073.956 Z" id="Path" fill="#FFFFFF"></path>
			<path d="M651.071714,1073.848 C659.549714,1073.848 665.219714,1068.124 665.219714,1059.268 C665.219714,1050.412 659.549714,1044.688 651.071714,1044.688 C642.593714,1044.688 636.869714,1050.412 636.869714,1059.268 C636.869714,1068.124 642.593714,1073.848 651.071714,1073.848 Z M651.071714,1068.232 C646.643714,1068.232 643.835714,1065.154 643.835714,1059.268 C643.835714,1053.382 646.643714,1050.304 651.071714,1050.304 C655.445714,1050.304 658.307714,1053.382 658.307714,1059.268 C658.307714,1065.154 655.445714,1068.232 651.071714,1068.232 Z" id="Shape" fill="#FFFFFF"></path>
			<path d="M681.334857,1073.848 C688.462857,1073.848 693.646857,1069.636 694.402857,1062.832 L687.598857,1062.832 C687.058857,1066.504 684.412857,1068.178 681.334857,1068.178 C677.392857,1068.178 674.530857,1065.37 674.530857,1059.268 C674.530857,1053.166 677.284857,1050.358 681.334857,1050.358 C684.358857,1050.358 686.842857,1051.924 687.490857,1055.38 L694.294857,1055.38 C693.484857,1048.846 688.624857,1044.688 681.334857,1044.688 C673.018857,1044.688 667.564857,1050.358 667.564857,1059.268 C667.564857,1068.178 673.072857,1073.848 681.334857,1073.848 Z" id="Path" fill="#FFFFFF"></path>
			<path d="M697.504,1041.718 L704.2,1041.718 L704.2,1035.346 L697.504,1035.346 L697.504,1041.718 Z M697.45,1073.2 L704.254,1073.2 L704.254,1045.336 L697.45,1045.336 L697.45,1073.2 Z" id="Shape" fill="#FFFFFF"></path>
			<path d="M734.139143,1073.2 C733.383143,1072.12 733.005143,1069.906 733.005143,1067.908 L733.005143,1053.058 C733.005143,1048.036 729.711143,1044.688 721.395143,1044.688 C712.701143,1044.688 709.245143,1048.306 708.867143,1054.192 L715.563143,1054.192 C715.833143,1050.79 717.453143,1049.764 721.341143,1049.764 C725.283143,1049.764 726.417143,1051.06 726.417143,1053.22 C726.417143,1055.272 725.067143,1056.082 722.475143,1056.406 L718.263143,1056.784 C710.379143,1057.54 707.571143,1060.834 707.571143,1065.478 C707.571143,1070.878 711.675143,1073.848 717.615143,1073.848 C721.719143,1073.848 724.743143,1072.39 726.579143,1069.798 C726.687143,1071.148 726.903143,1072.444 727.335143,1073.2 L734.139143,1073.2 Z M719.235143,1068.988 C716.103143,1068.988 714.537143,1067.53 714.537143,1065.208 C714.537143,1062.994 715.779143,1061.644 719.559143,1061.212 L723.231143,1060.78 C724.689143,1060.618 725.715143,1060.294 726.417143,1059.646 L726.417143,1062.184 C726.417143,1067.044 722.853143,1068.988 719.235143,1068.988 Z" id="Shape" fill="#FFFFFF"></path>
			<polygon id="Path" fill="#FFFFFF" points="737.348286 1073.2 744.152286 1073.2 744.152286 1034.752 737.348286 1034.752"></polygon>
			<g id="logo-white" transform="translate(96, 637)" fill="#FFFFFF">
				<path d="M221.104162,51.5841042 C217.684763,26.549177 195.532167,6.81997813 169.271971,2.99697638 C164.841572,2.35099296 148.055075,0 109.170282,0 L108.879882,0 C69.9842884,0 61.6394898,2.35099296 57.2090905,2.99697638 C31.6799949,6.71406051 8.36630893,24.4417525 2.7099179,49.7731771 C-0.0107353405,62.2482196 -0.301082581,76.0787555 0.204336333,88.7654532 C0.924825209,106.959087 1.06462218,125.120897 2.7421799,143.240676 C3.9019197,155.276497 5.92505935,167.216547 8.79644886,178.971362 C14.1732279,200.680872 35.9384942,218.747513 57.2627905,226.117914 C80.0936866,233.804447 104.646282,235.080683 128.171978,229.803415 C130.759778,229.21018 133.319377,228.522076 135.849877,227.738202 C141.560076,225.94859 148.259675,223.947023 153.184774,220.431146 C153.252274,220.38191 153.307774,220.318264 153.346774,220.24471 C153.385774,220.171456 153.407674,220.090397 153.410374,220.007536 L153.410374,202.449468 C153.409174,202.372012 153.390574,202.295756 153.355474,202.226405 C153.320674,202.157054 153.270574,202.09641 153.208474,202.048675 C153.146674,202.00094 153.074674,201.967615 152.998174,201.950803 C152.921374,201.933991 152.841874,201.934291 152.765374,201.951704 C137.692777,205.497302 122.247279,207.274605 106.750782,207.246684 C80.0819866,207.246684 72.9092878,194.782149 70.8551882,189.593146 C69.2042885,185.10846 68.1557887,180.430131 67.7366887,175.677648 C67.7324887,175.59809 67.7474887,175.518231 67.7801887,175.445278 C67.8128887,175.372024 67.8629887,175.307777 67.9256887,175.25704 C67.9886887,175.206603 68.0627887,175.171477 68.1419887,175.154365 C68.2211887,175.137252 68.3033886,175.138753 68.3819886,175.158868 C83.2034861,178.680449 98.3969835,180.457751 113.643881,180.453848 C117.31078,180.453848 120.96688,180.453848 124.634079,180.358679 C139.968576,179.935068 156.131074,179.162002 171.218371,176.260075 C171.594871,176.186221 171.971071,176.122574 172.293871,176.027104 C196.091367,171.526506 218.738363,157.399353 221.039662,121.626336 C221.125762,120.218004 221.340862,106.874425 221.340862,105.412954 C221.351662,100.446414 222.964762,70.1800326 221.104162,51.5841042 Z M184.477469,140.847322 L159.454173,140.847322 L159.454173,80.4841841 C159.454173,67.7761708 154.077274,61.295021 143.140776,61.295021 C131.118278,61.295021 125.096379,68.9620399 125.096379,84.1060385 L125.096379,117.146753 L100.223383,117.146753 L100.223383,84.1060385 C100.223383,68.9620399 94.1906842,61.295021 82.1681863,61.295021 C71.2961881,61.295021 65.8655891,67.7761708 65.8547891,80.4841841 L65.8547891,140.847322 L40.8527934,140.847322 L40.8527934,78.6519413 C40.8527934,65.9439281 44.1470928,55.8481292 50.7353917,48.3645447 C57.5315905,40.8986732 66.446389,37.0651638 77.5118871,37.0651638 C90.3191849,37.0651638 99.9974832,41.9152182 106.449582,51.6051196 L112.676081,61.8987635 L118.91308,51.6051196 C125.365179,41.9152182 135.043477,37.0651638 147.829475,37.0651638 C158.884173,37.0651638 167.798672,40.8986732 174.61647,48.3645447 C181.205069,55.8412241 184.499069,65.937023 184.499069,78.6519413 L184.477469,140.847322 Z" id="Shape"></path>
			</g>
		</g>
	</g>
</svg>