<svg viewBox="0 0 857 1200" version="1.1"
    xmlns="http://www.w3.org/2000/svg"
    xmlns:xlink="http://www.w3.org/1999/xlink">
    <g id="Social" stroke="none" stroke-width="1" fill="none" fill-rule="evenodd">
        <g id="strava-social-vector" fill-rule="nonzero">
            <rect id="Rectangle" fill="#FC4C02" x="0" y="0" width="857" height="1200"></rect>
            <path d="M122.4,1076.2 C140.96,1076.2 150.96,1065.08 150.96,1047.72 C150.96,1030.36 140.96,1019.24 122.4,1019.24 L100.64,1019.24 L100.64,1076.2 L122.4,1076.2 Z M122.24,1066.92 L111.44,1066.92 L111.44,1028.52 L122.24,1028.52 C133.28,1028.52 139.76,1035.08 139.76,1047.72 C139.76,1060.36 133.28,1066.92 122.24,1066.92 Z M170,1077.16 C176.08,1077.16 180.56,1075 183.28,1071.16 C183.44,1073.16 183.76,1075.08 184.4,1076.2 L194.48,1076.2 C193.36,1074.6 192.8,1071.32 192.8,1068.36 L192.8,1046.36 C192.8,1038.92 187.92,1033.96 175.6,1033.96 C162.72,1033.96 157.6,1039.32 157.04,1048.04 L166.96,1048.04 C167.36,1043 169.76,1041.48 175.52,1041.48 C181.36,1041.48 183.04,1043.4 183.04,1046.6 C183.04,1049.64 181.04,1050.84 177.2,1051.32 L170.96,1051.88 C159.28,1053 155.12,1057.88 155.12,1064.76 C155.12,1072.76 161.2,1077.16 170,1077.16 Z M172.4,1069.96 C167.76,1069.96 165.44,1067.8 165.44,1064.36 C165.44,1061.08 167.28,1059.08 172.88,1058.44 L178.32,1057.8 C180.48,1057.56 182,1057.08 183.04,1056.12 L183.04,1059.88 C183.04,1067.08 177.76,1069.96 172.4,1069.96 Z M210.56,1076.2 L210.56,1053.08 C210.56,1045.72 215.36,1042.68 219.76,1042.68 C224.88,1042.68 227.52,1045.24 227.52,1050.52 L227.52,1076.2 L237.6,1076.2 L237.6,1048.84 C237.6,1039 231.76,1033.96 223.12,1033.96 C217.28,1033.96 212.88,1036.92 210.24,1040.84 L210.24,1034.92 L200.48,1034.92 L200.48,1076.2 L210.56,1076.2 Z" id="Dan" fill="#FFFFFF"></path>
            <path d="M495.25687,705 L475.017882,746.695147 L454.766204,705 L425,705 L475.017882,808 L525,705 L495.25687,705 Z M331,741.278173 C331,738.140038 329.946909,735.797589 327.854382,734.284581 C325.769823,732.758312 322.922162,732 319.356908,732 L306,732 L306,751 L319.221581,751 C322.886908,751 325.769823,750.165736 327.854382,748.50203 C329.946909,746.834708 331,744.515165 331,741.557868 L331,741.278173 Z M405.742252,699 L456,802 L426.082081,802 L405.742252,760.302446 L385.414019,802 L365.10897,802 L355.511169,802 L329.496601,802 L311.882273,774.308346 L311.628388,774.308346 L305.216334,774.308346 L305.216334,802 L274,802 L274,705.07801 L319.631004,705.07801 C327.98836,705.07801 334.857177,706.072156 340.232831,708.056836 C345.623547,710.037907 349.947715,712.744727 353.240115,716.160448 C356.09198,719.105575 358.223925,722.43825 359.654493,726.116348 C361.067668,729.811297 361.786438,734.164596 361.786438,739.128104 L361.786438,739.421774 C361.786438,746.522815 360.140238,752.526204 356.839724,757.413886 C353.560077,762.306383 349.070134,766.195106 343.366405,769.046354 L359.590733,793.636418 L405.742252,699 Z M544.997112,699 L495,802 L524.766204,802 L544.997112,760.302446 L565.241869,802 L595,802 L544.997112,699 Z M184,733.422444 L211.419682,733.422444 L211.419682,803 L242.573369,803 L242.573369,733.422444 L270,733.422444 L270,706 L184,706 L184,733.422444 Z M182.137661,758.675062 C184.042414,762.072278 185,766.210465 185,771.06688 L185,771.349382 C185,776.393732 184.028519,780.947295 182.064707,784.981338 C180.115955,789.026155 177.355515,792.442524 173.805379,795.247202 C170.247139,798.042304 165.936261,800.198183 160.877379,801.716037 C155.820811,803.239876 150.125079,804 143.829554,804 C134.330105,804 125.461716,802.634171 117.244073,799.933636 C109.027578,797.21754 101.949313,793.154766 96,787.750105 L112.650668,767.236333 C117.708392,771.26918 123.048644,774.164833 128.634373,775.906535 C134.228214,777.651828 139.786152,778.524474 145.293145,778.524474 C148.140433,778.524474 150.176025,778.15339 151.421928,777.42798 C152.675944,776.6906 153.284997,775.677899 153.284997,774.398257 L153.284997,774.124134 C153.284997,772.734364 152.364462,771.57323 150.553504,770.670657 C148.742538,769.75372 145.329039,768.794886 140.358154,767.786974 C135.119794,766.677312 130.119962,765.3857 125.37372,763.921714 C120.620521,762.464909 116.447429,760.573577 112.853294,758.274052 C109.253369,755.985301 106.391029,753.082465 104.253546,749.596667 C102.123001,746.104886 101.057725,741.831432 101.057725,736.787082 L101.057725,736.509367 C101.057725,731.913908 101.920366,727.640456 103.65838,723.697387 C105.37555,719.74953 107.912521,716.299645 111.244971,713.370474 C114.578577,710.430529 118.715767,708.139384 123.649593,706.475491 C128.562584,704.823568 134.228214,704 140.633734,704 C149.683915,704 157.610927,705.104873 164.406673,707.315817 C171.203568,709.502819 177.30457,712.81265 182.731662,717.217779 L167.544592,738.986054 C163.102868,735.670238 158.415675,733.261782 153.487632,731.742731 C148.546859,730.224877 143.923342,729.464753 139.561518,729.464753 C137.257285,729.464753 135.548219,729.832246 134.438953,730.569626 C133.308835,731.304613 132.772728,732.273022 132.772728,733.460492 L132.772728,733.734615 C132.772728,735.031016 133.605258,736.132297 135.301586,737.052826 C136.996757,737.966172 140.278262,738.933385 145.155351,739.943691 C151.110455,741.037791 156.52366,742.374891 161.421591,743.926262 C166.297532,745.502772 170.507667,747.491065 174.006857,749.929446 C177.515309,752.363041 180.23175,755.265876 182.137661,758.675062 L182.137661,758.675062 Z" fill="#FFFFFF"></path>
        </g>
    </g>
</svg>