<svg viewBox="0 0 857 1200" version="1.1"
	xmlns="http://www.w3.org/2000/svg"
	xmlns:xlink="http://www.w3.org/1999/xlink">
	<g id="Social" stroke="none" stroke-width="1" fill="none" fill-rule="evenodd">
		<g id="social-twitter-vec" fill-rule="nonzero">
			<rect id="Rectangle" fill="#1DA1F2" x="0" y="0" width="857" height="1200"></rect>
			<path d="M133.44,1085.88 C139.28,1085.88 144.72,1084.92 149.44,1083.08 L149.44,1076.12 C144.8,1078.04 139.44,1079 133.6,1079 C117.52,1079 106.16,1068.84 106.16,1051.96 C106.16,1036.12 116.72,1025.08 133.04,1025.08 C150.08,1025.08 159.76,1035.08 159.76,1048.68 C159.76,1056.44 157.52,1062.04 152.96,1062.04 C150.24,1062.04 148.8,1060.28 148.8,1056.36 L148.8,1034.92 L139.76,1034.92 L139.76,1039 C137.68,1035.64 134.56,1033.96 130.16,1033.96 C122,1033.96 115.76,1040.36 115.76,1051.72 C115.76,1063.56 121.84,1069.64 130.16,1069.64 C135.04,1069.64 139.12,1067.4 141.2,1062.84 C142.48,1067.24 146.48,1069.8 152,1069.8 C162.16,1069.8 167.6,1060.52 167.6,1048.36 C167.6,1030.6 153.36,1017.96 133.12,1017.96 C112,1017.96 98.24,1032.68 98.24,1051.96 C98.24,1072.04 112.24,1085.88 133.44,1085.88 Z M132.4,1062.28 C127.28,1062.28 124.88,1058.44 124.88,1051.72 C124.88,1045.32 127.2,1041.32 132.4,1041.32 C137.44,1041.32 139.92,1045.32 139.92,1051.72 C139.92,1058.44 137.44,1062.28 132.4,1062.28 Z M185.28,1076.2 L185.28,1051.64 L212.08,1051.64 L212.08,1042.36 L185.28,1042.36 L185.28,1028.92 L214.72,1028.92 L214.72,1019.24 L174.48,1019.24 L174.48,1076.2 L185.28,1076.2 Z M231.36,1076.2 L231.36,1053.88 L245.44,1053.88 C251.2,1053.88 254.24,1055.88 254.56,1063.16 L254.8,1069.4 C254.88,1072.2 255.28,1074.52 256.32,1076.2 L267.44,1076.2 C266.32,1074.52 265.76,1072.04 265.68,1069.56 L265.2,1061.08 C264.96,1055.16 263.28,1050.92 256.96,1048.92 C263.12,1046.76 266.48,1041.88 266.48,1035.32 C266.48,1025.72 259.52,1019.24 246.4,1019.24 L220.56,1019.24 L220.56,1076.2 L231.36,1076.2 Z M245.76,1045.4 L231.36,1045.4 L231.36,1028.12 L245.36,1028.12 C251.6,1028.12 255.36,1030.92 255.36,1036.52 C255.36,1042.36 251.6,1045.4 245.76,1045.4 Z M301.92,1076.2 L301.92,1053.72 L323.28,1019.24 L311.36,1019.24 L305.12,1029.48 C302.32,1034.2 299.44,1039.08 296.72,1043.96 C294,1039.16 291.04,1034.36 288.16,1029.56 L281.84,1019.24 L269.6,1019.24 L291.12,1053.72 L291.12,1076.2 L301.92,1076.2 Z M354.16,1076.2 L354.16,1028.92 L372.4,1028.92 L372.4,1019.24 L325.04,1019.24 L325.04,1028.92 L343.28,1028.92 L343.28,1076.2 L354.16,1076.2 Z M403.12,1077.48 C411.12,1077.48 417.68,1074.36 421.68,1068.68 L423.2,1076.2 L431.04,1076.2 L431.04,1045.48 L405.6,1045.48 L405.6,1054.2 L420.48,1054.2 C419.92,1062.52 412.96,1068.04 404.56,1068.04 C393.84,1068.04 387.2,1060.28 387.2,1047.72 C387.2,1035.16 393.68,1027.4 404.16,1027.4 C412,1027.4 417.68,1031.56 419.28,1038.2 L430.4,1038.2 C428.48,1025.88 418.48,1017.96 404.08,1017.96 C386.72,1017.96 375.92,1029.8 375.92,1047.72 C375.92,1065.64 386.72,1077.48 403.12,1077.48 Z" id="@FRYTG" fill="#FFFFFF"></path>
			<path d="M174.62,864.59 C268.96,864.59 320.56,786.43 320.56,718.65 C320.56,716.43 320.56,714.22 320.41,712.02 C330.448314,704.759109 339.113555,695.768794 346,685.47 C336.638791,689.618018 326.708293,692.338286 316.54,693.54 C327.24744,687.129821 335.261235,677.04772 339.09,665.17 C329.021575,671.144553 318.006461,675.35512 306.52,677.62 C290.620828,660.713943 265.357194,656.576126 244.895493,667.526799 C224.433792,678.477473 213.86275,701.793257 219.11,724.4 C177.868957,722.332495 139.444758,702.853233 113.4,670.81 C99.7862276,694.246447 106.739879,724.228595 129.28,739.28 C121.117412,739.038075 113.132794,736.836132 106,732.86 C106,733.07 106,733.29 106,733.51 C106.006681,757.92593 123.217515,778.955352 147.15,783.79 C139.598696,785.8494 131.675806,786.150443 123.99,784.67 C130.709479,805.564228 149.965746,819.877839 171.91,820.29 C153.74735,834.564319 131.310595,842.313277 108.21,842.29 C104.129036,842.282165 100.052041,842.035075 96,841.55 C119.456359,856.602766 146.749134,864.587169 174.62,864.55" id="Path" fill="#FFFFFF"></path>
		</g>
	</g>
</svg>