<svg viewBox="0 0 857 1200" version="1.1"
	xmlns="http://www.w3.org/2000/svg"
	xmlns:xlink="http://www.w3.org/1999/xlink">
	<g id="Social" stroke="none" stroke-width="1" fill="none" fill-rule="evenodd">
		<g id="social-youtube-vec">
			<rect id="Rectangle" fill="#FF0000" fill-rule="nonzero" x="0" y="0" width="857" height="1200"></rect>
			<path d="M122.4,1076.2 C140.96,1076.2 150.96,1065.08 150.96,1047.72 C150.96,1030.36 140.96,1019.24 122.4,1019.24 L100.64,1019.24 L100.64,1076.2 L122.4,1076.2 Z M122.24,1066.92 L111.44,1066.92 L111.44,1028.52 L122.24,1028.52 C133.28,1028.52 139.76,1035.08 139.76,1047.72 C139.76,1060.36 133.28,1066.92 122.24,1066.92 Z M170,1077.16 C176.08,1077.16 180.56,1075 183.28,1071.16 C183.44,1073.16 183.76,1075.08 184.4,1076.2 L194.48,1076.2 C193.36,1074.6 192.8,1071.32 192.8,1068.36 L192.8,1046.36 C192.8,1038.92 187.92,1033.96 175.6,1033.96 C162.72,1033.96 157.6,1039.32 157.04,1048.04 L166.96,1048.04 C167.36,1043 169.76,1041.48 175.52,1041.48 C181.36,1041.48 183.04,1043.4 183.04,1046.6 C183.04,1049.64 181.04,1050.84 177.2,1051.32 L170.96,1051.88 C159.28,1053 155.12,1057.88 155.12,1064.76 C155.12,1072.76 161.2,1077.16 170,1077.16 Z M172.4,1069.96 C167.76,1069.96 165.44,1067.8 165.44,1064.36 C165.44,1061.08 167.28,1059.08 172.88,1058.44 L178.32,1057.8 C180.48,1057.56 182,1057.08 183.04,1056.12 L183.04,1059.88 C183.04,1067.08 177.76,1069.96 172.4,1069.96 Z M210.56,1076.2 L210.56,1053.08 C210.56,1045.72 215.36,1042.68 219.76,1042.68 C224.88,1042.68 227.52,1045.24 227.52,1050.52 L227.52,1076.2 L237.6,1076.2 L237.6,1048.84 C237.6,1039 231.76,1033.96 223.12,1033.96 C217.28,1033.96 212.88,1036.92 210.24,1040.84 L210.24,1034.92 L200.48,1034.92 L200.48,1076.2 L210.56,1076.2 Z" id="Dan" fill="#FFFFFF" fill-rule="nonzero"></path>
			<g id="yt_logo_pms_light" transform="translate(96.000000, 706.696721)">
				<path d="M219.367623,24.6288717 C216.791189,14.9668485 209.200205,7.35518567 199.560246,4.77236008 C182.087705,0.0800112467 112.02418,0.0800112467 112.02418,0.0800112467 C112.02418,0.0800112467 41.9625,0.0800112467 24.489959,4.77236008 C14.85,7.35518567 7.25901639,14.9668485 4.68258197,24.6288717 C0,42.1466043 0,78.6907205 0,78.6907205 C0,78.6907205 0,115.236686 4.68258197,132.752569 C7.25901639,142.414593 14.85,150.028104 24.489959,152.609081 C41.9625,157.303279 112.02418,157.303279 112.02418,157.303279 C112.02418,157.303279 182.087705,157.303279 199.560246,152.609081 C209.200205,150.028104 216.791189,142.414593 219.367623,132.752569 C224.050205,115.236686 224.050205,78.6907205 224.050205,78.6907205 C224.050205,78.6907205 224.050205,42.1466043 219.367623,24.6288717" id="Fill-1" fill="#FFFFFF"></path>
				<polyline id="Fill-4" fill="#D3232A" points="90 112.303279 148 78.805117 90 45.3032787 90 112.303279"></polyline>
			</g>
		</g>
	</g>
</svg>