<svg viewBox="0 0 857 1200" version="1.1"
    xmlns="http://www.w3.org/2000/svg"
    xmlns:xlink="http://www.w3.org/1999/xlink">
    <g id="Social" stroke="none" stroke-width="1" fill="none" fill-rule="evenodd">
        <g id="social-github-sm">
            <rect id="Rectangle" fill="#000000" fill-rule="nonzero" x="0" y="0" width="857" height="1200"></rect>
            <path d="M369.476841,590.648515 C230.614936,590.648515 118,703.113817 118,841.856492 C118,952.841379 190.055649,1046.98654 289.994843,1080.20336 C302.577949,1082.51651 307.163449,1074.75975 307.163449,1068.09788 C307.163449,1062.12996 306.947297,1046.33886 306.823782,1025.38173 C236.86789,1040.55599 222.10783,991.702281 222.10783,991.702281 C210.66724,962.679972 194.177967,954.954055 194.177967,954.954055 C171.343104,939.378852 195.907179,939.687272 195.907179,939.687272 C221.150588,941.460686 234.428466,965.579119 234.428466,965.579119 C256.861905,1003.96197 293.298874,992.874277 307.626631,986.443723 C309.911661,970.220838 316.411646,959.148565 323.590964,952.872221 C267.746677,946.534193 209.030664,924.975644 209.030664,828.717806 C209.030664,801.29928 218.834679,778.861735 234.922527,761.312645 C232.328709,754.959196 223.698088,729.40661 237.39283,694.832744 C237.39283,694.832744 258.498481,688.078349 306.545873,720.585802 C326.601645,715.003403 348.12416,712.227624 369.50772,712.119677 C390.87584,712.227624 412.382915,715.003403 432.469566,720.585802 C480.48608,688.078349 501.560852,694.832744 501.560852,694.832744 C515.286473,729.40661 506.655852,754.959196 504.077473,761.312645 C520.1962,778.861735 529.923018,801.29928 529.923018,828.717806 C529.923018,925.22238 471.114368,946.457088 415.100249,952.671748 C424.116854,960.428507 432.160778,975.756974 432.160778,999.181463 C432.160778,1032.76839 431.851991,1059.86307 431.851991,1068.09788 C431.851991,1074.82143 436.391172,1082.63988 449.144111,1080.18794 C549.006108,1046.89402 621,952.810537 621,841.856492 C621,703.113817 508.385064,590.648515 369.476841,590.648515" id="Fill-51" fill="#FFFFFE"></path>
        </g>
    </g>
</svg>