
<svg viewBox="0 0 857 1200" version="1.1" xmlns="http://www.w3.org/2000/svg" xmlns:xlink="http://www.w3.org/1999/xlink">
    <g id="Social" stroke="none" stroke-width="1" fill="none" fill-rule="evenodd">
        <g id="social-mast-vec-copy" fill-rule="nonzero">
            <rect id="Rectangle" fill="#6364FF" x="0" y="0" width="857" height="1200"></rect>
            <g id="logo-white" transform="translate(96.000000, 638.000000)" fill="#FFFFFF">
                <path d="M437.228501,102.061253 C430.466716,52.5286291 386.660456,13.4936048 334.731511,5.92963997 C325.970496,4.65153543 292.775576,0 215.881773,0 L215.307514,0 C138.392354,0 121.890703,4.65153543 113.129688,5.92963997 C62.6464765,13.2840425 16.5441875,48.3590039 5.35880162,98.4782602 C-0.0212288941,123.16064 -0.595384022,150.52492 0.404070495,175.626068 C1.82882102,211.622914 2.10526639,247.556796 5.42259899,283.407518 C7.71595832,307.22088 11.7166714,330.844757 17.3947795,354.102137 C28.027239,397.055288 71.0675628,432.800873 113.235879,447.383512 C158.383461,462.591632 206.935667,465.116715 253.4572,454.675426 C258.574516,453.501687 263.636066,452.140245 268.640072,450.589317 C279.931862,447.048498 293.180168,443.088316 302.919441,436.132011 C303.05292,436.034595 303.16267,435.908668 303.239792,435.763138 C303.316914,435.618203 303.36022,435.457824 303.365559,435.29388 L303.365559,400.554527 C303.363186,400.401276 303.326405,400.250401 303.256996,400.113187 C303.18818,399.975974 303.089108,399.855986 302.966307,399.761541 C302.844099,399.667095 302.70172,399.601161 302.550443,399.567898 C302.398573,399.534634 302.241364,399.535228 302.090087,399.56968 C272.284365,406.584791 241.741242,410.101256 211.097267,410.046014 C158.360325,410.046014 144.176475,385.384424 140.114539,375.11777 C136.849922,366.244635 134.776537,356.988371 133.947776,347.58539 C133.939471,347.42798 133.969133,347.269977 134.033797,347.125636 C134.09846,346.9807 134.197532,346.853585 134.32152,346.753199 C134.446101,346.653408 134.592632,346.58391 134.749248,346.550052 C134.905864,346.516194 135.068413,346.519164 135.223842,346.558962 C164.53302,353.526553 194.577819,357.043019 224.728215,357.035297 C231.979426,357.035297 239.20928,357.035297 246.461084,356.847 C276.784707,356.008869 308.745682,354.479325 338.580472,348.737745 C339.324992,348.591622 340.068919,348.465694 340.707249,348.276803 C387.766261,339.372186 432.550186,311.421037 437.100954,240.642664 C437.271215,237.856222 437.69657,211.455407 437.69657,208.563827 C437.717927,198.737325 440.907795,138.854056 437.228501,102.061253 Z M364.800039,278.67217 L315.317036,278.67217 L315.317036,159.24124 C315.317036,134.097917 304.684339,121.274698 283.05766,121.274698 C259.283441,121.274698 247.375272,136.444208 247.375272,166.407226 L247.375272,231.779627 L198.189483,231.779627 L198.189483,166.407226 C198.189483,136.444208 186.259957,121.274698 162.485738,121.274698 C140.986606,121.274698 130.247719,134.097917 130.226362,159.24124 L130.226362,278.67217 L80.7854787,278.67217 L80.7854787,155.616073 C80.7854787,130.47275 87.2998817,110.497801 100.328094,95.6912237 C113.767424,80.9196926 131.396238,73.3349378 153.278011,73.3349378 C178.604154,73.3349378 197.742771,82.9309683 210.501651,102.102833 L222.814412,122.469227 L235.147937,102.102833 C247.906818,82.9309683 267.045435,73.3349378 292.329457,73.3349378 C314.189874,73.3349378 331.818094,80.9196926 345.300137,95.6912237 C358.328943,110.484139 364.842753,130.459088 364.842753,155.616073 L364.800039,278.67217 Z" id="Shape"></path>
            </g>
        </g>
    </g>
</svg>