<svg viewBox="0 0 857 1200" version="1.1"
	xmlns="http://www.w3.org/2000/svg"
	xmlns:xlink="http://www.w3.org/1999/xlink">
	<g id="Social" stroke="none" stroke-width="1" fill="none" fill-rule="evenodd">
		<g id="social-youtube-sm">
			<rect id="Rectangle" fill="#FF0000" fill-rule="nonzero" x="0" y="0" width="857" height="1200"></rect>
			<g id="yt_logo_pms_light" transform="translate(118.000000, 725.696721)">
				<path d="M494.308377,55.3660073 C488.502811,33.5958789 471.397795,16.4455501 449.675754,10.626019 C410.304295,0.0533849588 252.42782,0.0533849588 252.42782,0.0533849588 C252.42782,0.0533849588 94.5555,0.0533849588 55.184041,10.626019 C33.462,16.4455501 16.3569836,33.5958789 10.551418,55.3660073 C0,94.8363414 0,177.176249 0,177.176249 C0,177.176249 0,259.520322 10.551418,298.986491 C16.3569836,320.756619 33.462,337.911114 55.184041,343.726479 C94.5555,354.303279 252.42782,354.303279 252.42782,354.303279 C252.42782,354.303279 410.304295,354.303279 449.675754,343.726479 C471.397795,337.911114 488.502811,320.756619 494.308377,298.986491 C504.859795,259.520322 504.859795,177.176249 504.859795,177.176249 C504.859795,177.176249 504.859795,94.8363414 494.308377,55.3660073" id="Fill-1" fill="#FFFFFF"></path>
				<polyline id="Fill-4" fill="#D3232A" points="203 253.303279 334 177.807422 203 102.303279 203 253.303279"></polyline>
			</g>
		</g>
	</g>
</svg>