<svg viewBox="0 0 440 100" version="1.1"
	xmlns="http://www.w3.org/2000/svg"
	xmlns:xlink="http://www.w3.org/1999/xlink">
	<g id="FRYTG-digital-Logo-2020" stroke="none" stroke-width="1" fill="none" fill-rule="evenodd">
		<g id="2019-BeOriginal-footer-yellow-vec" fill="#FFFF14" fill-rule="nonzero">
			<path d="M42.1125,72.5 C56.1375,72.5 62.2125,66.2 62.2125,56.75 C62.2125,51.425 58.7625,45.875 53.0625,43.85 C57.3375,41.9 60.0375,37.925 60.0375,32.675 C60.0375,25.85 55.4625,19.1 41.5875,19.1 L13.0875,19.1 L13.0875,72.5 L42.1125,72.5 Z M38.3625,39.65 L30.0375,39.65 L30.0375,32.15 L38.3625,32.15 C41.1375,32.15 42.5625,33.5 42.5625,35.9 C42.5625,38.3 41.1375,39.65 38.3625,39.65 Z M40.4625,59.45 L30.0375,59.45 L30.0375,51.95 L40.4625,51.95 C43.2375,51.95 44.6625,53.3 44.6625,55.7 C44.6625,58.1 43.2375,59.45 40.4625,59.45 Z M86.2875,73.4 C96.5625,73.4 104.3625,68.975 106.6875,60.875 L92.1375,60.875 C91.0875,62.3 89.2125,62.975 86.5875,62.975 C81.7125,62.975 79.3875,60.575 79.1625,57.05 L107.3625,57.05 C107.5875,55.175 107.6625,53.75 107.6625,52.7 C107.6625,40.175 98.8875,32.9 86.2125,32.9 C72.7875,32.9 64.5375,41.075 64.5375,53.3 C64.5375,65.825 72.7875,73.4 86.2875,73.4 Z M92.6625,48.95 L79.3875,48.95 C79.9875,45.05 82.0875,43.25 85.9875,43.25 C90.0375,43.25 92.2875,45.125 92.6625,48.95 Z M149.0625,73.4 C162.1875,73.4 171.0375,65.45 171.0375,53.225 C171.0375,41.075 162.1875,32.975 149.0625,32.975 C135.9375,32.975 127.0875,41.075 127.0875,53.225 C127.0875,65.45 135.9375,73.4 149.0625,73.4 Z M149.0625,61.4 C145.3875,61.4 142.6875,59.3 142.6875,53.3 C142.6875,47.225 145.3875,44.975 149.0625,44.975 C152.5875,44.975 155.4375,47.225 155.4375,53.3 C155.4375,59.375 152.5875,61.4 149.0625,61.4 Z M190.6125,72.5 L190.6125,57.65 C190.6125,50.45 193.8375,47.45 199.9125,47.45 L203.5125,47.45 L203.5125,33.425 C202.6875,33.275 201.7875,33.2 200.7375,33.2 C195.1125,33.2 191.6625,35.975 190.3125,41.45 L190.3125,33.8 L175.0125,33.8 L175.0125,72.5 L190.6125,72.5 Z M223.3125,30.65 L223.3125,18.95 L207.7125,18.95 L207.7125,30.65 L223.3125,30.65 Z M223.3125,72.5 L223.3125,33.8 L207.7125,33.8 L207.7125,72.5 L223.3125,72.5 Z M249.8625,88.775 C263.7375,88.775 271.6875,82.4 271.6875,70.775 L271.6875,33.8 L256.0875,33.8 L256.0875,39.35 C253.6875,35.45 249.7125,32.9 243.6375,32.9 C233.5875,32.9 227.2875,40.475 227.2875,51.95 C227.2875,63.5 233.5875,71.075 243.6375,71.075 C249.4125,71.075 253.3875,68.75 255.7875,65.075 L255.7875,72.05 C255.7875,76.025 253.9125,77.825 249.7125,77.825 C245.9625,77.825 244.0875,76.4 243.7125,73.25 L227.9625,73.25 C229.0125,83.75 236.8875,88.775 249.8625,88.775 Z M249.4875,60.125 C245.2125,60.125 242.8875,57.275 242.8875,51.875 C242.8875,46.625 245.2125,43.775 249.4875,43.775 C253.7625,43.775 256.0125,46.625 256.0125,51.875 C256.0125,57.275 253.7625,60.125 249.4875,60.125 Z M292.6875,30.65 L292.6875,18.95 L277.0875,18.95 L277.0875,30.65 L292.6875,30.65 Z M292.6875,72.5 L292.6875,33.8 L277.0875,33.8 L277.0875,72.5 L292.6875,72.5 Z M313.6875,72.5 L313.6875,51.125 C313.6875,47.375 316.2375,45.95 318.7875,45.95 C321.8625,45.95 323.2125,47.975 323.2125,51.05 L323.2125,72.5 L338.8125,72.5 L338.8125,48.5 C338.8125,37.325 333.5625,32.9 325.6125,32.9 C320.5125,32.9 316.2375,34.7 313.6125,39.425 L313.3875,39.425 L313.3875,33.8 L298.0875,33.8 L298.0875,72.5 L313.6875,72.5 Z M356.8875,73.775 C363.0375,73.775 367.2375,71.6 369.3375,68 C369.4125,69.65 369.8625,71.3 370.4625,72.5 L386.1375,72.5 C385.1625,70.475 384.7125,68.525 384.7125,66.35 L384.7125,45.275 C384.7125,37.4 378.9375,32.9 364.9875,32.9 C350.6625,32.9 344.8875,37.775 344.5125,47.225 L360.1125,47.225 C360.3375,44.3 361.7625,43.4 364.7625,43.4 C367.6125,43.4 369.1125,44.225 369.1125,46.25 C369.1125,48.275 367.6125,48.875 364.4625,49.175 L357.4125,49.85 C346.7625,50.9 342.6375,55.1 342.6375,61.85 C342.6375,70.025 348.7125,73.775 356.8875,73.775 Z M363.0375,64.025 C360.0375,64.025 358.4625,62.9 358.4625,60.575 C358.4625,58.55 359.6625,57.5 362.1375,57.2 L365.7375,56.75 C367.4625,56.525 368.5125,56.075 369.1125,55.175 L369.1125,57.725 C369.1125,61.925 367.0125,64.025 363.0375,64.025 Z M405.7875,72.5 L405.7875,19.1 L390.1875,19.1 L390.1875,72.5 L405.7875,72.5 Z M428.2125,72.5 L428.2125,56 L411.1875,56 L411.1875,72.5 L428.2125,72.5 Z" id="Beoriginal."></path>
		</g>
	</g>
</svg>