<svg width="3500" height="400" viewBox="0 0 3500 400" fill="none" xmlns="http://www.w3.org/2000/svg">
<mask id="mask0_349_23" style="mask-type:alpha" maskUnits="userSpaceOnUse" x="903" y="0" width="1675" height="400">
<rect x="903" width="1675" height="400" fill="url(#paint0_linear_349_23)" style=""/>
</mask>
<g mask="url(#mask0_349_23)">
<mask id="path-2-outside-1_349_23" maskUnits="userSpaceOnUse" x="1166" y="105" width="1174" height="235" fill="black">
<rect fill="white" x="1166" y="105" width="1174" height="235"/>
<path d="M1206.27 289C1183.02 289 1168.02 274.25 1168.02 251.25C1168.02 227 1182.52 212.75 1211.02 212.75H1225.77V185.25H1211.02C1182.52 185.25 1168.02 171 1168.02 146.75C1168.02 123.75 1183.02 109 1206.27 109C1234.27 109 1243.27 126.5 1243.27 147.5V168.25H1270.77V147.5C1270.77 126.5 1279.77 109 1307.77 109C1331.02 109 1346.02 123.75 1346.02 146.75C1346.02 171 1331.52 185.25 1303.02 185.25H1288.27V212.75H1303.02C1331.52 212.75 1346.02 227 1346.02 251.25C1346.02 274.25 1331.02 289 1307.77 289C1279.77 289 1270.77 271.5 1270.77 250.5V229.75H1243.27V250.5C1243.27 271.5 1234.27 289 1206.27 289ZM1288.27 147V168.25H1303.02C1320.77 168.25 1328.27 161 1328.27 146.75C1328.27 132 1319.52 126.25 1307.77 126.25C1294.77 126.25 1288.27 134.25 1288.27 147ZM1211.02 168.25H1225.77V147C1225.77 134.25 1219.27 126.25 1206.27 126.25C1194.52 126.25 1185.77 132 1185.77 146.75C1185.77 161 1193.27 168.25 1211.02 168.25ZM1243.27 212.75H1270.77V185.25H1243.27V212.75ZM1206.27 271.75C1219.27 271.75 1225.77 263.75 1225.77 251V229.75H1211.02C1193.27 229.75 1185.77 237 1185.77 251.25C1185.77 266 1194.52 271.75 1206.27 271.75ZM1288.27 251C1288.27 263.75 1294.77 271.75 1307.77 271.75C1319.52 271.75 1328.27 266 1328.27 251.25C1328.27 237 1320.77 229.75 1303.02 229.75H1288.27V251ZM1541.99 183.5V216.25H1500.99V257.5H1465.24V216.25H1424.49V183.5H1465.24V142.25H1500.99V183.5H1541.99ZM1690.42 293C1639.67 293 1612.67 269 1612.42 230.5H1653.42C1653.92 254.75 1669.92 260 1691.92 260C1711.92 260 1722.17 252.75 1722.17 239.5C1722.17 227.5 1714.67 222.75 1690.17 218.25L1675.67 215.5C1638.17 209 1616.17 192 1616.17 159.75C1616.17 129.5 1639.17 107 1685.67 107C1734.17 107 1758.42 128.5 1759.92 165H1719.92C1718.92 148.5 1710.17 140 1686.42 140C1667.92 140 1659.17 146.75 1659.17 158C1659.17 170.5 1667.42 175.5 1689.42 179.75L1704.42 182.5C1747.17 190.25 1765.92 206.5 1765.92 236.75C1765.92 274.25 1735.92 293 1690.42 293ZM1858.51 157C1893.51 157 1914.76 183.5 1914.76 224.5C1914.76 265.5 1893.51 292 1858.51 292C1841.01 292 1828.76 285 1820.51 273.25V338H1781.51V160H1819.51V177.25C1827.76 164.75 1840.26 157 1858.51 157ZM1847.76 260.75C1865.01 260.75 1875.26 248 1875.26 223.5C1875.26 199 1865.01 188.25 1847.76 188.25C1830.26 188.25 1820.01 200 1820.01 224.5C1820.01 249 1830.26 260.75 1847.76 260.75ZM2055.42 289H2016.17C2014.42 285.75 2013.17 280.25 2012.92 274.5C2004.67 285.5 1990.67 292 1971.67 292C1944.67 292 1924.67 278.25 1924.67 252.5C1924.67 230.25 1937.92 215.5 1975.17 212.25L1995.42 210.5C2006.42 209.25 2012.17 206 2012.17 197.75C2012.17 190 2007.92 184.75 1992.42 184.75C1977.17 184.75 1970.92 188.5 1969.67 201.75H1930.92C1932.92 173.25 1951.17 157 1992.67 157C2033.17 157 2050.17 172.25 2050.17 196.75V265.25C2050.17 274.75 2051.92 284 2055.42 289ZM1983.42 265.75C1998.42 265.75 2012.17 258.5 2012.17 238.25V228.75C2009.42 231.75 2005.17 233 1999.17 233.75L1983.17 235.5C1969.92 237 1964.42 242 1964.42 251C1964.42 260 1971.17 265.75 1983.42 265.75ZM2130.6 292C2090.35 292 2064.35 265.5 2064.35 224.5C2064.35 183.5 2090.1 157 2130.6 157C2166.1 157 2190.1 176.75 2193.6 208.5H2154.85C2152.6 194.75 2143.1 188.75 2130.6 188.75C2114.1 188.75 2103.85 199.75 2103.85 224.5C2103.85 249.25 2114.35 260 2130.6 260C2143.6 260 2153.85 253.5 2155.6 238.25H2194.35C2191.6 271.5 2166.35 292 2130.6 292ZM2337.73 228.25V236H2242.23C2244.98 254.5 2256.48 263.25 2271.73 263.25C2284.73 263.25 2293.23 258 2297.73 248.75H2334.73C2327.73 276 2302.73 292 2271.73 292C2231.73 292 2204.73 265.5 2204.73 224.5C2204.73 183.75 2230.98 157 2271.23 157C2311.48 157 2337.73 184.75 2337.73 228.25ZM2270.73 185.75C2256.48 185.75 2245.48 193.25 2242.48 211.25H2299.48C2296.73 195.25 2286.48 185.75 2270.73 185.75Z"/>
</mask>
<path d="M1225.77 212.75V214.75H1227.77V212.75H1225.77ZM1225.77 185.25H1227.77V183.25H1225.77V185.25ZM1243.27 168.25H1241.27V170.25H1243.27V168.25ZM1270.77 168.25V170.25H1272.77V168.25H1270.77ZM1288.27 185.25V183.25H1286.27V185.25H1288.27ZM1288.27 212.75H1286.27V214.75H1288.27V212.75ZM1270.77 229.75H1272.77V227.75H1270.77V229.75ZM1243.27 229.75V227.75H1241.27V229.75H1243.27ZM1288.27 168.25H1286.27V170.25H1288.27V168.25ZM1225.77 168.25V170.25H1227.77V168.25H1225.77ZM1243.27 212.75H1241.27V214.75H1243.27V212.75ZM1270.77 212.75V214.75H1272.77V212.75H1270.77ZM1270.77 185.25H1272.77V183.25H1270.77V185.25ZM1243.27 185.25V183.25H1241.27V185.25H1243.27ZM1225.77 229.75H1227.77V227.75H1225.77V229.75ZM1288.27 229.75V227.75H1286.27V229.75H1288.27ZM1206.27 287C1195.08 287 1186.05 283.456 1179.83 277.326C1173.62 271.198 1170.02 262.305 1170.02 251.25H1166.02C1166.02 263.195 1169.93 273.177 1177.03 280.174C1184.12 287.169 1194.22 291 1206.27 291V287ZM1170.02 251.25C1170.02 239.529 1173.52 230.501 1180.19 224.38C1186.89 218.235 1197.08 214.75 1211.02 214.75V210.75C1196.46 210.75 1185.16 214.39 1177.48 221.432C1169.78 228.499 1166.02 238.721 1166.02 251.25H1170.02ZM1211.02 214.75H1225.77V210.75H1211.02V214.75ZM1227.77 212.75V185.25H1223.77V212.75H1227.77ZM1225.77 183.25H1211.02V187.25H1225.77V183.25ZM1211.02 183.25C1197.08 183.25 1186.89 179.765 1180.19 173.62C1173.52 167.499 1170.02 158.471 1170.02 146.75H1166.02C1166.02 159.279 1169.78 169.501 1177.48 176.568C1185.16 183.61 1196.46 187.25 1211.02 187.25V183.25ZM1170.02 146.75C1170.02 135.695 1173.62 126.802 1179.83 120.674C1186.05 114.544 1195.08 111 1206.27 111V107C1194.22 107 1184.12 110.831 1177.03 117.826C1169.93 124.823 1166.02 134.805 1166.02 146.75H1170.02ZM1206.27 111C1219.83 111 1228.45 115.217 1233.73 121.644C1239.07 128.145 1241.27 137.239 1241.27 147.5H1245.27C1245.27 136.761 1242.98 126.605 1236.82 119.106C1230.6 111.533 1220.71 107 1206.27 107V111ZM1241.27 147.5V168.25H1245.27V147.5H1241.27ZM1243.27 170.25H1270.77V166.25H1243.27V170.25ZM1272.77 168.25V147.5H1268.77V168.25H1272.77ZM1272.77 147.5C1272.77 137.239 1274.98 128.145 1280.32 121.644C1285.6 115.217 1294.21 111 1307.77 111V107C1293.33 107 1283.45 111.533 1277.23 119.106C1271.07 126.605 1268.77 136.761 1268.77 147.5H1272.77ZM1307.77 111C1318.97 111 1328 114.544 1334.21 120.674C1340.43 126.802 1344.02 135.695 1344.02 146.75H1348.02C1348.02 134.805 1344.12 124.823 1337.02 117.826C1329.93 110.831 1319.83 107 1307.77 107V111ZM1344.02 146.75C1344.02 158.471 1340.53 167.499 1333.86 173.62C1327.16 179.765 1316.96 183.25 1303.02 183.25V187.25C1317.58 187.25 1328.89 183.61 1336.56 176.568C1344.27 169.501 1348.02 159.279 1348.02 146.75H1344.02ZM1303.02 183.25H1288.27V187.25H1303.02V183.25ZM1286.27 185.25V212.75H1290.27V185.25H1286.27ZM1288.27 214.75H1303.02V210.75H1288.27V214.75ZM1303.02 214.75C1316.96 214.75 1327.16 218.235 1333.86 224.38C1340.53 230.501 1344.02 239.529 1344.02 251.25H1348.02C1348.02 238.721 1344.27 228.499 1336.56 221.432C1328.89 214.39 1317.58 210.75 1303.02 210.75V214.75ZM1344.02 251.25C1344.02 262.305 1340.43 271.198 1334.21 277.326C1328 283.456 1318.97 287 1307.77 287V291C1319.83 291 1329.93 287.169 1337.02 280.174C1344.12 273.177 1348.02 263.195 1348.02 251.25H1344.02ZM1307.77 287C1294.21 287 1285.6 282.783 1280.32 276.356C1274.98 269.855 1272.77 260.761 1272.77 250.5H1268.77C1268.77 261.239 1271.07 271.395 1277.23 278.894C1283.45 286.467 1293.33 291 1307.77 291V287ZM1272.77 250.5V229.75H1268.77V250.5H1272.77ZM1270.77 227.75H1243.27V231.75H1270.77V227.75ZM1241.27 229.75V250.5H1245.27V229.75H1241.27ZM1241.27 250.5C1241.27 260.761 1239.07 269.855 1233.73 276.356C1228.45 282.783 1219.83 287 1206.27 287V291C1220.71 291 1230.6 286.467 1236.82 278.894C1242.98 271.395 1245.27 261.239 1245.27 250.5H1241.27ZM1286.27 147V168.25H1290.27V147H1286.27ZM1288.27 170.25H1303.02V166.25H1288.27V170.25ZM1303.02 170.25C1312.11 170.25 1319 168.403 1323.62 164.347C1328.3 160.241 1330.27 154.213 1330.27 146.75H1326.27C1326.27 153.537 1324.5 158.259 1320.99 161.341C1317.42 164.472 1311.68 166.25 1303.02 166.25V170.25ZM1330.27 146.75C1330.27 138.971 1327.95 133.238 1323.77 129.48C1319.62 125.758 1313.94 124.25 1307.77 124.25V128.25C1313.35 128.25 1317.93 129.617 1321.09 132.457C1324.22 135.262 1326.27 139.779 1326.27 146.75H1330.27ZM1307.77 124.25C1300.85 124.25 1295.38 126.394 1291.67 130.502C1287.98 134.578 1286.27 140.309 1286.27 147H1290.27C1290.27 140.941 1291.82 136.297 1294.63 133.185C1297.42 130.106 1301.7 128.25 1307.77 128.25V124.25ZM1211.02 170.25H1225.77V166.25H1211.02V170.25ZM1227.77 168.25V147H1223.77V168.25H1227.77ZM1227.77 147C1227.77 140.309 1226.07 134.578 1222.38 130.502C1218.67 126.394 1213.2 124.25 1206.27 124.25V128.25C1212.35 128.25 1216.63 130.106 1219.42 133.185C1222.23 136.297 1223.77 140.941 1223.77 147H1227.77ZM1206.27 124.25C1200.1 124.25 1194.43 125.758 1190.28 129.48C1186.09 133.238 1183.77 138.971 1183.77 146.75H1187.77C1187.77 139.779 1189.83 135.262 1192.95 132.457C1196.12 129.617 1200.69 128.25 1206.27 128.25V124.25ZM1183.77 146.75C1183.77 154.213 1185.75 160.241 1190.42 164.347C1195.04 168.403 1201.93 170.25 1211.02 170.25V166.25C1202.36 166.25 1196.63 164.472 1193.06 161.341C1189.55 158.259 1187.77 153.537 1187.77 146.75H1183.77ZM1243.27 214.75H1270.77V210.75H1243.27V214.75ZM1272.77 212.75V185.25H1268.77V212.75H1272.77ZM1270.77 183.25H1243.27V187.25H1270.77V183.25ZM1241.27 185.25V212.75H1245.27V185.25H1241.27ZM1206.27 273.75C1213.2 273.75 1218.67 271.606 1222.38 267.498C1226.07 263.422 1227.77 257.691 1227.77 251H1223.77C1223.77 257.059 1222.23 261.703 1219.42 264.815C1216.63 267.894 1212.35 269.75 1206.27 269.75V273.75ZM1227.77 251V229.75H1223.77V251H1227.77ZM1225.77 227.75H1211.02V231.75H1225.77V227.75ZM1211.02 227.75C1201.93 227.75 1195.04 229.597 1190.42 233.653C1185.75 237.759 1183.77 243.787 1183.77 251.25H1187.77C1187.77 244.463 1189.55 239.741 1193.06 236.659C1196.63 233.528 1202.36 231.75 1211.02 231.75V227.75ZM1183.77 251.25C1183.77 259.029 1186.09 264.762 1190.28 268.52C1194.43 272.242 1200.1 273.75 1206.27 273.75V269.75C1200.69 269.75 1196.12 268.383 1192.95 265.543C1189.83 262.738 1187.77 258.221 1187.77 251.25H1183.77ZM1286.27 251C1286.27 257.691 1287.98 263.422 1291.67 267.498C1295.38 271.606 1300.85 273.75 1307.77 273.75V269.75C1301.7 269.75 1297.42 267.894 1294.63 264.815C1291.82 261.703 1290.27 257.059 1290.27 251H1286.27ZM1307.77 273.75C1313.94 273.75 1319.62 272.242 1323.77 268.52C1327.95 264.762 1330.27 259.029 1330.27 251.25H1326.27C1326.27 258.221 1324.22 262.738 1321.09 265.543C1317.93 268.383 1313.35 269.75 1307.77 269.75V273.75ZM1330.27 251.25C1330.27 243.787 1328.3 237.759 1323.62 233.653C1319 229.597 1312.11 227.75 1303.02 227.75V231.75C1311.68 231.75 1317.42 233.528 1320.99 236.659C1324.5 239.741 1326.27 244.463 1326.27 251.25H1330.27ZM1303.02 227.75H1288.27V231.75H1303.02V227.75ZM1286.27 229.75V251H1290.27V229.75H1286.27ZM1541.99 183.5H1543.99V181.5H1541.99V183.5ZM1541.99 216.25V218.25H1543.99V216.25H1541.99ZM1500.99 216.25V214.25H1498.99V216.25H1500.99ZM1500.99 257.5V259.5H1502.99V257.5H1500.99ZM1465.24 257.5H1463.24V259.5H1465.24V257.5ZM1465.24 216.25H1467.24V214.25H1465.24V216.25ZM1424.49 216.25H1422.49V218.25H1424.49V216.25ZM1424.49 183.5V181.5H1422.49V183.5H1424.49ZM1465.24 183.5V185.5H1467.24V183.5H1465.24ZM1465.24 142.25V140.25H1463.24V142.25H1465.24ZM1500.99 142.25H1502.99V140.25H1500.99V142.25ZM1500.99 183.5H1498.99V185.5H1500.99V183.5ZM1539.99 183.5V216.25H1543.99V183.5H1539.99ZM1541.99 214.25H1500.99V218.25H1541.99V214.25ZM1498.99 216.25V257.5H1502.99V216.25H1498.99ZM1500.99 255.5H1465.24V259.5H1500.99V255.5ZM1467.24 257.5V216.25H1463.24V257.5H1467.24ZM1465.24 214.25H1424.49V218.25H1465.24V214.25ZM1426.49 216.25V183.5H1422.49V216.25H1426.49ZM1424.49 185.5H1465.24V181.5H1424.49V185.5ZM1467.24 183.5V142.25H1463.24V183.5H1467.24ZM1465.24 144.25H1500.99V140.25H1465.24V144.25ZM1498.99 142.25V183.5H1502.99V142.25H1498.99ZM1500.99 185.5H1541.99V181.5H1500.99V185.5ZM1612.42 230.5V228.5H1610.4L1610.42 230.513L1612.42 230.5ZM1653.42 230.5L1655.42 230.459L1655.38 228.5H1653.42V230.5ZM1690.17 218.25L1689.79 220.215L1689.8 220.217L1690.17 218.25ZM1675.67 215.5L1676.04 213.535L1676.02 213.532L1676.01 213.529L1675.67 215.5ZM1759.92 165V167H1762L1761.91 164.918L1759.92 165ZM1719.92 165L1717.92 165.121L1718.03 167H1719.92V165ZM1689.42 179.75L1689.04 181.714L1689.05 181.715L1689.06 181.717L1689.42 179.75ZM1704.42 182.5L1704.06 184.467L1704.06 184.468L1704.42 182.5ZM1690.42 291C1665.33 291 1646.4 285.066 1633.75 274.644C1621.15 264.264 1614.54 249.238 1614.42 230.487L1610.42 230.513C1610.54 250.262 1617.56 266.486 1631.21 277.731C1644.81 288.934 1664.75 295 1690.42 295V291ZM1612.42 232.5H1653.42V228.5H1612.42V232.5ZM1651.42 230.541C1651.68 243.157 1656.02 251.241 1663.53 256.03C1670.85 260.699 1680.85 262 1691.92 262V258C1680.98 258 1671.98 256.676 1665.68 252.657C1659.56 248.759 1655.66 242.093 1655.42 230.459L1651.42 230.541ZM1691.92 262C1702.1 262 1710.13 260.163 1715.67 256.369C1721.33 252.492 1724.17 246.721 1724.17 239.5H1720.17C1720.17 245.529 1717.88 250.008 1713.41 253.069C1708.82 256.212 1701.73 258 1691.92 258V262ZM1724.17 239.5C1724.17 236.296 1723.67 233.423 1722.41 230.866C1721.14 228.292 1719.17 226.178 1716.45 224.392C1711.14 220.894 1702.76 218.53 1690.53 216.283L1689.8 220.217C1702.07 222.47 1709.69 224.731 1714.25 227.733C1716.48 229.197 1717.91 230.802 1718.82 232.634C1719.73 234.483 1720.17 236.704 1720.17 239.5H1724.17ZM1690.54 216.285L1676.04 213.535L1675.29 217.465L1689.79 220.215L1690.54 216.285ZM1676.01 213.529C1657.44 210.311 1642.98 204.534 1633.19 195.789C1623.46 187.111 1618.17 175.362 1618.17 159.75H1614.17C1614.17 176.388 1619.87 189.264 1630.52 198.773C1641.1 208.216 1656.39 214.189 1675.32 217.471L1676.01 213.529ZM1618.17 159.75C1618.17 145.171 1623.69 132.575 1634.74 123.583C1645.84 114.554 1662.72 109 1685.67 109V105C1662.12 105 1644.24 110.696 1632.22 120.48C1620.15 130.3 1614.17 144.079 1614.17 159.75H1618.17ZM1685.67 109C1709.65 109 1727.33 114.32 1739.16 123.869C1750.94 133.373 1757.19 147.283 1757.92 165.082L1761.91 164.918C1761.15 146.217 1754.52 131.127 1741.67 120.756C1728.88 110.429 1710.18 105 1685.67 105V109ZM1759.92 163H1719.92V167H1759.92V163ZM1721.91 164.879C1721.39 156.304 1718.83 149.413 1712.94 144.745C1707.14 140.143 1698.46 138 1686.42 138V142C1698.12 142 1705.7 144.107 1710.45 147.88C1715.13 151.587 1717.44 157.196 1717.92 165.121L1721.91 164.879ZM1686.42 138C1676.98 138 1669.7 139.713 1664.72 143.133C1659.63 146.633 1657.17 151.777 1657.17 158H1661.17C1661.17 152.972 1663.08 149.117 1666.99 146.429C1671.01 143.662 1677.36 142 1686.42 142V138ZM1657.17 158C1657.17 161.344 1657.72 164.317 1659 166.95C1660.29 169.595 1662.26 171.774 1664.9 173.611C1670.09 177.218 1678.03 179.588 1689.04 181.714L1689.8 177.786C1678.8 175.662 1671.62 173.407 1667.18 170.326C1665.01 168.819 1663.54 167.139 1662.6 165.198C1661.65 163.245 1661.17 160.906 1661.17 158H1657.17ZM1689.06 181.717L1704.06 184.467L1704.78 180.533L1689.78 177.783L1689.06 181.717ZM1704.06 184.468C1725.3 188.318 1740.25 194.232 1749.88 202.69C1759.4 211.058 1763.92 222.095 1763.92 236.75H1767.92C1767.92 221.155 1763.05 208.942 1752.52 199.685C1742.08 190.518 1726.28 184.432 1704.77 180.532L1704.06 184.468ZM1763.92 236.75C1763.92 254.889 1756.7 268.328 1744.07 277.307C1731.34 286.354 1712.93 291 1690.42 291V295C1713.4 295 1732.74 290.271 1746.39 280.568C1760.13 270.797 1767.92 256.111 1767.92 236.75H1763.92ZM1820.51 273.25L1822.15 272.101L1818.51 266.921V273.25H1820.51ZM1820.51 338V340H1822.51V338H1820.51ZM1781.51 338H1779.51V340H1781.51V338ZM1781.51 160V158H1779.51V160H1781.51ZM1819.51 160H1821.51V158H1819.51V160ZM1819.51 177.25H1817.51V183.911L1821.18 178.352L1819.51 177.25ZM1858.51 159C1875.46 159 1888.94 165.394 1898.22 176.647C1907.53 187.945 1912.76 204.325 1912.76 224.5H1916.76C1916.76 203.675 1911.37 186.305 1901.31 174.103C1891.21 161.856 1876.56 155 1858.51 155V159ZM1912.76 224.5C1912.76 244.675 1907.53 261.055 1898.22 272.353C1888.94 283.606 1875.46 290 1858.51 290V294C1876.56 294 1891.21 287.144 1901.31 274.897C1911.37 262.695 1916.76 245.325 1916.76 224.5H1912.76ZM1858.51 290C1841.65 290 1830.02 283.303 1822.15 272.101L1818.88 274.399C1827.51 286.697 1840.38 294 1858.51 294V290ZM1818.51 273.25V338H1822.51V273.25H1818.51ZM1820.51 336H1781.51V340H1820.51V336ZM1783.51 338V160H1779.51V338H1783.51ZM1781.51 162H1819.51V158H1781.51V162ZM1817.51 160V177.25H1821.51V160H1817.51ZM1821.18 178.352C1829.07 166.402 1840.95 159 1858.51 159V155C1839.58 155 1826.46 163.098 1817.84 176.148L1821.18 178.352ZM1847.76 262.75C1856.94 262.75 1864.44 259.328 1869.58 252.518C1874.66 245.79 1877.26 235.987 1877.26 223.5H1873.26C1873.26 235.513 1870.74 244.335 1866.39 250.107C1862.09 255.797 1855.84 258.75 1847.76 258.75V262.75ZM1877.26 223.5C1877.26 211.018 1874.66 201.672 1869.53 195.419C1864.34 189.093 1856.83 186.25 1847.76 186.25V190.25C1855.95 190.25 1862.19 192.782 1866.44 197.956C1870.74 203.203 1873.26 211.482 1873.26 223.5H1877.26ZM1847.76 186.25C1838.53 186.25 1830.96 189.375 1825.76 195.946C1820.62 202.438 1818.01 212.016 1818.01 224.5H1822.01C1822.01 212.484 1824.53 203.937 1828.89 198.429C1833.19 193 1839.5 190.25 1847.76 190.25V186.25ZM1818.01 224.5C1818.01 236.984 1820.62 246.562 1825.76 253.054C1830.96 259.625 1838.53 262.75 1847.76 262.75V258.75C1839.5 258.75 1833.19 256 1828.89 250.571C1824.53 245.063 1822.01 236.516 1822.01 224.5H1818.01ZM2055.42 289V291H2059.26L2057.06 287.853L2055.42 289ZM2016.17 289L2014.41 289.948L2014.98 291H2016.17V289ZM2012.92 274.5L2014.92 274.413L2014.68 268.826L2011.32 273.3L2012.92 274.5ZM1975.17 212.25L1975 210.257L1975 210.258L1975.17 212.25ZM1995.42 210.5L1995.59 212.493L1995.62 212.49L1995.65 212.487L1995.42 210.5ZM1969.67 201.75V203.75H1971.49L1971.66 201.938L1969.67 201.75ZM1930.92 201.75L1928.93 201.61L1928.78 203.75H1930.92V201.75ZM2012.17 228.75H2014.17V223.608L2010.7 227.399L2012.17 228.75ZM1999.17 233.75L1999.39 235.738L1999.4 235.736L1999.42 235.735L1999.17 233.75ZM1983.17 235.5L1982.95 233.512L1982.95 233.513L1983.17 235.5ZM2055.42 287H2016.17V291H2055.42V287ZM2017.93 288.052C2016.38 285.17 2015.16 280.005 2014.92 274.413L2010.92 274.587C2011.18 280.495 2012.46 286.33 2014.41 289.948L2017.93 288.052ZM2011.32 273.3C2003.54 283.675 1990.21 290 1971.67 290V294C1991.13 294 2005.8 287.325 2014.52 275.7L2011.32 273.3ZM1971.67 290C1958.49 290 1947.22 286.64 1939.29 280.341C1931.42 274.086 1926.67 264.801 1926.67 252.5H1922.67C1922.67 265.949 1927.92 276.414 1936.8 283.472C1945.63 290.485 1957.86 294 1971.67 294V290ZM1926.67 252.5C1926.67 241.805 1929.83 233.17 1937.26 226.764C1944.77 220.283 1956.91 215.851 1975.35 214.242L1975 210.258C1956.18 211.899 1943.07 216.467 1934.65 223.736C1926.13 231.08 1922.67 240.945 1922.67 252.5H1926.67ZM1975.34 214.243L1995.59 212.493L1995.25 208.507L1975 210.257L1975.34 214.243ZM1995.65 212.487C2001.23 211.853 2005.84 210.685 2009.08 208.38C2012.49 205.955 2014.17 202.431 2014.17 197.75H2010.17C2010.17 201.319 2008.98 203.545 2006.76 205.12C2004.38 206.815 2000.62 207.897 1995.2 208.513L1995.65 212.487ZM2014.17 197.75C2014.17 193.492 2012.98 189.537 2009.32 186.752C2005.79 184.071 2000.32 182.75 1992.42 182.75V186.75C2000.03 186.75 2004.42 188.054 2006.9 189.936C2009.24 191.713 2010.17 194.258 2010.17 197.75H2014.17ZM1992.42 182.75C1984.74 182.75 1978.8 183.67 1974.63 186.655C1970.33 189.734 1968.33 194.676 1967.68 201.562L1971.66 201.938C1972.26 195.574 1974.01 192.016 1976.96 189.908C1980.04 187.705 1984.85 186.75 1992.42 186.75V182.75ZM1969.67 199.75H1930.92V203.75H1969.67V199.75ZM1932.92 201.89C1933.89 188.062 1938.76 177.472 1948.2 170.278C1957.71 163.028 1972.14 159 1992.67 159V155C1971.71 155 1956.26 159.097 1945.77 167.097C1935.21 175.153 1929.96 186.938 1928.93 201.61L1932.92 201.89ZM1992.67 159C2012.73 159 2026.6 162.785 2035.42 169.297C2044.13 175.728 2048.17 185.014 2048.17 196.75H2052.17C2052.17 183.986 2047.71 173.397 2037.8 166.078C2027.99 158.84 2013.12 155 1992.67 155V159ZM2048.17 196.75V265.25H2052.17V196.75H2048.17ZM2048.17 265.25C2048.17 270.115 2048.62 274.944 2049.53 279.228C2050.43 283.482 2051.82 287.337 2053.78 290.147L2057.06 287.853C2055.53 285.663 2054.29 282.393 2053.44 278.397C2052.6 274.431 2052.17 269.885 2052.17 265.25H2048.17ZM1983.42 267.75C1991.21 267.75 1998.9 265.873 2004.69 261.142C2010.54 256.356 2014.17 248.868 2014.17 238.25H2010.17C2010.17 247.882 2006.93 254.144 2002.16 258.045C1997.32 262.002 1990.64 263.75 1983.42 263.75V267.75ZM2014.17 238.25V228.75H2010.17V238.25H2014.17ZM2010.7 227.399C2008.47 229.827 2004.88 231.021 1998.92 231.765L1999.42 235.735C2005.46 234.979 2010.37 233.673 2013.65 230.101L2010.7 227.399ZM1998.95 231.762L1982.95 233.512L1983.39 237.488L1999.39 235.738L1998.95 231.762ZM1982.95 233.513C1976.16 234.281 1971.01 235.974 1967.54 238.91C1963.96 241.933 1962.42 246.048 1962.42 251H1966.42C1966.42 246.952 1967.63 244.067 1970.12 241.965C1972.71 239.776 1976.93 238.219 1983.4 237.487L1982.95 233.513ZM1962.42 251C1962.42 256.046 1964.34 260.335 1968.08 263.315C1971.77 266.249 1977.01 267.75 1983.42 267.75V263.75C1977.58 263.75 1973.33 262.376 1970.57 260.185C1967.88 258.04 1966.42 254.954 1966.42 251H1962.42ZM2193.6 208.5V210.5H2195.83L2195.59 208.281L2193.6 208.5ZM2154.85 208.5L2152.88 208.823L2153.15 210.5H2154.85V208.5ZM2155.6 238.25V236.25H2153.82L2153.61 238.022L2155.6 238.25ZM2194.35 238.25L2196.34 238.415L2196.52 236.25H2194.35V238.25ZM2130.6 290C2110.92 290 2094.91 283.533 2083.81 272.224C2072.71 260.912 2066.35 244.572 2066.35 224.5H2062.35C2062.35 245.428 2068.99 262.838 2080.95 275.026C2092.92 287.217 2110.02 294 2130.6 294V290ZM2066.35 224.5C2066.35 204.422 2072.65 188.084 2083.72 176.774C2094.78 165.469 2110.8 159 2130.6 159V155C2109.9 155 2092.79 161.781 2080.86 173.976C2068.93 186.166 2062.35 203.578 2062.35 224.5H2066.35ZM2130.6 159C2147.98 159 2162.38 163.832 2172.83 172.391C2183.27 180.937 2189.91 193.317 2191.61 208.719L2195.59 208.281C2193.79 191.933 2186.68 178.563 2175.37 169.296C2164.07 160.043 2148.72 155 2130.6 155V159ZM2193.6 206.5H2154.85V210.5H2193.6V206.5ZM2156.82 208.177C2155.63 200.882 2152.47 195.455 2147.78 191.879C2143.12 188.324 2137.16 186.75 2130.6 186.75V190.75C2136.54 190.75 2141.58 192.176 2145.36 195.059C2149.1 197.92 2151.82 202.368 2152.88 208.823L2156.82 208.177ZM2130.6 186.75C2121.87 186.75 2114.55 189.685 2109.47 196.103C2104.45 202.44 2101.85 211.895 2101.85 224.5H2105.85C2105.85 212.355 2108.37 203.935 2112.61 198.585C2116.78 193.315 2122.83 190.75 2130.6 190.75V186.75ZM2101.85 224.5C2101.85 237.115 2104.52 246.511 2109.57 252.786C2114.69 259.133 2122 262 2130.6 262V258C2122.95 258 2116.89 255.492 2112.69 250.277C2108.43 244.989 2105.85 236.635 2105.85 224.5H2101.85ZM2130.6 262C2137.42 262 2143.71 260.295 2148.57 256.404C2153.45 252.489 2156.66 246.533 2157.59 238.478L2153.61 238.022C2152.79 245.217 2149.99 250.136 2146.07 253.283C2142.11 256.455 2136.78 258 2130.6 258V262ZM2155.6 240.25H2194.35V236.25H2155.6V240.25ZM2192.36 238.085C2191.02 254.216 2184.25 267.145 2173.57 276.058C2162.87 284.986 2148.1 290 2130.6 290V294C2148.85 294 2164.58 288.764 2176.13 279.129C2187.7 269.48 2194.93 255.534 2196.34 238.415L2192.36 238.085ZM2337.73 236V238H2339.73V236H2337.73ZM2242.23 236V234H2239.91L2240.25 236.294L2242.23 236ZM2297.73 248.75V246.75H2296.48L2295.93 247.875L2297.73 248.75ZM2334.73 248.75L2336.67 249.248L2337.31 246.75H2334.73V248.75ZM2242.48 211.25L2240.51 210.921L2240.12 213.25H2242.48V211.25ZM2299.48 211.25V213.25H2301.85L2301.45 210.911L2299.48 211.25ZM2335.73 228.25V236H2339.73V228.25H2335.73ZM2337.73 234H2242.23V238H2337.73V234ZM2240.25 236.294C2241.68 245.903 2245.42 253.187 2250.97 258.065C2256.53 262.945 2263.72 265.25 2271.73 265.25V261.25C2264.49 261.25 2258.31 259.18 2253.61 255.06C2248.92 250.938 2245.53 244.597 2244.21 235.706L2240.25 236.294ZM2271.73 265.25C2278.5 265.25 2284.23 263.883 2288.91 261.204C2293.6 258.518 2297.12 254.577 2299.53 249.625L2295.93 247.875C2293.84 252.173 2290.86 255.482 2286.92 257.733C2282.98 259.992 2277.96 261.25 2271.73 261.25V265.25ZM2297.73 250.75H2334.73V246.75H2297.73V250.75ZM2332.79 248.252C2326.07 274.409 2302.05 290 2271.73 290V294C2303.41 294 2329.39 277.591 2336.67 249.248L2332.79 248.252ZM2271.73 290C2252.18 290 2235.97 283.533 2224.64 272.211C2213.32 260.89 2206.73 244.551 2206.73 224.5H2202.73C2202.73 245.449 2209.64 262.86 2221.82 275.039C2233.99 287.217 2251.28 294 2271.73 294V290ZM2206.73 224.5C2206.73 204.561 2213.14 188.22 2224.31 176.872C2235.48 165.527 2251.56 159 2271.23 159V155C2250.65 155 2233.48 161.848 2221.46 174.066C2209.44 186.28 2202.73 203.689 2202.73 224.5H2206.73ZM2271.23 159C2290.88 159 2306.95 165.76 2318.11 177.68C2329.29 189.613 2335.73 206.901 2335.73 228.25H2339.73C2339.73 206.099 2333.04 187.762 2321.03 174.945C2309.01 162.115 2291.83 155 2271.23 155V159ZM2270.73 183.75C2263.26 183.75 2256.45 185.721 2251.1 190.219C2245.75 194.72 2242.07 201.571 2240.51 210.921L2244.45 211.579C2245.89 202.929 2249.21 197.03 2253.67 193.281C2258.14 189.529 2263.96 187.75 2270.73 187.75V183.75ZM2242.48 213.25H2299.48V209.25H2242.48V213.25ZM2301.45 210.911C2300.02 202.57 2296.6 195.75 2291.32 191.012C2286.02 186.261 2279.02 183.75 2270.73 183.75V187.75C2278.19 187.75 2284.19 189.989 2288.64 193.988C2293.11 198 2296.19 203.93 2297.51 211.589L2301.45 210.911Z" fill="#ECEBE3" style="fill:#ECEBE3;fill:color(display-p3 0.9255 0.9216 0.8902);fill-opacity:1;" mask="url(#path-2-outside-1_349_23)"/>
</g>
<defs>
<linearGradient id="paint0_linear_349_23" x1="1722" y1="-67.5" x2="1839.7" y2="691.359" gradientUnits="userSpaceOnUse">
<stop offset="0.26044" stop-opacity="0.9" style="stop-color:black;stop-opacity:0.9;"/>
<stop offset="0.733609" stop-opacity="0.1" style="stop-color:black;stop-opacity:0.1;"/>
</linearGradient>
</defs>
</svg>
