<svg viewBox="0 0 857 1200" version="1.1"
	xmlns="http://www.w3.org/2000/svg"
	xmlns:xlink="http://www.w3.org/1999/xlink">
	<g id="Social" stroke="none" stroke-width="1" fill="none" fill-rule="evenodd">
		<g id="social-email-vec" fill-rule="nonzero">
			<rect id="Rectangle" fill="#FFFFFF" x="0" y="0" width="857" height="1200"></rect>
			<path d="M205,753 L314,670.714286 C314,663.107143 307.932617,657 300.375,657 L109.625,657 C102.067383,657 96,663.107143 96,670.714286 L205,753 Z M300.375,822 C307.932617,822 314,815.903226 314,808.308998 L314,696 L205,778.14601 L96,696 L96,808.308998 C96,815.903226 102.067383,822 109.625,822 L300.375,822 Z" id="✉" fill="#000000"></path>
			<path d="M115.81,1077.04 C125.05,1077.04 131.77,1071.58 132.75,1062.76 L123.93,1062.76 C123.23,1067.52 119.8,1069.69 115.81,1069.69 C110.7,1069.69 106.99,1066.05 106.99,1058.14 C106.99,1050.23 110.56,1046.59 115.81,1046.59 C119.73,1046.59 122.95,1048.62 123.79,1053.1 L132.61,1053.1 C131.56,1044.63 125.26,1039.24 115.81,1039.24 C105.03,1039.24 97.96,1046.59 97.96,1058.14 C97.96,1069.69 105.1,1077.04 115.81,1077.04 Z M154.38,1077.04 C165.37,1077.04 172.72,1069.62 172.72,1058.14 C172.72,1046.66 165.37,1039.24 154.38,1039.24 C143.39,1039.24 135.97,1046.66 135.97,1058.14 C135.97,1069.62 143.39,1077.04 154.38,1077.04 Z M154.38,1069.76 C148.64,1069.76 145,1065.77 145,1058.14 C145,1050.51 148.64,1046.52 154.38,1046.52 C160.05,1046.52 163.76,1050.51 163.76,1058.14 C163.76,1065.77 160.05,1069.76 154.38,1069.76 Z M187.07,1076.2 L187.07,1055.97 C187.07,1049.53 191.27,1046.87 195.12,1046.87 C199.6,1046.87 201.91,1049.11 201.91,1053.73 L201.91,1076.2 L210.73,1076.2 L210.73,1052.26 C210.73,1043.65 205.62,1039.24 198.06,1039.24 C192.95,1039.24 189.1,1041.83 186.79,1045.26 L186.79,1040.08 L178.25,1040.08 L178.25,1076.2 L187.07,1076.2 Z M232.08,1076.48 C233.48,1076.48 235.09,1076.34 236.7,1076.2 L236.7,1069.48 L233.69,1069.48 C230.75,1069.48 229.56,1068.71 229.56,1066.33 L229.56,1046.8 L236.7,1046.8 L236.7,1040.08 L229.56,1040.08 L229.56,1029.58 L220.81,1029.58 L220.81,1040.08 L215.21,1040.08 L215.21,1046.8 L220.81,1046.8 L220.81,1067.24 C220.81,1073.89 224.45,1076.48 232.08,1076.48 Z M252.94,1077.04 C258.26,1077.04 262.18,1075.15 264.56,1071.79 C264.7,1073.54 264.98,1075.22 265.54,1076.2 L274.36,1076.2 C273.38,1074.8 272.89,1071.93 272.89,1069.34 L272.89,1050.09 C272.89,1043.58 268.62,1039.24 257.84,1039.24 C246.57,1039.24 242.09,1043.93 241.6,1051.56 L250.28,1051.56 C250.63,1047.15 252.73,1045.82 257.77,1045.82 C262.88,1045.82 264.35,1047.5 264.35,1050.3 C264.35,1052.96 262.6,1054.01 259.24,1054.43 L253.78,1054.92 C243.56,1055.9 239.92,1060.17 239.92,1066.19 C239.92,1073.19 245.24,1077.04 252.94,1077.04 Z M255.04,1070.74 C250.98,1070.74 248.95,1068.85 248.95,1065.84 C248.95,1062.97 250.56,1061.22 255.46,1060.66 L260.22,1060.1 C262.11,1059.89 263.44,1059.47 264.35,1058.63 L264.35,1061.92 C264.35,1068.22 259.73,1070.74 255.04,1070.74 Z M295.85,1077.04 C305.09,1077.04 311.81,1071.58 312.79,1062.76 L303.97,1062.76 C303.27,1067.52 299.84,1069.69 295.85,1069.69 C290.74,1069.69 287.03,1066.05 287.03,1058.14 C287.03,1050.23 290.6,1046.59 295.85,1046.59 C299.77,1046.59 302.99,1048.62 303.83,1053.1 L312.65,1053.1 C311.6,1044.63 305.3,1039.24 295.85,1039.24 C285.07,1039.24 278,1046.59 278,1058.14 C278,1069.69 285.14,1077.04 295.85,1077.04 Z M331.83,1076.48 C333.23,1076.48 334.84,1076.34 336.45,1076.2 L336.45,1069.48 L333.44,1069.48 C330.5,1069.48 329.31,1068.71 329.31,1066.33 L329.31,1046.8 L336.45,1046.8 L336.45,1040.08 L329.31,1040.08 L329.31,1029.58 L320.56,1029.58 L320.56,1040.08 L314.96,1040.08 L314.96,1046.8 L320.56,1046.8 L320.56,1067.24 C320.56,1073.89 324.2,1076.48 331.83,1076.48 Z M370.82,1084.67 C375.93,1084.67 380.69,1083.83 384.82,1082.22 L384.82,1076.13 C380.76,1077.81 376.07,1078.65 370.96,1078.65 C356.89,1078.65 346.95,1069.76 346.95,1054.99 C346.95,1041.13 356.19,1031.47 370.47,1031.47 C385.38,1031.47 393.85,1040.22 393.85,1052.12 C393.85,1058.91 391.89,1063.81 387.9,1063.81 C385.52,1063.81 384.26,1062.27 384.26,1058.84 L384.26,1040.08 L376.35,1040.08 L376.35,1043.65 C374.53,1040.71 371.8,1039.24 367.95,1039.24 C360.81,1039.24 355.35,1044.84 355.35,1054.78 C355.35,1065.14 360.67,1070.46 367.95,1070.46 C372.22,1070.46 375.79,1068.5 377.61,1064.51 C378.73,1068.36 382.23,1070.6 387.06,1070.6 C395.95,1070.6 400.71,1062.48 400.71,1051.84 C400.71,1036.3 388.25,1025.24 370.54,1025.24 C352.06,1025.24 340.02,1038.12 340.02,1054.99 C340.02,1072.56 352.27,1084.67 370.82,1084.67 Z M369.91,1064.02 C365.43,1064.02 363.33,1060.66 363.33,1054.78 C363.33,1049.18 365.36,1045.68 369.91,1045.68 C374.32,1045.68 376.49,1049.18 376.49,1054.78 C376.49,1060.66 374.32,1064.02 369.91,1064.02 Z M417.93,1076.2 L417.93,1046.8 L425.35,1046.8 L425.35,1040.08 L417.93,1040.08 L417.93,1037.49 C417.93,1034.69 419.33,1033.15 422.48,1033.15 L425.56,1033.15 L425.56,1026.36 C424.3,1026.22 422.41,1026.15 421.01,1026.15 C412.33,1026.15 409.18,1030.98 409.18,1037.35 L409.18,1040.08 L403.58,1040.08 L403.58,1046.8 L409.18,1046.8 L409.18,1076.2 L417.93,1076.2 Z M439.49,1076.2 L439.49,1057.86 C439.49,1051 443.41,1047.78 449.92,1047.78 L452.16,1047.78 L452.16,1039.66 C451.39,1039.52 450.76,1039.52 449.99,1039.52 C444.39,1039.52 440.96,1042.46 439.21,1046.52 L439.21,1040.08 L430.67,1040.08 L430.67,1076.2 L439.49,1076.2 Z M460.7,1089.99 C469.45,1089.99 473.37,1087.19 476.24,1079.14 L490.17,1040.08 L480.93,1040.08 L477.99,1049.18 C476.03,1055.55 474.07,1062.13 472.18,1069.27 C470.36,1062.2 468.4,1055.41 466.44,1049.11 L463.5,1040.08 L453.98,1040.08 L464.48,1069.76 C465.32,1072.14 466.16,1074.87 466.16,1077.04 C466.16,1080.05 464.55,1082.85 460.21,1082.85 L456.85,1082.85 L456.85,1089.78 C457.97,1089.92 459.02,1089.99 460.7,1089.99 Z M508.09,1076.48 C509.49,1076.48 511.1,1076.34 512.71,1076.2 L512.71,1069.48 L509.7,1069.48 C506.76,1069.48 505.57,1068.71 505.57,1066.33 L505.57,1046.8 L512.71,1046.8 L512.71,1040.08 L505.57,1040.08 L505.57,1029.58 L496.82,1029.58 L496.82,1040.08 L491.22,1040.08 L491.22,1046.8 L496.82,1046.8 L496.82,1067.24 C496.82,1073.89 500.46,1076.48 508.09,1076.48 Z M534.62,1090.76 C546.38,1090.76 552.47,1084.53 552.47,1075.01 L552.47,1040.08 L543.93,1040.08 L543.93,1045.05 C541.55,1041.41 537.77,1039.24 532.52,1039.24 C522.65,1039.24 516.28,1046.59 516.28,1057.65 C516.28,1068.64 522.79,1076.06 532.59,1076.06 C537.63,1076.06 541.27,1074.03 543.65,1070.67 L543.65,1075.22 C543.65,1080.89 540.57,1083.97 534.76,1083.97 C529.93,1083.97 527.13,1082.01 526.71,1078.16 L518.03,1078.16 C518.59,1085.65 524.19,1090.76 534.62,1090.76 Z M534.55,1068.78 C528.88,1068.78 525.31,1064.72 525.31,1057.72 C525.31,1050.72 528.88,1046.52 534.55,1046.52 C540.29,1046.52 543.86,1050.44 543.86,1057.65 C543.86,1064.79 540.29,1068.78 534.55,1068.78 Z M568.99,1076.2 L568.99,1066.19 L558.7,1066.19 L558.7,1076.2 L568.99,1076.2 Z M591.46,1077.04 C600.7,1077.04 607.42,1071.58 608.4,1062.76 L599.58,1062.76 C598.88,1067.52 595.45,1069.69 591.46,1069.69 C586.35,1069.69 582.64,1066.05 582.64,1058.14 C582.64,1050.23 586.21,1046.59 591.46,1046.59 C595.38,1046.59 598.6,1048.62 599.44,1053.1 L608.26,1053.1 C607.21,1044.63 600.91,1039.24 591.46,1039.24 C580.68,1039.24 573.61,1046.59 573.61,1058.14 C573.61,1069.69 580.75,1077.04 591.46,1077.04 Z M630.03,1077.04 C641.02,1077.04 648.37,1069.62 648.37,1058.14 C648.37,1046.66 641.02,1039.24 630.03,1039.24 C619.04,1039.24 611.62,1046.66 611.62,1058.14 C611.62,1069.62 619.04,1077.04 630.03,1077.04 Z M630.03,1069.76 C624.29,1069.76 620.65,1065.77 620.65,1058.14 C620.65,1050.51 624.29,1046.52 630.03,1046.52 C635.7,1046.52 639.41,1050.51 639.41,1058.14 C639.41,1065.77 635.7,1069.76 630.03,1069.76 Z M662.72,1076.2 L662.72,1056.32 C662.72,1049.53 666.43,1046.87 670.14,1046.87 C674.34,1046.87 676.44,1049.11 676.44,1053.73 L676.44,1076.2 L685.19,1076.2 L685.19,1056.32 C685.19,1049.53 688.83,1046.87 692.68,1046.87 C696.88,1046.87 698.91,1049.11 698.91,1053.73 L698.91,1076.2 L707.73,1076.2 L707.73,1052.33 C707.73,1044.35 703.18,1039.24 695.13,1039.24 C690.09,1039.24 686.31,1042.11 683.93,1045.96 C682.11,1041.83 678.26,1039.24 672.73,1039.24 C667.97,1039.24 664.61,1041.76 662.44,1045.26 L662.44,1040.08 L653.9,1040.08 L653.9,1076.2 L662.72,1076.2 Z" id="contact@frytg.com" fill="#000000"></path>
		</g>
	</g>
</svg>