<svg viewBox="0 0 857 1200" version="1.1"
	xmlns="http://www.w3.org/2000/svg"
	xmlns:xlink="http://www.w3.org/1999/xlink">
	<g id="Social" stroke="none" stroke-width="1" fill="none" fill-rule="evenodd">
		<g id="social-mast-vec" fill-rule="nonzero">
			<rect id="Rectangle" fill="#6364FF" x="0" y="0" width="857" height="1200"></rect>
			<g id="@FRYTG@det.social" transform="translate(97.960000, 1025.240000)" fill="#FFFFFF">
				<path d="M30.52,2.27373675e-13 C12.04,2.27373675e-13 0,12.88 0,29.75 C0,47.32 12.25,59.43 30.8,59.43 C35.91,59.43 40.67,58.59 44.8,56.98 L44.8,50.89 C40.74,52.57 36.05,53.41 30.94,53.41 C16.87,53.41 6.93,44.52 6.93,29.75 C6.93,15.89 16.17,6.23 30.45,6.23 C45.36,6.23 53.83,14.98 53.83,26.88 C53.83,33.67 51.87,38.57 47.88,38.57 C45.5,38.57 44.24,37.03 44.24,33.6 L44.24,14.84 L36.33,14.84 L36.33,18.41 C34.51,15.47 31.78,14 27.93,14 C20.79,14 15.33,19.6 15.33,29.54 C15.33,39.9 20.65,45.22 27.93,45.22 C32.2,45.22 35.77,43.26 37.59,39.27 C38.71,43.12 42.21,45.36 47.04,45.36 C55.93,45.36 60.69,37.24 60.69,26.6 C60.69,11.06 48.23,2.27373675e-13 30.52,2.27373675e-13 Z M29.89,38.78 C25.41,38.78 23.31,35.42 23.31,29.54 C23.31,23.94 25.34,20.44 29.89,20.44 C34.3,20.44 36.47,23.94 36.47,29.54 C36.47,35.42 34.3,38.78 29.89,38.78 Z" id="Shape"></path>
				<polygon id="Path" points="101.84 9.59 101.84 1.12 66.63 1.12 66.63 50.96 76.08 50.96 76.08 29.47 99.53 29.47 99.53 21.35 76.08 21.35 76.08 9.59"></polygon>
				<path d="M146.35,45.15 L145.93,37.73 C145.72,32.55 144.25,28.84 138.72,27.09 C144.11,25.2 147.05,20.93 147.05,15.19 C147.05,6.79 140.96,1.12 129.48,1.12 L106.87,1.12 L106.87,50.96 L116.32,50.96 L116.32,31.43 L128.64,31.43 C133.68,31.43 136.34,33.18 136.62,39.55 L136.83,45.01 C136.9,47.46 137.25,49.49 138.16,50.96 L147.89,50.96 C146.91,49.49 146.42,47.32 146.35,45.15 Z M116.32,24.01 L116.32,8.89 L128.57,8.89 C134.03,8.89 137.32,11.34 137.32,16.24 C137.32,21.35 134.03,24.01 128.92,24.01 L116.32,24.01 Z" id="Shape"></path>
				<path d="M182.32,1.12 L176.86,10.08 C174.41,14.21 171.89,18.48 169.51,22.75 C167.13,18.55 164.54,14.35 162.02,10.15 L156.49,1.12 L145.78,1.12 L164.61,31.29 L164.61,50.96 L174.06,50.96 L174.06,31.29 L192.75,1.12 L182.32,1.12 Z" id="Path"></path>
				<polygon id="Path" points="234.88 1.12 193.44 1.12 193.44 9.59 209.4 9.59 209.4 50.96 218.92 50.96 218.92 9.59 234.88 9.59"></polygon>
				<path d="M260.21,24.08 L260.21,31.71 L273.23,31.71 C272.74,38.99 266.65,43.82 259.3,43.82 C249.92,43.82 244.11,37.03 244.11,26.04 C244.11,15.05 249.78,8.26 258.95,8.26 C265.81,8.26 270.78,11.9 272.18,17.71 L281.91,17.71 C280.23,6.93 271.48,2.27373675e-13 258.88,2.27373675e-13 C243.69,2.27373675e-13 234.24,10.36 234.24,26.04 C234.24,41.72 243.69,52.08 258.04,52.08 C265.04,52.08 270.78,49.35 274.28,44.38 L275.61,50.96 L282.47,50.96 L282.47,24.08 L260.21,24.08 Z" id="Path"></path>
				<path d="M318.23,2.27373675e-13 C299.75,2.27373675e-13 287.71,12.88 287.71,29.75 C287.71,47.32 299.96,59.43 318.51,59.43 C323.62,59.43 328.38,58.59 332.51,56.98 L332.51,50.89 C328.45,52.57 323.76,53.41 318.65,53.41 C304.58,53.41 294.64,44.52 294.64,29.75 C294.64,15.89 303.88,6.23 318.16,6.23 C333.07,6.23 341.54,14.98 341.54,26.88 C341.54,33.67 339.58,38.57 335.59,38.57 C333.21,38.57 331.95,37.03 331.95,33.6 L331.95,14.84 L324.04,14.84 L324.04,18.41 C322.22,15.47 319.49,14 315.64,14 C308.5,14 303.04,19.6 303.04,29.54 C303.04,39.9 308.36,45.22 315.64,45.22 C319.91,45.22 323.48,43.26 325.3,39.27 C326.42,43.12 329.92,45.36 334.75,45.36 C343.64,45.36 348.4,37.24 348.4,26.6 C348.4,11.06 335.94,2.27373675e-13 318.23,2.27373675e-13 Z M317.6,38.78 C313.12,38.78 311.02,35.42 311.02,29.54 C311.02,23.94 313.05,20.44 317.6,20.44 C322.01,20.44 324.18,23.94 324.18,29.54 C324.18,35.42 322.01,38.78 317.6,38.78 Z" id="Shape"></path>
				<path d="M379.96,1.12 L379.96,19.53 C377.51,16.03 373.8,14 368.83,14 C358.82,14 352.59,21.42 352.59,32.9 C352.59,44.38 358.82,51.8 368.83,51.8 C374.01,51.8 377.79,49.56 380.24,45.92 L380.24,50.96 L388.78,50.96 L388.78,1.12 L379.96,1.12 Z M370.86,44.52 C365.19,44.52 361.62,40.81 361.62,33.18 C361.62,25.55 365.19,21.28 370.86,21.28 C376.6,21.28 380.17,25.27 380.17,32.9 C380.17,40.53 376.6,44.52 370.86,44.52 Z" id="Shape"></path>
				<path d="M429.93,33.53 C429.93,22.05 423.14,14 412.08,14 C401.37,14 394.23,21.56 394.23,32.9 C394.23,44.45 401.58,51.8 412.22,51.8 C420.9,51.8 427.2,47.11 429.02,39.76 L420.55,39.76 C419.22,42.98 416.49,44.94 412.29,44.94 C407.18,44.94 403.54,42.07 402.91,35.63 L429.93,35.63 L429.93,33.53 Z M412.01,20.86 C417.26,20.86 420.41,24.36 421.11,29.47 L402.98,29.47 C403.82,23.52 407.32,20.86 412.01,20.86 Z" id="Shape"></path>
				<path d="M452.53,21.56 L452.53,14.84 L445.39,14.84 L445.39,4.34 L436.64,4.34 L436.64,14.84 L431.04,14.84 L431.04,21.56 L436.64,21.56 L436.64,42 C436.64,48.65 440.28,51.24 447.91,51.24 C449.31,51.24 450.92,51.1 452.53,50.96 L452.53,44.24 L449.52,44.24 C446.58,44.24 445.39,43.47 445.39,41.09 L445.39,21.56 L452.53,21.56 Z" id="Path"></path>
				<polygon id="Path" points="456.72 50.96 467.01 50.96 467.01 40.95 456.72 40.95"></polygon>
				<path d="M487.37,51.94 C497.45,51.94 503.4,47.88 503.4,40.6 C503.4,34.37 499.55,31.15 490.87,29.61 L486.32,28.91 C482.4,28.21 480.3,27.16 480.3,24.5 C480.3,21.91 482.33,20.3 486.6,20.3 C491.15,20.3 494.02,21.63 494.23,26.25 L502.56,26.25 C502.28,18.83 497.73,14 486.6,14 C476.94,14 471.62,18.13 471.62,24.92 C471.62,31.08 475.68,34.51 483.45,35.84 L487.58,36.54 C493.04,37.45 494.65,38.71 494.65,41.3 C494.65,44.03 492.62,45.64 487.51,45.64 C482.26,45.64 479.95,44.03 479.46,39.48 L470.85,39.48 C471.41,48.23 477.08,51.94 487.37,51.94 Z" id="Path"></path>
				<path d="M524.81,51.8 C535.8,51.8 543.15,44.38 543.15,32.9 C543.15,21.42 535.8,14 524.81,14 C513.82,14 506.4,21.42 506.4,32.9 C506.4,44.38 513.82,51.8 524.81,51.8 Z M524.81,44.52 C519.07,44.52 515.43,40.53 515.43,32.9 C515.43,25.27 519.07,21.28 524.81,21.28 C530.48,21.28 534.19,25.27 534.19,32.9 C534.19,40.53 530.48,44.52 524.81,44.52 Z" id="Shape"></path>
				<path d="M564.84,51.8 C574.08,51.8 580.8,46.34 581.78,37.52 L572.96,37.52 C572.26,42.28 568.83,44.45 564.84,44.45 C559.73,44.45 556.02,40.81 556.02,32.9 C556.02,24.99 559.59,21.35 564.84,21.35 C568.76,21.35 571.98,23.38 572.82,27.86 L581.64,27.86 C580.59,19.39 574.29,14 564.84,14 C554.06,14 546.99,21.35 546.99,32.9 C546.99,44.45 554.13,51.8 564.84,51.8 Z" id="Path"></path>
				<path d="M586.6,10.15 L595.28,10.15 L595.28,1.89 L586.6,1.89 L586.6,10.15 Z M586.53,50.96 L595.35,50.96 L595.35,14.84 L586.53,14.84 L586.53,50.96 Z" id="Shape"></path>
				<path d="M634.89,50.96 C633.91,49.56 633.42,46.69 633.42,44.1 L633.42,24.85 C633.42,18.34 629.15,14 618.37,14 C607.1,14 602.62,18.69 602.13,26.32 L610.81,26.32 C611.16,21.91 613.26,20.58 618.3,20.58 C623.41,20.58 624.88,22.26 624.88,25.06 C624.88,27.72 623.13,28.77 619.77,29.19 L614.31,29.68 C604.09,30.66 600.45,34.93 600.45,40.95 C600.45,47.95 605.77,51.8 613.47,51.8 C618.79,51.8 622.71,49.91 625.09,46.55 C625.23,48.3 625.51,49.98 626.07,50.96 L634.89,50.96 Z M615.57,45.5 C611.51,45.5 609.48,43.61 609.48,40.6 C609.48,37.73 611.09,35.98 615.99,35.42 L620.75,34.86 C622.64,34.65 623.97,34.23 624.88,33.39 L624.88,36.68 C624.88,42.98 620.26,45.5 615.57,45.5 Z" id="Shape"></path>
				<polygon id="Path" points="639.85 50.96 648.67 50.96 648.67 1.12 639.85 1.12"></polygon>
			</g>
			<g id="logo-white" transform="translate(96.000000, 637.000000)" fill="#FFFFFF">
				<path d="M221.104162,51.5841042 C217.684763,26.549177 195.532167,6.81997813 169.271971,2.99697638 C164.841572,2.35099296 148.055075,0 109.170282,0 L108.879882,0 C69.9842884,0 61.6394898,2.35099296 57.2090905,2.99697638 C31.6799949,6.71406051 8.36630893,24.4417525 2.7099179,49.7731771 C-0.0107353405,62.2482196 -0.301082581,76.0787555 0.204336333,88.7654532 C0.924825209,106.959087 1.06462218,125.120897 2.7421799,143.240676 C3.9019197,155.276497 5.92505935,167.216547 8.79644886,178.971362 C14.1732279,200.680872 35.9384942,218.747513 57.2627905,226.117914 C80.0936866,233.804447 104.646282,235.080683 128.171978,229.803415 C130.759778,229.21018 133.319377,228.522076 135.849877,227.738202 C141.560076,225.94859 148.259675,223.947023 153.184774,220.431146 C153.252274,220.38191 153.307774,220.318264 153.346774,220.24471 C153.385774,220.171456 153.407674,220.090397 153.410374,220.007536 L153.410374,202.449468 C153.409174,202.372012 153.390574,202.295756 153.355474,202.226405 C153.320674,202.157054 153.270574,202.09641 153.208474,202.048675 C153.146674,202.00094 153.074674,201.967615 152.998174,201.950803 C152.921374,201.933991 152.841874,201.934291 152.765374,201.951704 C137.692777,205.497302 122.247279,207.274605 106.750782,207.246684 C80.0819866,207.246684 72.9092878,194.782149 70.8551882,189.593146 C69.2042885,185.10846 68.1557887,180.430131 67.7366887,175.677648 C67.7324887,175.59809 67.7474887,175.518231 67.7801887,175.445278 C67.8128887,175.372024 67.8629887,175.307777 67.9256887,175.25704 C67.9886887,175.206603 68.0627887,175.171477 68.1419887,175.154365 C68.2211887,175.137252 68.3033886,175.138753 68.3819886,175.158868 C83.2034861,178.680449 98.3969835,180.457751 113.643881,180.453848 C117.31078,180.453848 120.96688,180.453848 124.634079,180.358679 C139.968576,179.935068 156.131074,179.162002 171.218371,176.260075 C171.594871,176.186221 171.971071,176.122574 172.293871,176.027104 C196.091367,171.526506 218.738363,157.399353 221.039662,121.626336 C221.125762,120.218004 221.340862,106.874425 221.340862,105.412954 C221.351662,100.446414 222.964762,70.1800326 221.104162,51.5841042 Z M184.477469,140.847322 L159.454173,140.847322 L159.454173,80.4841841 C159.454173,67.7761708 154.077274,61.295021 143.140776,61.295021 C131.118278,61.295021 125.096379,68.9620399 125.096379,84.1060385 L125.096379,117.146753 L100.223383,117.146753 L100.223383,84.1060385 C100.223383,68.9620399 94.1906842,61.295021 82.1681863,61.295021 C71.2961881,61.295021 65.8655891,67.7761708 65.8547891,80.4841841 L65.8547891,140.847322 L40.8527934,140.847322 L40.8527934,78.6519413 C40.8527934,65.9439281 44.1470928,55.8481292 50.7353917,48.3645447 C57.5315905,40.8986732 66.446389,37.0651638 77.5118871,37.0651638 C90.3191849,37.0651638 99.9974832,41.9152182 106.449582,51.6051196 L112.676081,61.8987635 L118.91308,51.6051196 C125.365179,41.9152182 135.043477,37.0651638 147.829475,37.0651638 C158.884173,37.0651638 167.798672,40.8986732 174.61647,48.3645447 C181.205069,55.8412241 184.499069,65.937023 184.499069,78.6519413 L184.477469,140.847322 Z" id="Shape"></path>
			</g>
		</g>
	</g>
</svg>