<svg viewBox="0 0 857 1200" version="1.1"
	xmlns="http://www.w3.org/2000/svg"
	xmlns:xlink="http://www.w3.org/1999/xlink">
	<defs>
		<linearGradient x1="65.97%" y1="43.6926459%" x2="85.12%" y2="80.2273198%" id="linearGradient-1">
			<stop stop-color="#EFF7FC" offset="0%"></stop>
			<stop stop-color="#FFFFFF" offset="100%"></stop>
		</linearGradient>
	</defs>
	<g id="Social" stroke="none" stroke-width="1" fill="none" fill-rule="evenodd">
		<g id="social-telegram-vec" fill-rule="nonzero">
			<rect id="Rectangle" fill="#1E96C8" x="0" y="0" width="857" height="1200"></rect>
			<g id="Group" transform="translate(95.918767, 655.041556)">
				<path d="M84.5357787,176.958444 C77.8650105,176.958444 78.9985401,174.439837 76.6978492,168.088671 L57.0812333,103.532778 L208.081233,13.9584444" id="Path" fill="#C8DAEA"></path>
				<path d="M85.0812333,176.958444 C90.1266878,176.958444 92.3559378,174.626408 95.1721424,171.859239 L122.081233,145.414758 L88.515506,124.958444" id="Path" fill="#A9C9DD"></path>
				<path d="M87.4426869,124.366511 L170.085449,185.411261 C179.516054,190.613622 186.322461,187.920094 188.671525,176.657509 L222.311368,18.1673721 C225.7555,4.36195391 217.047762,-1.89953672 208.025927,2.19551369 L10.4933211,78.3472543 C-2.99012917,83.7542995 -2.91151943,91.2751617 8.03557047,94.6263098 L58.7268906,110.44457 L176.082688,36.4216812 C181.622795,33.0628446 186.707478,34.8686272 182.534155,38.5717194" id="Path" fill="url(#linearGradient-1)"></path>
			</g>
			<path d="M133.44,1085.88 C139.28,1085.88 144.72,1084.92 149.44,1083.08 L149.44,1076.12 C144.8,1078.04 139.44,1079 133.6,1079 C117.52,1079 106.16,1068.84 106.16,1051.96 C106.16,1036.12 116.72,1025.08 133.04,1025.08 C150.08,1025.08 159.76,1035.08 159.76,1048.68 C159.76,1056.44 157.52,1062.04 152.96,1062.04 C150.24,1062.04 148.8,1060.28 148.8,1056.36 L148.8,1034.92 L139.76,1034.92 L139.76,1039 C137.68,1035.64 134.56,1033.96 130.16,1033.96 C122,1033.96 115.76,1040.36 115.76,1051.72 C115.76,1063.56 121.84,1069.64 130.16,1069.64 C135.04,1069.64 139.12,1067.4 141.2,1062.84 C142.48,1067.24 146.48,1069.8 152,1069.8 C162.16,1069.8 167.6,1060.52 167.6,1048.36 C167.6,1030.6 153.36,1017.96 133.12,1017.96 C112,1017.96 98.24,1032.68 98.24,1051.96 C98.24,1072.04 112.24,1085.88 133.44,1085.88 Z M132.4,1062.28 C127.28,1062.28 124.88,1058.44 124.88,1051.72 C124.88,1045.32 127.2,1041.32 132.4,1041.32 C137.44,1041.32 139.92,1045.32 139.92,1051.72 C139.92,1058.44 137.44,1062.28 132.4,1062.28 Z M185.28,1076.2 L185.28,1051.64 L212.08,1051.64 L212.08,1042.36 L185.28,1042.36 L185.28,1028.92 L214.72,1028.92 L214.72,1019.24 L174.48,1019.24 L174.48,1076.2 L185.28,1076.2 Z M231.36,1076.2 L231.36,1053.88 L245.44,1053.88 C251.2,1053.88 254.24,1055.88 254.56,1063.16 L254.8,1069.4 C254.88,1072.2 255.28,1074.52 256.32,1076.2 L267.44,1076.2 C266.32,1074.52 265.76,1072.04 265.68,1069.56 L265.2,1061.08 C264.96,1055.16 263.28,1050.92 256.96,1048.92 C263.12,1046.76 266.48,1041.88 266.48,1035.32 C266.48,1025.72 259.52,1019.24 246.4,1019.24 L220.56,1019.24 L220.56,1076.2 L231.36,1076.2 Z M245.76,1045.4 L231.36,1045.4 L231.36,1028.12 L245.36,1028.12 C251.6,1028.12 255.36,1030.92 255.36,1036.52 C255.36,1042.36 251.6,1045.4 245.76,1045.4 Z M301.92,1076.2 L301.92,1053.72 L323.28,1019.24 L311.36,1019.24 L305.12,1029.48 C302.32,1034.2 299.44,1039.08 296.72,1043.96 C294,1039.16 291.04,1034.36 288.16,1029.56 L281.84,1019.24 L269.6,1019.24 L291.12,1053.72 L291.12,1076.2 L301.92,1076.2 Z M354.16,1076.2 L354.16,1028.92 L372.4,1028.92 L372.4,1019.24 L325.04,1019.24 L325.04,1028.92 L343.28,1028.92 L343.28,1076.2 L354.16,1076.2 Z M403.12,1077.48 C411.12,1077.48 417.68,1074.36 421.68,1068.68 L423.2,1076.2 L431.04,1076.2 L431.04,1045.48 L405.6,1045.48 L405.6,1054.2 L420.48,1054.2 C419.92,1062.52 412.96,1068.04 404.56,1068.04 C393.84,1068.04 387.2,1060.28 387.2,1047.72 C387.2,1035.16 393.68,1027.4 404.16,1027.4 C412,1027.4 417.68,1031.56 419.28,1038.2 L430.4,1038.2 C428.48,1025.88 418.48,1017.96 404.08,1017.96 C386.72,1017.96 375.92,1029.8 375.92,1047.72 C375.92,1065.64 386.72,1077.48 403.12,1077.48 Z" id="@FRYTG" fill="#FFFFFF"></path>
		</g>
	</g>
</svg>