<svg viewBox="0 0 428 187" version="1.1" xmlns="http://www.w3.org/2000/svg" xmlns:xlink="http://www.w3.org/1999/xlink">
    <g id="Partner" stroke="none" stroke-width="1" fill="none" fill-rule="evenodd">
        <g id="knappe1a">
            <g id="Group" transform="translate(31.000000, 10.000000)" fill-rule="nonzero">
                <polygon id="Path" fill="#FFFFFF" points="7.06926346 22.2432998 4.66730156 22.2432998 4.66730156 38.7818282 0.425539065 38.7818282 0.425539065 3.05043968 4.66730156 3.05043968 4.66730156 19.6910578 6.96705231 18.97643 18.9768618 3.05043968 23.8829967 3.05043968 11.9242928 18.4149367 9.77785879 20.0994165 12.384243 22.1412101 25.4672695 38.7818282 20.1011844 38.7818282"></polygon>
                <path d="M46.1650262,38.7818282 L46.1650262,24.2340486 C46.1650262,21.5797169 45.7817344,19.5804606 45.0151509,18.2362798 C44.2485673,16.892099 42.843164,16.2200086 40.7989411,16.2200086 C38.9932109,16.2200086 37.5026317,16.7049346 36.3272036,17.6747866 C35.1517754,18.6446385 34.3255687,19.8612072 33.8485833,21.3244927 L33.8485833,38.7818282 L29.7601375,38.7818282 L29.7601375,13.2594078 L32.6220496,13.2594078 L33.3886332,16.3731431 L33.5930555,16.3731431 C34.4107446,15.2841865 35.5095144,14.3909018 36.8893649,13.693289 C38.2692153,12.9956762 39.9131112,12.6468697 41.8210526,12.6468697 C43.2179382,12.6468697 44.444472,12.8085117 45.5006538,13.1317957 C46.5568356,13.4550797 47.4341479,14.0250804 48.1325908,14.8417979 C48.8310336,15.6585153 49.3591245,16.7559794 49.7168635,18.1341901 C50.0746025,19.5124008 50.253472,21.2564329 50.253472,23.3662863 L50.253472,38.7818282 L46.1650262,38.7818282 Z" id="Path" fill="#FFFFFF"></path>
                <path d="M57.306041,15.1480669 C58.6007155,14.3653794 60.1083299,13.7868712 61.8288841,13.4125424 C63.5494384,13.0382135 65.346651,12.8510491 67.220522,12.8510491 C68.9921818,12.8510491 70.4146203,13.0892584 71.4878373,13.5656769 C72.5610543,14.0420954 73.3787435,14.663141 73.9409048,15.4288136 C74.5030661,16.1944862 74.8778402,17.036726 75.0652273,17.9555332 C75.2526144,18.8743403 75.346308,19.7931474 75.346308,20.7119546 C75.346308,22.7537482 75.2952024,24.744497 75.1929913,26.6842009 C75.0907801,28.6239049 75.0396746,30.4615192 75.0396746,32.1970437 C75.0396746,33.4561498 75.0907801,34.6471961 75.1929913,35.7701826 C75.2952024,36.8931691 75.4825895,37.9310809 75.7551526,38.8839179 L72.7399238,38.8839179 L71.6667068,35.310779 L71.4111789,35.310779 C71.1045455,35.7871975 70.7212537,36.2551086 70.2613036,36.7145122 C69.8013534,37.1739157 69.2477097,37.5822744 68.6003725,37.9395883 C67.9530352,38.2969022 67.2034868,38.5946638 66.3517273,38.832873 C65.4999677,39.0710823 64.5289619,39.1901869 63.4387097,39.1901869 C62.3484575,39.1901869 61.3348636,39.0200375 60.3979281,38.6797385 C59.4609926,38.3394396 58.6518211,37.8545136 57.9704134,37.2249606 C57.2890058,36.5954075 56.7523973,35.8382424 56.3605879,34.9534651 C55.9687785,34.0686879 55.7728738,33.064806 55.7728738,31.9418195 C55.7728738,30.4445042 56.0795073,29.1939056 56.6927741,28.1900237 C57.306041,27.1861419 58.1663181,26.3864394 59.2736055,25.7909162 C60.3808929,25.1953931 61.7096378,24.7700194 63.2598402,24.5147952 C64.8100425,24.259571 66.5220792,24.1319589 68.3959502,24.1319589 C68.8729355,24.1319589 69.3414033,24.1319589 69.8013534,24.1319589 C70.2613036,24.1319589 70.7297713,24.1659888 71.2067566,24.2340486 C71.3089678,23.2131518 71.3600734,22.2943446 71.3600734,21.4776272 C71.3600734,19.605983 70.9852992,18.2958321 70.2357508,17.5471745 C69.4862024,16.7985168 68.1233871,16.424188 66.147305,16.424188 C65.5681085,16.424188 64.946324,16.4667253 64.2819516,16.5518001 C63.6175792,16.6368748 62.9361715,16.7559794 62.2377287,16.9091139 C61.5392859,17.0622485 60.8749135,17.2494129 60.2446114,17.4706072 C59.6143093,17.6918015 59.0606656,17.9385182 58.5836803,18.2107574 L57.306041,15.1480669 Z M64.5630322,35.6170481 C65.5170029,35.6170481 66.3687625,35.489436 67.1183109,35.2342118 C67.8678593,34.9789876 68.5151965,34.6557036 69.0603226,34.2643598 C69.6054487,33.873016 70.0568813,33.4391349 70.4146203,32.9627164 C70.7723593,32.4862978 71.0364047,32.0268943 71.2067566,31.5845057 L71.2067566,27.3477839 C70.7297713,27.313754 70.2442684,27.2882316 69.7502478,27.2712166 C69.2562273,27.2542017 68.7707244,27.2456942 68.293739,27.2456942 C67.2375572,27.2456942 66.2069282,27.3052465 65.2018519,27.4243511 C64.1967756,27.5434558 63.3109457,27.7646501 62.5443621,28.0879341 C61.7777786,28.4112181 61.1645117,28.8536067 60.7045615,29.4150999 C60.2446114,29.9765932 60.0146363,30.6827135 60.0146363,31.5334608 C60.0146363,32.7245071 60.4405161,33.7028665 61.2922756,34.4685392 C62.1440352,35.2342118 63.2342874,35.6170481 64.5630322,35.6170481 Z" id="Shape" fill="#FFFFFF"></path>
                <path d="M83.0632494,13.2594078 L85.8740559,13.2594078 L86.6406395,16.3220983 L86.8450618,16.3220983 C87.6286805,15.131052 88.6422744,14.2207523 89.8858433,13.5911993 C91.1294122,12.9616463 92.5518507,12.6468697 94.1531586,12.6468697 C97.5601967,12.6468697 100.09844,13.6507516 101.767889,15.6585153 C103.437338,17.6662791 104.272062,20.9501638 104.272062,25.5101696 C104.272062,27.6540529 103.990981,29.5852494 103.42882,31.303759 C102.866659,33.0222687 102.074522,34.4770466 101.052411,35.6680929 C100.030299,36.8591392 98.7952481,37.7779463 97.3472569,38.4245143 C95.8992656,39.0710823 94.2894401,39.3943663 92.5177803,39.3943663 C91.2571762,39.3943663 90.2606175,39.317799 89.5281043,39.1646645 C88.7955911,39.01153 88.0034547,38.7477983 87.1516952,38.3734695 L87.1516952,48.9907963 L83.0632494,48.9907963 L83.0632494,13.2594078 Z M93.386575,16.2200086 C91.6489855,16.2200086 90.2776527,16.6709047 89.2725764,17.5726969 C88.2675002,18.4744891 87.5605398,19.8441923 87.1516952,21.6818066 L87.1516952,34.3409271 C87.7649621,34.8173456 88.4634049,35.1831669 89.2470236,35.4383911 C90.0306424,35.6936153 91.0697891,35.8212274 92.3644636,35.8212274 C94.7153199,35.8212274 96.5806733,34.9449577 97.9605237,33.1924181 C99.3403742,31.4398786 100.030299,28.8621142 100.030299,25.4591248 C100.030299,24.0638991 99.9110531,22.7962856 99.6725604,21.6562841 C99.4340677,20.5162827 99.0507759,19.5464307 98.522685,18.7467282 C97.9945941,17.9470257 97.3131865,17.3259801 96.4784621,16.8835915 C95.6437378,16.4412029 94.6131087,16.2200086 93.386575,16.2200086 Z" id="Shape" fill="#FFFFFF"></path>
                <path d="M110.711364,13.2594078 L113.52217,13.2594078 L114.288754,16.3220983 L114.493176,16.3220983 C115.276795,15.131052 116.290389,14.2207523 117.533958,13.5911993 C118.777527,12.9616463 120.199965,12.6468697 121.801273,12.6468697 C125.208311,12.6468697 127.746555,13.6507516 129.416003,15.6585153 C131.085452,17.6662791 131.920176,20.9501638 131.920176,25.5101696 C131.920176,27.6540529 131.639096,29.5852494 131.076935,31.303759 C130.514773,33.0222687 129.722637,34.4770466 128.700525,35.6680929 C127.678414,36.8591392 126.443363,37.7779463 124.995371,38.4245143 C123.54738,39.0710823 121.937555,39.3943663 120.165895,39.3943663 C118.905291,39.3943663 117.908732,39.317799 117.176219,39.1646645 C116.443706,39.01153 115.651569,38.7477983 114.79981,38.3734695 L114.79981,48.9907963 L110.711364,48.9907963 L110.711364,13.2594078 Z M121.03469,16.2200086 C119.2971,16.2200086 117.925767,16.6709047 116.920691,17.5726969 C115.915615,18.4744891 115.208654,19.8441923 114.79981,21.6818066 L114.79981,34.3409271 C115.413077,34.8173456 116.111519,35.1831669 116.895138,35.4383911 C117.678757,35.6936153 118.717904,35.8212274 120.012578,35.8212274 C122.363434,35.8212274 124.228788,34.9449577 125.608638,33.1924181 C126.988489,31.4398786 127.678414,28.8621142 127.678414,25.4591248 C127.678414,24.0638991 127.559168,22.7962856 127.320675,21.6562841 C127.082182,20.5162827 126.698891,19.5464307 126.1708,18.7467282 C125.642709,17.9470257 124.961301,17.3259801 124.126577,16.8835915 C123.291852,16.4412029 122.261223,16.2200086 121.03469,16.2200086 Z" id="Shape" fill="#FFFFFF"></path>
                <path d="M157.013012,36.7400346 C155.990901,37.556752 154.704744,38.20332 153.154542,38.6797385 C151.604339,39.156157 149.960443,39.3943663 148.222854,39.3943663 C146.280842,39.3943663 144.594358,39.0795898 143.163402,38.4500367 C141.732446,37.8204837 140.557018,36.9186915 139.637118,35.7446602 C138.717218,34.5706288 138.03581,33.1668957 137.592895,31.5334608 C137.14998,29.9000259 136.928523,28.0624116 136.928523,26.020618 C136.928523,21.6647916 137.899528,18.346877 139.84154,16.0668741 C141.783552,13.7868712 144.560288,12.6468697 148.171748,12.6468697 C149.330141,12.6468697 150.488534,12.7744818 151.646927,13.029706 C152.80532,13.2849303 153.844467,13.7698562 154.764367,14.484484 C155.684268,15.1991118 156.433816,16.2115011 157.013012,17.521652 C157.592209,18.8318029 157.881807,20.5588201 157.881807,22.7027034 C157.881807,23.8256899 157.779596,25.067781 157.575174,26.4289767 L141.170285,26.4289767 C141.170285,27.9262921 141.323602,29.2534579 141.630235,30.4104743 C141.936869,31.5674907 142.413854,32.5458502 143.061191,33.3455527 C143.708528,34.1452552 144.55177,34.7577933 145.590917,35.1831669 C146.630064,35.6085406 147.899185,35.8212274 149.398282,35.8212274 C150.556675,35.8212274 151.715068,35.6170481 152.873461,35.2086893 C154.031854,34.8003306 154.900649,34.3239121 155.479845,33.7794338 L157.013012,36.7400346 Z M148.222854,16.2200086 C146.212702,16.2200086 144.602876,16.7474719 143.393377,17.8023987 C142.183879,18.8573254 141.459883,20.6609097 141.221391,23.2131518 L153.895573,23.2131518 C153.895573,20.6268798 153.401552,18.814788 152.413511,17.7768762 C151.42547,16.7389645 150.028584,16.2200086 148.222854,16.2200086 Z" id="Shape" fill="#FFFFFF"></path>
                <polygon id="Path" fill="#FFFFFF" points="163.820275 17.7717718 168.876319 17.7717718 168.876319 5.67074151 169.210209 3.95563486 167.922349 5.2896067 164.201863 7.52877371 162.914003 5.19432299 170.259577 0.334854155 172.215217 0.334854155 172.215217 17.7717718 176.746577 17.7717718 176.746577 20.6779247 163.820275 20.6779247"></polygon>
                <path d="M182.422703,6.52829483 C183.217565,6.11551222 184.266933,5.76602521 185.570806,5.4801741 C186.87468,5.19432299 188.321308,5.05139744 189.911373,5.05139744 C191.883026,5.05139744 193.234257,5.46452035 193.965748,6.29008557 C194.697239,7.1159911 195.062815,8.30703738 195.062815,9.86322443 C195.062815,11.0702648 195.038965,12.2296632 194.991267,13.3410796 C194.943568,14.4528362 194.919719,15.516951 194.919719,16.5330836 C194.919719,17.2953532 194.943568,18.0259751 194.991267,18.7246088 C195.038965,19.4235828 195.142199,20.0745747 195.301307,20.6779247 L192.677888,20.6779247 L192.057807,18.4863995 L191.867013,18.4863995 C191.453739,19.0264539 190.865344,19.5583412 190.102167,20.0824015 C189.33899,20.6064619 188.27361,20.8684921 186.906365,20.8684921 C185.25293,20.8684921 183.933043,20.4635364 182.947387,19.6536249 C181.961731,18.8437134 181.468732,17.740124 181.468732,16.3425162 C181.468732,15.3580314 181.707225,14.5321259 182.18421,13.8651399 C182.661196,13.198154 183.305126,12.6584399 184.116001,12.245317 C184.926876,11.8325344 185.880847,11.5306892 186.977913,11.3401218 C188.074979,11.1495544 189.259606,11.0542707 190.531454,11.0542707 C190.753933,11.0542707 190.968577,11.0624379 191.175384,11.0780916 C191.382191,11.0940857 191.596835,11.1019126 191.819314,11.1019126 C191.851,10.9113452 191.867013,10.7289449 191.867013,10.5540313 C191.867013,10.3794579 191.867013,10.2127114 191.867013,10.0537918 C191.867013,9.19623851 191.676219,8.59288849 191.29463,8.24340148 C190.913042,7.89425477 190.181551,7.71934112 189.100498,7.71934112 C187.82865,7.71934112 186.667873,7.83844574 185.618505,8.076655 C184.569137,8.31486426 183.742249,8.59288849 183.138181,8.9103874 L182.422703,6.52829483 Z M187.431049,18.2005484 C188.098829,18.2005484 188.679047,18.1212588 189.172046,17.9623392 C189.665044,17.8037599 190.086154,17.5893715 190.436057,17.3191742 C190.78596,17.0493171 191.072151,16.763466 191.29463,16.4616208 C191.51711,16.160116 191.692232,15.8660977 191.819314,15.5802466 L191.819314,13.5792888 C191.469411,13.547641 191.135522,13.531647 190.817645,13.531647 C190.499768,13.531647 190.165879,13.531647 189.815976,13.531647 C189.148196,13.531647 188.512102,13.5636351 187.908034,13.6269307 C187.303967,13.6905666 186.771106,13.8174981 186.310134,14.0080655 C185.849161,14.1986329 185.483245,14.4606631 185.213067,14.794156 C184.942889,15.127649 184.80763,15.5645928 184.80763,16.104307 C184.80763,16.7396451 185.038286,17.2477114 185.499258,17.6288462 C185.960231,18.009981 186.604161,18.2005484 187.431049,18.2005484 Z" id="Shape" fill="#FFFFFF"></path>
                <polygon id="Path" fill="#8FA4A7" points="0.247010266 139.516439 11.9297441 139.516439 11.9297441 141.78283 2.79206776 141.78283 2.79206776 148.796391 11.1631605 148.796391 11.1631605 151.062782 2.79206776 151.062782 2.79206776 158.688881 12.0830608 158.688881 12.0830608 160.955272 0.247010266 160.955272"></polygon>
                <polygon id="Path" fill="#8FA4A7" points="20.852777 154.615503 21.7113506 157.525059 21.742014 157.525059 22.5085975 154.554249 25.942892 145.64182 28.5799395 145.64182 22.0486474 161.292168 21.0060937 161.292168 14.3521482 145.64182 17.1731758 145.64182"></polygon>
                <path d="M42.0718106,159.730196 C41.4585437,160.220227 40.6868496,160.608168 39.7567282,160.894019 C38.8266068,161.17987 37.8402692,161.322795 36.7977155,161.322795 C35.6325085,161.322795 34.6206182,161.133929 33.7620446,160.756198 C32.9034709,160.378466 32.198214,159.83739 31.6462739,159.132972 C31.0943337,158.428553 30.6854891,157.586313 30.4197401,156.606252 C30.1539912,155.626191 30.0211167,154.523622 30.0211167,153.298546 C30.0211167,150.68505 30.6037202,148.694302 31.7689272,147.3263 C32.9341343,145.958298 34.6001759,145.274297 36.7670522,145.274297 C37.462088,145.274297 38.1571238,145.350865 38.8521595,145.503999 C39.5471953,145.657134 40.1706833,145.948089 40.7226235,146.376866 C41.2745637,146.805643 41.7242927,147.413076 42.0718106,148.199167 C42.4193285,148.985257 42.5930874,150.021468 42.5930874,151.307798 C42.5930874,151.981589 42.5317608,152.726844 42.4091074,153.543562 L32.5661742,153.543562 C32.5661742,154.441951 32.6581642,155.23825 32.8421443,155.93246 C33.0261243,156.62667 33.3123155,157.213686 33.7007179,157.693507 C34.0891202,158.173329 34.5950654,158.540851 35.2185534,158.796076 C35.8420413,159.0513 36.6035144,159.178912 37.5029724,159.178912 C38.1980082,159.178912 38.893044,159.056404 39.5880798,158.811389 C40.2831156,158.566374 40.8043924,158.280523 41.1519103,157.953836 L42.0718106,159.730196 Z M36.7977155,147.418181 C35.591624,147.418181 34.6257287,147.734659 33.9000296,148.367615 C33.1743305,149.000571 32.7399331,150.082721 32.5968375,151.614067 L40.2013467,151.614067 C40.2013467,150.062303 39.9049343,148.975048 39.3121097,148.352301 C38.7192851,147.729554 37.8811537,147.418181 36.7977155,147.418181 Z" id="Shape" fill="#8FA4A7"></path>
                <path d="M56.2996019,160.955272 L56.2996019,152.226605 C56.2996019,150.634006 56.0696268,149.434452 55.6096767,148.627943 C55.1497265,147.821435 54.3064846,147.418181 53.0799509,147.418181 C51.9965127,147.418181 51.1021652,147.709136 50.3969083,148.291047 C49.6916514,148.872959 49.1959274,149.6029 48.9097362,150.480871 L48.9097362,160.955272 L46.4566687,160.955272 L46.4566687,145.64182 L48.1738159,145.64182 L48.6337661,147.510061 L48.7564195,147.510061 C49.2470329,146.856687 49.9062948,146.320717 50.7342051,145.902149 C51.5621154,145.483581 52.5484529,145.274297 53.6932177,145.274297 C54.5313491,145.274297 55.2672694,145.371283 55.9009785,145.565253 C56.5346876,145.759223 57.0610749,146.101224 57.4801406,146.591254 C57.8992063,147.081285 58.2160609,147.739763 58.4307043,148.56669 C58.6453477,149.393616 58.7526694,150.440035 58.7526694,151.705947 L58.7526694,160.955272 L56.2996019,160.955272 Z" id="Path" fill="#8FA4A7"></path>
                <path d="M61.2057369,145.64182 L63.5974776,145.64182 L63.5974776,142.609757 L66.0505451,141.905338 L66.0505451,145.64182 L70.2207598,145.64182 L70.2207598,147.785704 L66.0505451,147.785704 L66.0505451,156.269356 C66.0505451,157.331089 66.1834196,158.081448 66.4491686,158.520434 C66.7149175,158.959419 67.1646466,159.178912 67.7983557,159.178912 C68.3298536,159.178912 68.7795827,159.122763 69.1475428,159.010464 C69.5155029,158.898165 69.9243475,158.750135 70.3740765,158.566374 L70.9260167,160.434615 C70.3740765,160.700048 69.7710308,160.914437 69.1168794,161.07778 C68.4627281,161.241124 67.7574712,161.322795 67.0011087,161.322795 C65.7541328,161.322795 64.8751169,160.970586 64.3640612,160.266167 C63.8530055,159.561748 63.5974776,158.382612 63.5974776,156.72876 L63.5974776,147.785704 L61.2057369,147.785704 L61.2057369,145.64182 Z" id="Path" fill="#8FA4A7"></path>
            </g>
            <g id="Group" transform="translate(31.000000, 121.000000)" fill="#8FA4A7" fill-rule="nonzero">
                <polygon id="Path" points="4.21933037 11.8564267 2.78404549 11.8564267 2.78404549 21.7311383 0.249393472 21.7311383 0.249393472 0.396884842 2.78404549 0.396884842 2.78404549 10.3325514 4.15825442 9.90586637 11.3346788 0.396884842 14.2663245 0.396884842 7.12043811 9.57061382 5.83784311 10.5763715 7.39527989 11.7954717 15.2130018 21.7311383 12.0065143 21.7311383"></polygon>
                <path d="M16.3123689,14.1117621 C16.3123689,11.5313333 16.8875008,9.55537507 18.0377646,8.18388735 C19.1880283,6.81239963 20.8421687,6.12665576 23.0001857,6.12665576 C24.1402701,6.12665576 25.1327544,6.31460038 25.9776384,6.69048961 C26.8225224,7.06637883 27.5198062,7.60481475 28.0694897,8.30579737 C28.6191733,9.00677998 29.0263463,9.84999095 29.2910088,10.8354303 C29.5556713,11.8208696 29.6880025,12.9129802 29.6880025,14.1117621 C29.6880025,16.6921908 29.1128706,18.668149 27.9626068,20.0396368 C26.8123431,21.4111245 25.1582027,22.0968683 23.0001857,22.0968683 C21.8601013,22.0968683 20.867617,21.9089237 20.022733,21.5330345 C19.177849,21.1571453 18.4805652,20.6187093 17.9308817,19.9177267 C17.3811981,19.2167441 16.9740251,18.3735332 16.7093626,17.3880938 C16.4447002,16.4026545 16.3123689,15.3105439 16.3123689,14.1117621 Z M18.8470209,14.1117621 C18.8470209,14.8838588 18.9233659,15.6254781 19.0760558,16.3366199 C19.2287456,17.0477617 19.4679598,17.667471 19.7936982,18.1957477 C20.1194366,18.7240245 20.5469683,19.1507095 21.0762932,19.4758029 C21.6056181,19.8008963 22.2469156,19.963443 23.0001857,19.963443 C25.7689622,19.9837613 27.1533505,18.033201 27.1533505,14.1117621 C27.1533505,13.3193469 27.0770055,12.5675685 26.9243156,11.8564267 C26.7716258,11.1452849 26.5324116,10.5255756 26.2066732,9.99729889 C25.8809348,9.46902214 25.4534031,9.04741665 24.9240782,8.73248243 C24.3947533,8.41754822 23.7534558,8.26008111 23.0001857,8.26008111 C20.2314092,8.23976277 18.8470209,10.1903231 18.8470209,14.1117621 Z" id="Shape"></path>
                <path d="M42.4834145,21.7311383 L42.4834145,13.1060044 C42.4834145,12.2932709 42.4477868,11.5872087 42.3765316,10.9878178 C42.3052763,10.3884269 42.1678554,9.88554804 41.9642689,9.4791813 C41.7606824,9.07281457 41.4705716,8.76803952 41.0939366,8.56485616 C40.7173015,8.36167279 40.2236043,8.26008111 39.6128447,8.26008111 C38.6763468,8.26008111 37.8976284,8.54453782 37.2766896,9.11345125 C36.6557507,9.68236467 36.2231294,10.3935065 35.9788256,11.2468766 L35.9788256,21.7311383 L33.5357875,21.7311383 L33.5357875,6.49238582 L35.2459141,6.49238582 L35.7039838,8.35151362 L35.8261357,8.35151362 C36.3758193,7.70132685 37.0120271,7.16797052 37.7347592,6.75144462 C38.4574913,6.33491872 39.3990789,6.12665576 40.559522,6.12665576 C41.5367372,6.12665576 42.3358143,6.31460038 42.9567531,6.69048961 C43.577692,7.06637883 44.0612099,7.72164519 44.407307,8.65628867 C44.875556,7.86387354 45.5219431,7.24416428 46.3464685,6.79716087 C47.1709938,6.35015747 48.1024021,6.12665576 49.1406933,6.12665576 C49.9957566,6.12665576 50.7184887,6.22316786 51.3088896,6.41619206 C51.8992905,6.60921626 52.3878981,6.9495484 52.7747125,7.43718848 C53.1615268,7.92482855 53.4414583,8.58517449 53.6145068,9.4182263 C53.7875553,10.2512781 53.8740796,11.3078316 53.8740796,12.5878868 L53.8740796,21.7311383 L51.4310415,21.7311383 L51.4310415,12.5574093 C51.4310415,11.8259492 51.3954139,11.1910012 51.3241586,10.6525652 C51.2529033,10.1141293 51.1103927,9.66712592 50.8966269,9.31155503 C50.6828611,8.95598414 50.3876606,8.69184576 50.0110256,8.5191399 C49.6343906,8.34643404 49.1406933,8.26008111 48.5299338,8.26008111 C47.5120012,8.26008111 46.7180138,8.54453782 46.1479716,9.11345125 C45.5779294,9.68236467 45.1707564,10.4950981 44.9264526,11.5516516 L44.9264526,21.7311383 L42.4834145,21.7311383 Z" id="Path"></path>
                <path d="M67.2802511,21.7311383 L67.2802511,13.1060044 C67.2802511,12.2932709 67.2446235,11.5872087 67.1733682,10.9878178 C67.1021129,10.3884269 66.964692,9.88554804 66.7611055,9.4791813 C66.557519,9.07281457 66.2674082,8.76803952 65.8907732,8.56485616 C65.5141382,8.36167279 65.0204409,8.26008111 64.4096814,8.26008111 C63.4731834,8.26008111 62.694465,8.54453782 62.0735262,9.11345125 C61.4525873,9.68236467 61.019966,10.3935065 60.7756622,11.2468766 L60.7756622,21.7311383 L58.3326241,21.7311383 L58.3326241,6.49238582 L60.0427508,6.49238582 L60.5008204,8.35151362 L60.6229723,8.35151362 C61.1726559,7.70132685 61.8088637,7.16797052 62.5315958,6.75144462 C63.2543279,6.33491872 64.1959155,6.12665576 65.3563586,6.12665576 C66.3335739,6.12665576 67.1326509,6.31460038 67.7535898,6.69048961 C68.3745286,7.06637883 68.8580466,7.72164519 69.2041436,8.65628867 C69.6723926,7.86387354 70.3187797,7.24416428 71.1433051,6.79716087 C71.9678305,6.35015747 72.8992387,6.12665576 73.9375299,6.12665576 C74.7925933,6.12665576 75.5153254,6.22316786 76.1057262,6.41619206 C76.6961271,6.60921626 77.1847347,6.9495484 77.5715491,7.43718848 C77.9583634,7.92482855 78.2382949,8.58517449 78.4113434,9.4182263 C78.584392,10.2512781 78.6709162,11.3078316 78.6709162,12.5878868 L78.6709162,21.7311383 L76.2278781,21.7311383 L76.2278781,12.5574093 C76.2278781,11.8259492 76.1922505,11.1910012 76.1209952,10.6525652 C76.0497399,10.1141293 75.9072294,9.66712592 75.6934636,9.31155503 C75.4796977,8.95598414 75.1844973,8.69184576 74.8078622,8.5191399 C74.4312272,8.34643404 73.9375299,8.26008111 73.3267704,8.26008111 C72.3088379,8.26008111 71.5148505,8.54453782 70.9448083,9.11345125 C70.374766,9.68236467 69.967593,10.4950981 69.7232892,11.5516516 L69.7232892,21.7311383 L67.2802511,21.7311383 Z" id="Path"></path>
                <path d="M85.328195,6.49238582 L85.328195,15.1784747 C85.328195,15.9708899 85.374002,16.6667929 85.4656159,17.2661838 C85.5572298,17.8655747 85.7150094,18.363374 85.9389545,18.7595816 C86.1628997,19.1557891 86.4682795,19.4554846 86.8550938,19.6586679 C87.2419082,19.8618513 87.7305158,19.963443 88.3209167,19.963443 C88.8706003,19.963443 89.3592079,19.8770901 89.7867395,19.7043842 C90.2142712,19.5316783 90.5959959,19.2929379 90.9319136,18.9881628 C91.2678314,18.6833878 91.5630318,18.3328965 91.817515,17.9366889 C92.0719981,17.5404814 92.2806743,17.1188759 92.4435435,16.6718725 L92.4435435,6.49238582 L94.8865816,6.49238582 L94.8865816,17.4033326 C94.8865816,18.1347927 94.9120299,18.8916507 94.9629265,19.6739067 C95.0138231,20.4561627 95.1003474,21.1419065 95.2224993,21.7311383 L93.5429106,21.7311383 L92.9321511,19.3234154 L92.7794612,19.3234154 C92.3112122,20.1158305 91.6800941,20.7761765 90.8861067,21.3044532 C90.0921193,21.83273 89.0843661,22.0968683 87.862847,22.0968683 C87.048501,22.0968683 86.3308586,22.0003562 85.7099197,21.807332 C85.0889809,21.6143078 84.5698353,21.2739757 84.1524829,20.7863356 C83.7351306,20.2986955 83.4195715,19.6434292 83.2058057,18.8205366 C82.9920399,17.9976439 82.8851569,16.9563292 82.8851569,15.6965923 L82.8851569,6.49238582 L85.328195,6.49238582 Z" id="Path"></path>
                <path d="M109.39212,21.7311383 L109.39212,13.0450494 C109.39212,11.4602191 109.163085,10.2665168 108.705016,9.46394255 C108.246946,8.66136826 107.407152,8.26008111 106.185633,8.26008111 C105.106624,8.26008111 104.215933,8.54961741 103.51356,9.12869 C102.811186,9.70776259 102.317489,10.4341431 102.032468,11.3078316 L102.032468,21.7311383 L99.5894299,21.7311383 L99.5894299,6.49238582 L101.299557,6.49238582 L101.757626,8.35151362 L101.879778,8.35151362 C102.368386,7.70132685 103.024952,7.16797052 103.849478,6.75144462 C104.674003,6.33491872 105.656308,6.12665576 106.796392,6.12665576 C107.631097,6.12665576 108.364008,6.22316786 108.995127,6.41619206 C109.626245,6.60921626 110.15048,6.9495484 110.567832,7.43718848 C110.985185,7.92482855 111.300744,8.58009491 111.51451,9.40298754 C111.728275,10.2258802 111.835158,11.2671949 111.835158,12.5269318 L111.835158,21.7311383 L109.39212,21.7311383 Z" id="Path"></path>
                <path d="M116.812848,6.49238582 L119.255887,6.49238582 L119.255887,21.7311383 L116.812848,21.7311383 L116.812848,6.49238582 Z M116.293703,1.85980508 C116.293703,1.39248334 116.451482,0.991196187 116.767041,0.655943633 C117.082601,0.320691079 117.484684,0.153064802 117.973292,0.153064802 C118.461899,0.153064802 118.879251,0.320691079 119.225349,0.655943633 C119.571446,0.991196187 119.744494,1.39248334 119.744494,1.85980508 C119.744494,2.32712682 119.571446,2.71317521 119.225349,3.01795026 C118.879251,3.32272531 118.461899,3.47511284 117.973292,3.47511284 C117.484684,3.47511284 117.082601,3.32272531 116.767041,3.01795026 C116.451482,2.71317521 116.293703,2.32712682 116.293703,1.85980508 Z" id="Shape"></path>
                <polygon id="Path" points="128.325665 14.8736997 126.920919 14.8736997 126.920919 21.7311383 124.47788 21.7311383 124.47788 0.396884842 126.920919 0.396884842 126.920919 13.3803019 128.172976 12.9536169 132.906362 6.49238582 135.746394 6.49238582 131.074083 12.6183643 129.822026 13.624122 131.348925 14.8432222 136.448767 21.7311383 133.425507 21.7311383"></polygon>
                <path d="M138.861267,7.62005351 C139.634896,7.15273176 140.535766,6.80732004 141.563878,6.58381834 C142.59199,6.36031664 143.665909,6.24856578 144.785635,6.24856578 C145.844284,6.24856578 146.694258,6.39079414 147.335556,6.67525085 C147.976853,6.95970757 148.465461,7.33051721 148.801378,7.78767978 C149.137296,8.24484236 149.361241,8.74772119 149.473214,9.29631628 C149.585187,9.84491136 149.641173,10.3935065 149.641173,10.9421015 C149.641173,12.1612017 149.610635,13.3498244 149.549559,14.5079696 C149.488483,15.6661148 149.457945,16.763305 149.457945,17.7995401 C149.457945,18.5513186 149.488483,19.2624604 149.549559,19.9329655 C149.610635,20.6034706 149.722607,21.2231799 149.885477,21.7920933 L148.083736,21.7920933 L147.442439,19.6586679 L147.289749,19.6586679 C147.106521,19.9431247 146.877486,20.2225018 146.602644,20.4967993 C146.327802,20.7710969 145.996974,21.0149169 145.61016,21.2282594 C145.223346,21.441602 144.775455,21.6193874 144.266489,21.7616158 C143.757523,21.9038441 143.177301,21.9749583 142.525824,21.9749583 C141.874348,21.9749583 141.268678,21.8733666 140.708815,21.6701833 C140.148952,21.4669999 139.665434,21.1774636 139.258261,20.8015744 C138.851088,20.4256852 138.530439,19.9736022 138.296315,19.4453254 C138.06219,18.9170487 137.945128,18.3176577 137.945128,17.6471526 C137.945128,16.7531458 138.128356,16.0064469 138.494812,15.407056 C138.861267,14.8076651 139.375323,14.3301842 140.036979,13.9746133 C140.698635,13.6190424 141.492623,13.3650632 142.418941,13.2126757 C143.34526,13.0602881 144.368282,12.9840944 145.488008,12.9840944 C145.773029,12.9840944 146.052961,12.9840944 146.327802,12.9840944 C146.602644,12.9840944 146.882576,13.0044127 147.167597,13.0450494 C147.228673,12.4354993 147.259211,11.8869042 147.259211,11.3992641 C147.259211,10.2817556 147.035266,9.49949964 146.587375,9.05249624 C146.139485,8.60549283 145.325139,8.38199113 144.144337,8.38199113 C143.79824,8.38199113 143.426695,8.40738905 143.029701,8.45818489 C142.632707,8.50898073 142.225534,8.58009491 141.808182,8.67152742 C141.39083,8.76295994 140.993836,8.87471079 140.617201,9.00677998 C140.240566,9.13884917 139.909738,9.28615711 139.624717,9.4487038 L138.861267,7.62005351 Z M143.19766,19.841533 C143.767702,19.841533 144.276668,19.7653392 144.724559,19.6129517 C145.172449,19.4605642 145.559263,19.26754 145.885002,19.0338791 C146.21074,18.8002182 146.480492,18.5411594 146.694258,18.2567027 C146.908024,17.972246 147.065803,17.6979485 147.167597,17.4338101 L147.167597,14.9041772 C146.882576,14.8838588 146.592465,14.8686201 146.297264,14.8584609 C146.002064,14.8483018 145.711953,14.8432222 145.426932,14.8432222 C144.795814,14.8432222 144.179965,14.8787793 143.579385,14.9498934 C142.978804,15.0210076 142.449479,15.1530768 141.99141,15.346101 C141.53334,15.5391252 141.166884,15.8032636 140.892043,16.1385161 C140.617201,16.4737687 140.47978,16.8953742 140.47978,17.4033326 C140.47978,18.1144744 140.734263,18.6986265 141.243229,19.1557891 C141.752196,19.6129517 142.403672,19.841533 143.19766,19.841533 Z" id="Shape"></path>
                <path d="M152.236901,6.49238582 L154.618863,6.49238582 L154.618863,3.47511284 L157.061901,2.77413022 L157.061901,6.49238582 L161.215066,6.49238582 L161.215066,8.62581117 L157.061901,8.62581117 L157.061901,17.06808 C157.061901,18.1246335 157.194232,18.8713324 157.458895,19.3081766 C157.723557,19.7450209 158.171447,19.963443 158.802566,19.963443 C159.331891,19.963443 159.779781,19.9075676 160.146237,19.7958167 C160.512692,19.6840659 160.919865,19.5367579 161.367756,19.3538929 L161.917439,21.2130207 C161.367756,21.4771591 160.767175,21.6905016 160.115699,21.8530483 C159.464222,22.015595 158.761848,22.0968683 158.008578,22.0968683 C156.766701,22.0968683 155.891279,21.746377 155.382312,21.0453944 C154.873346,20.3444118 154.618863,19.1710279 154.618863,17.5252426 L154.618863,8.62581117 L152.236901,8.62581117 L152.236901,6.49238582 Z" id="Path"></path>
                <path d="M165.123927,6.49238582 L167.566965,6.49238582 L167.566965,21.7311383 L165.123927,21.7311383 L165.123927,6.49238582 Z M164.604781,1.85980508 C164.604781,1.39248334 164.762561,0.991196187 165.07812,0.655943633 C165.393679,0.320691079 165.795762,0.153064802 166.28437,0.153064802 C166.772977,0.153064802 167.19033,0.320691079 167.536427,0.655943633 C167.882524,0.991196187 168.055572,1.39248334 168.055572,1.85980508 C168.055572,2.32712682 167.882524,2.71317521 167.536427,3.01795026 C167.19033,3.32272531 166.772977,3.47511284 166.28437,3.47511284 C165.795762,3.47511284 165.393679,3.32272531 165.07812,3.01795026 C164.762561,2.71317521 164.604781,2.32712682 164.604781,1.85980508 Z" id="Shape"></path>
                <path d="M171.933895,14.1117621 C171.933895,11.5313333 172.509027,9.55537507 173.659291,8.18388735 C174.809555,6.81239963 176.463695,6.12665576 178.621712,6.12665576 C179.761797,6.12665576 180.754281,6.31460038 181.599165,6.69048961 C182.444049,7.06637883 183.141333,7.60481475 183.691016,8.30579737 C184.2407,9.00677998 184.647873,9.84999095 184.912535,10.8354303 C185.177198,11.8208696 185.309529,12.9129802 185.309529,14.1117621 C185.309529,16.6921908 184.734397,18.668149 183.584133,20.0396368 C182.43387,21.4111245 180.779729,22.0968683 178.621712,22.0968683 C177.481628,22.0968683 176.489143,21.9089237 175.644259,21.5330345 C174.799375,21.1571453 174.102092,20.6187093 173.552408,19.9177267 C173.002725,19.2167441 172.595552,18.3735332 172.330889,17.3880938 C172.066227,16.4026545 171.933895,15.3105439 171.933895,14.1117621 Z M174.468547,14.1117621 C174.468547,14.8838588 174.544892,15.6254781 174.697582,16.3366199 C174.850272,17.0477617 175.089486,17.667471 175.415225,18.1957477 C175.740963,18.7240245 176.168495,19.1507095 176.69782,19.4758029 C177.227145,19.8008963 177.868442,19.963443 178.621712,19.963443 C181.390489,19.9837613 182.774877,18.033201 182.774877,14.1117621 C182.774877,13.3193469 182.698532,12.5675685 182.545842,11.8564267 C182.393152,11.1452849 182.153938,10.5255756 181.8282,9.99729889 C181.502461,9.46902214 181.07493,9.04741665 180.545605,8.73248243 C180.01628,8.41754822 179.374982,8.26008111 178.621712,8.26008111 C175.852936,8.23976277 174.468547,10.1903231 174.468547,14.1117621 Z" id="Shape"></path>
                <path d="M198.960004,21.7311383 L198.960004,13.0450494 C198.960004,11.4602191 198.730969,10.2665168 198.2729,9.46394255 C197.81483,8.66136826 196.975036,8.26008111 195.753517,8.26008111 C194.674508,8.26008111 193.783817,8.54961741 193.081444,9.12869 C192.37907,9.70776259 191.885373,10.4341431 191.600352,11.3078316 L191.600352,21.7311383 L189.157314,21.7311383 L189.157314,6.49238582 L190.867441,6.49238582 L191.32551,8.35151362 L191.447662,8.35151362 C191.93627,7.70132685 192.592836,7.16797052 193.417362,6.75144462 C194.241887,6.33491872 195.224192,6.12665576 196.364276,6.12665576 C197.198981,6.12665576 197.931892,6.22316786 198.563011,6.41619206 C199.194129,6.60921626 199.718364,6.9495484 200.135716,7.43718848 C200.553069,7.92482855 200.868628,8.58009491 201.082394,9.40298754 C201.296159,10.2258802 201.403042,11.2671949 201.403042,12.5269318 L201.403042,21.7311383 L198.960004,21.7311383 Z" id="Path"></path>
            </g>
            <g id="Group" transform="translate(236.000000, 49.000000)" fill="#FFFFFF" fill-rule="nonzero">
                <path d="M2.90953138,7.36369207 L2.90953138,17.0819242 C2.90953138,17.9684998 2.96062958,18.7469814 3.06282597,19.4177099 C3.16502237,20.0884384 3.34114082,20.645276 3.59084068,21.0885638 C3.84054054,21.5318516 4.18119519,21.8670454 4.61280464,22.0944861 C5.04441408,22.3219268 5.58946152,22.4354767 6.24794696,22.4354767 C6.86112533,22.4354767 7.40617278,22.3389764 7.88308929,22.1456347 C8.3600058,21.952293 8.78582412,21.6852974 9.16054423,21.3443068 C9.53526435,21.0033162 9.8646774,20.611177 10.1484427,20.1678892 C10.432208,19.7246014 10.6652158,19.2530114 10.8467848,18.7527782 L10.8467848,7.36369207 L13.572022,7.36369207 L13.572022,19.5711556 C13.572022,20.3895331 13.6002963,21.2362128 13.6571856,22.1115356 C13.714075,22.9868585 13.8104802,23.7540874 13.9467421,24.4132222 L12.0731415,24.4132222 L11.3918322,21.7193964 L11.2215049,21.7193964 C10.6992813,22.605972 9.99514813,23.3448986 9.10944603,23.9358354 C8.22374394,24.5267721 7.09958359,24.8224109 5.73696498,24.8224109 C4.82843903,24.8224109 4.0279006,24.7143169 3.33534969,24.4984699 C2.64279879,24.2826228 2.06368588,23.9017363 1.59801097,23.3561513 C1.13233606,22.8105664 0.780439806,22.0774366 0.54198155,21.1567619 C0.303523294,20.2360873 0.184294166,19.0709224 0.184294166,17.6616083 L0.184294166,7.36369207 L2.90953138,7.36369207 Z" id="Path"></path>
                <path d="M29.7531179,24.4132222 L29.7531179,14.69499 C29.7531179,12.9218389 29.4976269,11.5861787 28.9866449,10.6883504 C28.475663,9.79052219 27.5388627,9.34143756 26.1762441,9.34143756 C24.9727112,9.34143756 23.9790216,9.66537864 23.1955159,10.3132608 C22.4120102,10.9611429 21.8611716,11.7737235 21.5433408,12.7513436 L21.5433408,24.4132222 L18.8181036,24.4132222 L18.8181036,7.36369207 L20.7257696,7.36369207 L21.2367516,9.44373474 L21.3730135,9.44373474 C21.9180609,8.71640179 22.6504684,8.11966823 23.570236,7.65353408 C24.4900035,7.18739993 25.5858896,6.95450334 26.8575534,6.95450334 C27.7885625,6.95450334 28.6061337,7.06259736 29.3102669,7.27844442 C30.0144,7.49429147 30.5989634,7.87517797 31.0646383,8.42076294 C31.5303132,8.9663479 31.8822095,9.6994777 32.1206677,10.6201523 C32.359126,11.540827 32.4783551,12.7059918 32.4783551,14.115306 L32.4783551,24.4132222 L29.7531179,24.4132222 Z" id="Path"></path>
                <path d="M50.5330516,18.5481838 C50.5330516,19.7075519 50.5442933,20.7588259 50.5671171,21.7023469 C50.589941,22.6458679 50.6921374,23.5719984 50.8737063,24.4814203 L49.0341712,24.4814203 L48.3528619,22.060387 L48.2166,22.060387 C47.7625074,22.8559181 47.1036813,23.5153939 46.240803,24.0381325 C45.3779248,24.5608711 44.3672025,24.8224109 43.2089766,24.8224109 C40.9378321,24.8224109 39.2515916,24.1063307 38.1502551,22.6741701 C37.0489186,21.2420096 36.49808,19.0027243 36.49808,15.9566553 C36.49808,13.0469824 37.1851804,10.8359994 38.5590407,9.32438803 C39.9329009,7.81277669 41.8235342,7.05680052 44.2309406,7.05680052 C45.0713356,7.05680052 45.7356122,7.10215227 46.2237703,7.19319677 C46.7119284,7.28424126 47.2399431,7.43189019 47.8078144,7.63648455 L47.8078144,0.543880011 L50.5330516,0.543880011 L50.5330516,18.5481838 Z M43.6518277,22.4354767 C44.8100535,22.4354767 45.7298211,22.134382 46.4111304,21.5318516 C47.0924397,20.9293212 47.5581146,20.0144434 47.8078144,18.7868773 L47.8078144,10.3303103 C47.3990289,10.0121661 46.9333539,9.78472535 46.4111304,9.64832911 C45.8889068,9.51193286 45.1960152,9.44373474 44.333137,9.44373474 C42.7661256,9.44373474 41.5397689,9.96101749 40.6540668,10.995242 C39.7683647,12.0294665 39.3255136,13.6832709 39.3255136,15.9566553 C39.3255136,16.8885826 39.3994357,17.7526528 39.5469391,18.5481838 C39.6944426,19.3437149 39.938692,20.0256961 40.2793466,20.5941275 C40.6200013,21.1625588 41.0686435,21.6113024 41.6249325,21.9410403 C42.1812216,22.2707782 42.8570804,22.4354767 43.6518277,22.4354767 Z" id="Shape"></path>
                <path d="M65.1471362,0.782573433 C66.0100144,0.577979072 66.9413642,0.441582831 67.9405043,0.37338471 C68.9396444,0.305186589 69.9275429,0.271087529 70.9041998,0.271087529 C71.9489876,0.271087529 73.0104675,0.37338471 74.0893208,0.577979072 C75.1681741,0.782573433 76.1502814,1.1576631 77.0359835,1.70324806 C77.9216856,2.24883303 78.6428515,2.99901235 79.1991406,3.95378604 C79.7554296,4.90855973 80.0337445,6.12487321 80.0337445,7.60238549 C80.0337445,9.05739239 79.7724623,10.2849586 79.2502388,11.285084 C78.7280152,12.2852094 78.0351236,13.098131 77.1722454,13.7231668 C76.3093672,14.3482026 75.3214687,14.7972872 74.2085499,15.0700797 C73.0956312,15.3428722 71.9489876,15.4792684 70.7679379,15.4792684 C70.6544999,15.4792684 70.4671399,15.4792684 70.2058578,15.4792684 C69.9445757,15.4792684 69.6720519,15.4734716 69.3882866,15.4622189 C69.1045213,15.4509662 68.8262064,15.4339167 68.5536827,15.4110703 C68.281159,15.3882239 68.0880078,15.3657185 67.9745698,15.3428722 L67.9745698,24.4132222 L65.1471362,24.4132222 L65.1471362,0.782573433 Z M70.9723307,2.72621987 C70.3819762,2.72621987 69.8141049,2.73747256 69.2690575,2.76031893 C68.72401,2.7831653 68.2924006,2.83976974 67.9745698,2.93081423 L67.9745698,12.8195417 C68.0880078,12.8648935 68.2699174,12.8935367 68.5196172,12.9047894 C68.7693171,12.9160421 69.0305992,12.9276357 69.3031229,12.9388884 C69.5756467,12.9501411 69.8369288,12.955938 70.0866286,12.955938 C70.3363285,12.955938 70.5182381,12.955938 70.6316761,12.955938 C71.4039402,12.955938 72.1704131,12.881943 72.931095,12.7342941 C73.6917768,12.5866451 74.3788773,12.3193085 74.9920556,11.9329661 C75.605234,11.5466238 76.0991832,11.0010388 76.4739034,10.2962113 C76.8486235,9.59138367 77.0359835,8.69355542 77.0359835,7.60238549 C77.0359835,6.67045817 76.8598651,5.89163563 76.5079688,5.26659986 C76.1560726,4.64156408 75.6903977,4.14133087 75.1112848,3.76624121 C74.5321718,3.39115154 73.8791369,3.1241559 73.1525205,2.96491329 C72.4259041,2.80567068 71.6989471,2.72621987 70.9723307,2.72621987 Z" id="Shape"></path>
                <path d="M82.4520518,8.6253573 C83.3139081,8.1026187 84.3188393,7.71593536 85.4668455,7.46598925 C86.6148517,7.21604314 87.8105495,7.09089958 89.0607521,7.09089958 C90.2428237,7.09089958 91.1898436,7.2501422 91.9052184,7.56828643 C92.6205932,7.88643066 93.1656406,8.30141622 93.5403607,8.81290213 C93.9150809,9.32438803 94.1637588,9.88702253 94.289801,10.5008056 C94.4158432,11.1145887 94.477161,11.7283718 94.477161,12.3421549 C94.477161,13.7061173 94.4430956,15.0359806 94.3749646,16.3317449 C94.3068337,17.6275092 94.2727682,18.8550754 94.2727682,20.0144434 C94.2727682,20.8556672 94.3068337,21.6511983 94.3749646,22.4013776 C94.4430956,23.151557 94.5691378,23.8447909 94.7496848,24.4814203 L92.7398223,24.4814203 L92.0244475,22.0944861 L91.8541202,22.0944861 C91.6497274,22.4126303 91.3942364,22.7253187 91.0876472,23.0322103 C90.7810581,23.3391018 90.413151,23.6118943 89.9805196,23.8505877 C89.5478882,24.0892811 89.0505324,24.2880787 88.4816392,24.4473213 C87.9127459,24.6065639 87.2655021,24.6860147 86.5399077,24.6860147 C85.8143132,24.6860147 85.1364105,24.5724648 84.5130125,24.3450241 C83.8896145,24.1175834 83.3479736,23.7936423 82.8949029,23.3732009 C82.4418322,22.9527595 82.0834635,22.4467294 81.8221814,21.8557927 C81.5608993,21.264856 81.4304285,20.5941275 81.4304285,19.8439481 C81.4304285,18.8438227 81.6348213,18.0083957 82.0436069,17.3376672 C82.4520518,16.6669387 83.0243516,16.1329474 83.7635722,15.7350114 C84.5027928,15.3370753 85.3884949,15.0530302 86.4206785,14.8825349 C87.4528621,14.7120396 88.5940552,14.6267919 89.8442578,14.6267919 C90.1610666,14.6267919 90.4744689,14.6267919 90.7810581,14.6267919 C91.0876472,14.6267919 91.4010495,14.6496383 91.7178584,14.69499 C91.7859893,14.0130088 91.8200548,13.3992257 91.8200548,12.8536408 C91.8200548,11.6032282 91.5713769,10.7282463 91.0706145,10.2280131 C90.5698522,9.72777992 89.6637108,9.4778338 88.3453773,9.4778338 C87.9604375,9.4778338 87.5448389,9.50613602 87.1019878,9.56308145 C86.6591368,9.62002689 86.2060661,9.6994777 85.7393692,9.80177488 C85.2726723,9.90407206 84.8298213,10.0292156 84.4108161,10.1768645 C83.9918109,10.3245135 83.6204973,10.4895529 83.3036885,10.6713009 L82.4520518,8.6253573 Z M87.2893479,22.2990805 C87.9263721,22.2990805 88.4918588,22.2138328 88.9926211,22.0433375 C89.4933835,21.8728422 89.9226083,21.6569952 90.2871088,21.3954554 C90.6516093,21.1339156 90.9513854,20.8440736 91.1898436,20.5259293 C91.4283019,20.2077851 91.6054423,19.9008936 91.7178584,19.6052547 L91.7178584,16.7750327 C91.4010495,16.7521863 91.0774276,16.7351368 90.7469926,16.7238841 C90.4165576,16.7126314 90.0929357,16.7068346 89.7761268,16.7068346 C89.0709717,16.7068346 88.3862559,16.7467305 87.7151662,16.8261813 C87.0440765,16.9056321 86.454744,17.053622 85.943762,17.2694691 C85.43278,17.4853161 85.0239945,17.780955 84.7174053,18.1560446 C84.4108161,18.5311343 84.2575215,19.0027243 84.2575215,19.5711556 C84.2575215,20.3666867 84.5402648,21.0203657 85.1091581,21.5318516 C85.6780514,22.0433375 86.4036458,22.2990805 87.2893479,22.2990805 Z" id="Shape"></path>
                <path d="M107.660496,9.98931971 C106.979187,9.76187898 106.331943,9.64832911 105.718765,9.64832911 C104.741086,9.64832911 103.971206,9.91532475 103.402313,10.449657 C102.83342,10.9839893 102.482545,11.6601737 102.346283,12.4785511 L102.346283,24.4132222 L99.6210463,24.4132222 L99.6210463,7.36369207 L101.528712,7.36369207 L102.039694,9.44373474 L102.175956,9.44373474 C102.608588,8.67070905 103.122976,8.07397549 103.725935,7.65353408 C104.328894,7.23309267 105.095367,7.02270146 106.025354,7.02270146 C106.682817,7.02270146 107.422038,7.13625133 108.239609,7.36369207 L107.660496,9.98931971 Z" id="Path"></path>
                <path d="M109.976948,7.36369207 L112.634054,7.36369207 L112.634054,3.9878851 L115.359291,3.20360671 L115.359291,7.36369207 L119.992194,7.36369207 L119.992194,9.75062629 L115.359291,9.75062629 L115.359291,19.196066 C115.359291,20.3782804 115.505773,21.2137074 115.802142,21.7023469 C116.098512,22.1909864 116.595868,22.4354767 117.301023,22.4354767 C117.890355,22.4354767 118.391118,22.3730754 118.799903,22.2479319 C119.208689,22.1227883 119.661759,21.9580899 120.162522,21.7534955 L120.7757,23.8335382 C120.162522,24.129177 119.491432,24.3678705 118.765838,24.5496184 C118.040243,24.7313664 117.256738,24.8224109 116.415321,24.8224109 C115.028856,24.8224109 114.054584,24.4302717 113.485691,23.6459933 C112.916797,22.861715 112.634054,21.5489011 112.634054,19.7075519 L112.634054,9.75062629 L109.976948,9.75062629 L109.976948,7.36369207 Z" id="Path"></path>
                <path d="M134.708475,24.4132222 L134.708475,14.69499 C134.708475,12.9218389 134.452984,11.5861787 133.942002,10.6883504 C133.43102,9.79052219 132.49422,9.34143756 131.131602,9.34143756 C129.929091,9.34143756 128.934379,9.66537864 128.150873,10.3132608 C127.367368,10.9611429 126.815507,11.7737235 126.498698,12.7513436 L126.498698,24.4132222 L123.773461,24.4132222 L123.773461,7.36369207 L125.681127,7.36369207 L126.192109,9.44373474 L126.328371,9.44373474 C126.873418,8.71640179 127.605826,8.11966823 128.525593,7.65353408 C129.445361,7.18739993 130.542269,6.95450334 131.812911,6.95450334 C132.742898,6.95450334 133.560469,7.06259736 134.265624,7.27844442 C134.970779,7.49429147 135.553299,7.87517797 136.019996,8.42076294 C136.486693,8.9663479 136.837567,9.6994777 137.076025,10.6201523 C137.314483,11.540827 137.433713,12.7059918 137.433713,14.115306 L137.433713,24.4132222 L134.708475,24.4132222 Z" id="Path"></path>
                <path d="M154.841165,23.0492598 C154.159856,23.5948448 153.301406,24.0268799 152.269223,24.3450241 C151.237039,24.6631683 150.140131,24.8224109 148.981905,24.8224109 C147.687418,24.8224109 146.563257,24.6120197 145.609424,24.1915783 C144.655591,23.7711369 143.872085,23.1686065 143.258907,22.3843281 C142.645729,21.6000497 142.192658,20.6623256 141.896289,19.5711556 C141.599919,18.4799857 141.453437,17.2524195 141.453437,15.8884571 C141.453437,12.9787843 142.100681,10.7623454 143.395169,9.23914038 C144.689657,7.71593536 146.539411,6.95450334 148.94784,6.95450334 C149.721126,6.95450334 150.491005,7.03975099 151.264291,7.2102463 C152.037577,7.3807416 152.729106,7.70468267 153.342285,8.18206951 C153.955463,8.65945636 154.456226,9.33564072 154.841165,10.2109636 C155.226105,11.0862865 155.420278,12.2398577 155.420278,13.6720182 C155.420278,14.4221975 155.352147,15.2518277 155.215885,16.1612496 L144.280871,16.1612496 C144.280871,17.1613751 144.383067,18.0479506 144.58746,18.8209763 C144.791853,19.594002 145.108662,20.24734 145.541293,20.7816723 C145.973925,21.3160046 146.536005,21.7251933 147.227534,22.0092385 C147.919063,22.2932836 148.767293,22.4354767 149.765411,22.4354767 C150.538697,22.4354767 151.308577,22.2990805 152.081863,22.026288 C152.855149,21.7534955 153.434262,21.4353513 153.819201,21.0715143 L154.841165,23.0492598 Z M148.981905,9.34143756 C147.643132,9.34143756 146.57007,9.69368086 145.762719,10.3985084 C144.955367,11.103336 144.475044,12.3080558 144.314937,14.0130088 L152.763172,14.0130088 C152.763172,12.2852094 152.432737,11.0746928 151.775273,10.3814589 C151.11781,9.68822501 150.184416,9.34143756 148.981905,9.34143756 Z" id="Shape"></path>
                <path d="M167.751977,9.98931971 C167.070667,9.76187898 166.423423,9.64832911 165.810245,9.64832911 C164.832566,9.64832911 164.062687,9.91532475 163.493793,10.449657 C162.9249,10.9839893 162.574026,11.6601737 162.437764,12.4785511 L162.437764,24.4132222 L159.712527,24.4132222 L159.712527,7.36369207 L161.620193,7.36369207 L162.131175,9.44373474 L162.267437,9.44373474 C162.700068,8.67070905 163.214457,8.07397549 163.817415,7.65353408 C164.420374,7.23309267 165.186847,7.02270146 166.116834,7.02270146 C166.774298,7.02270146 167.513518,7.13625133 168.331089,7.36369207 L167.751977,9.98931971 Z" id="Path"></path>
            </g>
            <g id="Group" transform="translate(209.000000, 10.000000)" fill="#8FA4A7" fill-rule="nonzero">
                <polygon id="Path" points="0 63.0066881 0.884474752 57.3054495 6.49670974 45.3232598 40.6113458 0 39.7272082 5.69988805 34.1146361 17.6820778"></polygon>
            </g>
            <g id="Group" transform="translate(16.500000, 90.500000) scale(-1, 1) translate(-16.500000, -90.500000) translate(14.000000, 9.000000)" fill="#8FA4A7">
                <rect id="Rectangle" x="0.252568212" y="0.071803076" width="3.99981977" height="162.05716"></rect>
            </g>
        </g>
    </g>
</svg>