<svg viewBox="0 0 428 187" version="1.1"
	xmlns="http://www.w3.org/2000/svg"
	xmlns:xlink="http://www.w3.org/1999/xlink">
	<title>liveline</title>
	<g id="Partner" stroke="none" stroke-width="1" fill="none" fill-rule="evenodd">
		<g id="liveline" fill="#FFFFFF" fill-rule="nonzero">
			<g id="Liveline_Connect_Logo_negativ" transform="translate(96.000000, 0.000000)">
				<g id="Group" transform="translate(55.699422, 121.127168)">
					<polygon id="Path" points="6.54786127 42.0047399 4.90803468 42.3525434 4.89913295 28.5357803 0.0915606936 29.5531214 0.0953757225 27.9323699 11.349711 25.5486127 11.3509827 27.1916185 6.56121387 28.183526"></polygon>
					<polygon id="Path" points="26.8425434 37.7077457 25.1810983 38.06 25.1887283 30.882659 16.5267052 32.7164162 16.5406936 39.8886705 14.8792486 40.2409249 14.8964162 24.7989595 16.5356069 24.4511561 16.5406936 31.2552601 25.2027168 29.4215029 25.1976301 22.6173988 26.859711 22.2651445"></polygon>
					<polygon id="Path" points="33.5436416 27.5858382 41.0319075 26.0006936 41.0395376 27.456763 33.5296532 29.0469942 33.5188439 34.7892486 41.3612717 33.1290751 41.356185 34.6347399 31.8739306 36.6414451 31.8904624 21.1994798 41.3727168 19.1915029 41.3676301 20.6971676 33.5468208 22.3528902"></polygon>
					<path d="M54.689711,16.3734682 L60.8706936,15.0642775 C62.7763006,14.6605202 63.2544509,14.6287283 63.9189017,14.8118497 C64.7518497,15.0286705 65.3419075,15.7382659 65.5669942,16.8001156 C65.7920809,17.8638728 65.795896,19.4140462 65.6019653,20.6819075 C65.3495376,22.3325434 64.3283815,23.5215607 62.8716763,23.9679191 C62.4558382,24.0798266 62.1277457,24.1720231 60.6042775,24.5172832 L56.3282659,25.4227168 L56.3339884,31.4625434 L54.6725434,31.8147977 L54.689711,16.3734682 Z M60.2768208,23.0828324 C62.7139884,22.5665318 63.4820809,22.1500578 63.8782081,21.0704046 C64.1109249,20.4186705 64.1668786,18.2778035 63.9691329,17.3475723 C63.8050867,16.5718497 63.513237,16.2863584 62.7890173,16.2552023 C62.4869942,16.2501156 62.2428324,16.3016185 60.8204624,16.5794798 L56.3454335,17.5268786 L56.3333526,23.9176879 L60.2768208,23.0828324 Z" id="Shape"></path>
					<path d="M79.1268786,11.522659 C80.2395954,11.750289 81.0051445,12.630289 81.309711,14.0691908 C81.5252601,15.0884393 81.5398844,15.5952023 81.5278035,19.2544509 C81.5055491,22.4310983 81.3376879,23.7154913 80.7330058,24.793237 C80.1677457,25.8385549 78.9990751,26.6651445 77.534104,27.0669942 C76.9008092,27.2475723 76.0856647,27.4427746 75.1554335,27.6398844 C72.8740462,28.1224855 72.1682659,28.1809827 71.2151445,27.9425434 C70.1373988,27.6602312 69.4888439,26.8953179 69.2078035,25.5664162 C68.9687283,24.4365318 68.9439306,23.885896 68.9413873,20.0441618 C68.9534682,18.0279191 68.9928902,17.556763 69.1728324,16.5464162 C69.4907514,14.7660694 70.250578,13.6565318 71.6901156,12.9113295 C72.3571098,12.5616185 73.4679191,12.2328902 75.0854913,11.8908092 C77.4546243,11.3891329 78.182659,11.3293642 79.1268786,11.522659 Z M70.8927746,15.9277457 C70.6015607,16.8452601 70.6117341,17.0061272 70.5920231,20.7365896 C70.5818497,24.1879191 70.596474,24.2546821 70.7649711,25.0520231 C70.9569942,25.9612717 71.299711,26.3739306 71.9050289,26.4998266 C72.5326012,26.6219075 73.2110405,26.5481503 75.6036994,26.0413873 C78.3950289,25.4500578 79.1319653,24.9928902 79.5904046,23.5539884 C79.8822543,22.6352023 79.8943353,22.4711561 79.8962428,18.766763 C79.9019653,15.293815 79.8924277,15.2486705 79.7239306,14.4513295 C79.5312717,13.5433526 79.184104,13.1078035 78.5787861,12.9812717 C77.9512139,12.8598266 77.2498844,12.9380347 74.8578613,13.4447977 C72.0881503,14.0304046 71.3518497,14.4875723 70.8927746,15.9277457 Z" id="Shape"></path>
					<path d="M101.642543,21.870289 L99.1176301,22.4050289 L96.0242775,11.9493064 L95.6319653,10.6445665 L95.4469364,9.98901734 L95.2619075,9.33410405 L95.2396532,9.33855491 L95.0482659,10.0735838 L94.8568786,10.8086127 L94.4512139,12.2831214 L91.2752023,24.066474 L88.7941618,24.5910405 L84.2689017,10.1104624 L85.9754913,9.74867052 L89.1534104,20.1636994 L89.5915029,21.5746243 C89.6601734,21.7914451 89.6741618,21.8582081 90.0067052,22.9912717 L90.0289595,22.9868208 L90.2336994,22.2034682 L90.4333526,21.3965896 L90.8644509,19.8241618 L94.0182081,8.04526012 L96.4769942,7.52450867 L99.5926012,17.9757803 L100.008439,19.3911561 L100.203006,20.0918497 L100.396936,20.7906358 L100.440809,20.7817341 L100.662717,19.9704046 L100.867457,19.1857803 L101.311272,17.5643931 L104.585202,5.80647399 L106.312775,5.44150289 L101.642543,21.870289 Z" id="Path"></path>
					<polygon id="Path" points="111.06948 11.1716763 118.557746 9.58526012 118.565376 11.0413295 111.054855 12.6315607 111.044046 18.3750867 118.886474 16.7136416 118.881387 18.2193064 109.399133 20.2272832 109.416301 4.78468208 118.898555 2.7767052 118.893468 4.28236994 111.073295 5.93809249"></polygon>
					<path d="M123.862543,1.72693642 L130.885376,0.239710983 C133.367052,-0.284855491 134.692139,0.289942197 135.07237,2.08427746 C135.367399,3.48057803 135.210347,5.68884393 134.755723,6.71190751 C134.409191,7.47936416 133.83185,7.92572254 132.655549,8.38289017 L132.660636,8.40514451 C133.157225,8.34601156 133.393121,8.36572254 133.686879,8.44265896 C134.284566,8.64040462 134.774798,9.20693642 134.910867,9.84976879 C134.967457,10.116185 135.002428,10.5021387 134.994162,10.8969942 L134.989075,14.8099422 L133.349249,15.1577457 L133.345434,11.6396532 C133.360058,10.9421387 133.340983,10.8543931 133.274855,10.544104 C133.143237,9.92352601 132.788439,9.55919075 132.228266,9.42375723 C131.76474,9.31312139 131.538382,9.33791908 130.541387,9.5483815 L125.512543,10.6140462 L125.506821,16.8179191 L123.845376,17.1701734 L123.862543,1.72693642 Z M130.325202,8.08913295 C132.141792,7.70381503 133.031965,7.09976879 133.402023,6.00294798 C133.60422,5.42687861 133.626474,3.45514451 133.462428,2.67942197 C133.241792,1.63855491 132.54237,1.39375723 130.902543,1.74028902 L125.519538,2.87971098 L125.518266,9.10647399 L130.325202,8.08913295 Z" id="Shape"></path>
					<path d="M10.190578,49.2679191 C11.3039306,49.4955491 12.0688439,50.3755491 12.3740462,51.8157225 C12.5895954,52.8349711 12.6042197,53.3404624 12.5921387,57.0009827 C12.5698844,60.1763584 12.4020231,61.4613873 11.7967052,62.5384971 C11.2314451,63.5850867 10.0634104,64.4104046 8.59780347,64.813526 C7.96450867,64.994104 7.14936416,65.1893064 6.21913295,65.3864162 C3.93774566,65.8690173 3.23196532,65.9262428 2.27884393,65.6878035 C1.20046243,65.406763 0.552543353,64.6412139 0.270867052,63.3116763 C0.0317919075,62.1824277 0.0076300578,61.6324277 0.00445086705,57.7900578 C0.0171676301,55.773815 0.0565895954,55.3013873 0.236531792,54.2916763 C0.553815029,52.5113295 1.31427746,51.4017919 2.75381503,50.6565896 C3.42017341,50.3075145 4.5316185,49.979422 6.14855491,49.637341 C8.51959538,49.1356647 9.24763006,49.0746243 10.190578,49.2679191 Z M1.95774566,53.6736416 C1.66653179,54.5924277 1.6767052,54.7520231 1.65635838,58.4837572 C1.64682081,61.933815 1.66080925,62.000578 1.8299422,62.7991908 C2.02260116,63.7071676 2.36468208,64.1204624 2.97,64.2469942 C3.59757225,64.3690751 4.27601156,64.2940462 6.66867052,63.7879191 C9.46,63.1965896 10.1969364,62.7406936 10.6560116,61.3005202 C10.9472254,60.3830058 10.9593064,60.2176879 10.9618497,56.5139306 C10.9669364,53.0403468 10.9573988,52.9958382 10.7889017,52.1984971 C10.5962428,51.2892486 10.2490751,50.8536994 9.64375723,50.7284393 C9.01618497,50.6063584 8.31485549,50.6845665 5.92283237,51.1906936 C3.15312139,51.7769364 2.41682081,52.234104 1.95774566,53.6736416 Z" id="Shape"></path>
					<polygon id="Path" points="18.366185 54.0888439 25.5880347 52.5596532 25.5734104 54.0214451 18.373815 55.5455491 18.373815 62.6523121 16.7117341 63.0045665 16.7289017 47.5619653 25.767341 45.6487283 25.7845087 47.1493064 18.3852601 48.7160116"></polygon>
					<polygon id="Path" points="47.4863006 56.4872254 45.8248555 56.8394798 45.8331214 49.6621387 37.1710983 51.495896 37.1850867 58.6687861 35.5230058 59.0197688 35.5401734 43.5778035 37.1793642 43.23 37.1850867 50.034104 45.8471098 48.2003468 45.8420231 41.3962428 47.504104 41.0439884"></polygon>
					<path d="M57.2565896,47.96 L57.2362428,54.422659 L55.5964162,54.7704624 L55.5945087,48.3122543 L50.1631792,40.4825434 L52.0910405,40.0736994 L55.2505202,44.612948 C55.4539884,44.9168786 55.6523699,45.1991908 55.8780925,45.4973988 C55.9461272,45.5991329 55.9512139,45.6220231 56.4567052,46.3710405 L56.5012139,46.3615029 L56.7968786,45.7892486 L57.0747399,45.2443353 L57.6883237,44.0972832 L60.8649711,38.2164162 L62.8360694,37.7986705 L57.2565896,47.96 Z" id="Path"></path>
					<path d="M66.3605202,37.0521965 L72.8734104,35.6730636 C74.2252023,35.3863006 74.6067052,35.329711 75.1439884,35.3545087 C76.1428902,35.3735838 76.8880925,36.0488439 77.1131792,37.1126012 C77.2587861,37.7993064 77.306474,38.900578 77.223815,39.8212717 C77.0953757,41.0757803 76.6019653,41.8044509 75.3836994,42.5019653 L75.3709827,42.5515607 C76.7482081,42.6075145 77.3312717,43.0621387 77.589422,44.2816763 C77.9321387,45.8992486 77.640289,48.0197688 76.9465896,49.1165896 C76.4099422,49.9705202 75.2266474,50.6146243 73.5652023,50.9668786 L66.3433526,52.4960694 L66.3605202,37.0521965 Z M71.5317919,49.8916763 C74.3186705,49.2780925 74.3631792,49.2691908 74.8794798,48.9741618 C75.7709249,48.4845665 76.0602312,47.7756069 76.0704046,46.2921965 C76.0684971,45.736474 76.0303468,45.1190751 75.9648555,44.8087861 C75.8192486,44.1220809 75.5496532,43.8321387 74.9710405,43.7240462 C74.4954335,43.6630058 74.3358382,43.6725434 72.297341,44.1036416 L67.999711,45.013526 L67.9869942,50.6413295 L71.5317919,49.8916763 Z M72.3914451,42.5801734 C74.0528902,42.2279191 74.5787283,41.9780347 75.0740462,41.3644509 C75.4415607,40.916185 75.5566474,40.4749133 75.613237,39.5376879 C75.636763,38.8840462 75.5986127,38.2672832 75.5184971,37.8902312 C75.4059538,37.3593064 75.1096532,37.0509249 74.6289595,36.9669942 C74.2951445,36.9218497 73.8875723,36.9625434 72.8460694,37.1825434 L68.0162428,38.2049711 L68.0047977,43.5072254 L72.3914451,42.5801734 Z" id="Shape"></path>
					<path d="M82.2463006,33.6886127 L89.2691329,32.2013873 C91.7501734,31.6768208 93.075896,32.2516185 93.4561272,34.0459538 C93.7517919,35.4409827 93.594104,37.6505202 93.1388439,38.6723121 C92.7923121,39.4404046 92.2156069,39.8873988 91.0393064,40.3445665 L91.0443931,40.366185 C91.5409827,40.3083237 91.7768786,40.3273988 92.0706358,40.4049711 C92.6683237,40.6027168 93.1585549,41.1692486 93.2946243,41.8120809 C93.350578,42.0784971 93.386185,42.4631792 93.3772832,42.8593064 L93.3721965,46.7722543 L91.7330058,47.1187861 L91.7285549,43.6006936 C91.7431792,42.9044509 91.724104,42.8154335 91.6586127,42.5051445 C91.5269942,41.8845665 91.1721965,41.5202312 90.6113873,41.3847977 C90.1484971,41.2741618 89.9221387,41.2989595 88.9251445,41.5100578 L83.8956647,42.5744509 L83.8899422,48.7795954 L82.2284971,49.130578 L82.2463006,33.6886127 Z M88.7089595,40.0508092 C90.5255491,39.666763 91.4157225,39.0614451 91.7857803,37.9646243 C91.9879769,37.3891908 92.0102312,35.4168208 91.846185,34.6423699 C91.6255491,33.6002312 90.9254913,33.3554335 89.2869364,33.7019653 L83.902659,34.842659 L83.9013873,41.069422 L88.7089595,40.0508092 Z" id="Shape"></path>
					<polygon id="Path" points="99.3121965 45.5139306 97.6501156 45.866185 97.6672832 30.4235838 99.306474 30.077052"></polygon>
					<path d="M104.380462,29.0024855 L111.203642,27.5572254 C112.467052,27.2901734 113.523179,27.2513873 114.138035,27.4217919 C115.247572,27.7428902 116.067803,28.772948 116.37237,30.2118497 C116.733526,31.9184393 116.693468,36.6484393 116.311329,38.5591329 C116.020751,40.0323699 115.196069,41.2722543 114.083988,41.9233526 C113.448786,42.3131214 112.272486,42.770289 111.607399,42.9108092 L104.363295,44.4444509 L104.380462,29.0024855 Z M110.838035,41.5691908 C112.034682,41.3161272 113.179191,40.8189017 113.679595,40.342659 C114.567861,39.5065318 114.887052,38.2812717 114.951272,35.7442775 C114.983699,33.4927746 114.906763,31.3798844 114.761156,30.6931792 C114.4,28.9865896 113.502197,28.5758382 111.176936,29.0686127 L106.036185,30.1565318 L106.007572,42.5922543 L110.838035,41.5691908 Z" id="Shape"></path>
				</g>
				<g id="Group">
					<path d="M236.956532,55.8335838 L236.897399,0 L147.838728,18.9994798 L40.6752023,41.8343353 L40.8850289,82.0936994 L0.0292485549,90.8097688 L0.0782080925,146.602659 L190.963179,105.879769 L190.928208,65.654104 L236.956532,55.8335838 Z M221.716763,18.833526 L221.72948,24.2763006 L212.78578,26.1844509 L212.771156,30.6327746 L221.69896,28.7278035 L221.707861,33.2823121 L212.779422,35.1872832 L212.806127,39.996763 L221.716127,38.0956069 L221.728844,43.5383815 L206.441387,46.7995954 L206.430578,22.0953757 L221.716763,18.833526 Z M168.098439,30.2722543 L168.108613,54.9771098 L161.766763,56.3301734 L161.75659,31.6253179 L168.098439,30.2722543 Z M62.1557225,52.8737572 L62.1792486,71.9082081 L72.0995954,69.7921387 L72.0868786,75.4619075 L55.8246821,78.9310405 L55.8145087,54.226185 L62.1557225,52.8737572 Z M33.333815,121.682254 C32.4487283,123.612023 30.8489595,124.620462 27.2577457,125.497919 L23.6163006,126.311792 C20.4625434,126.984509 19.0916763,126.980694 17.5968208,126.224682 C16.5953757,125.698208 15.726185,124.401734 15.3936416,122.842659 C14.8945087,120.504682 14.7546243,111.163584 15.1494798,108.15289 C15.513815,105.519249 17.2687283,103.330058 19.925896,102.244046 C21.2547977,101.70104 22.8978035,101.240058 26.050289,100.567341 C29.3458382,99.864104 30.7593064,99.895896 31.8930058,100.691329 C32.673815,101.228613 33.196474,102.116879 33.4463584,103.285549 C33.5747977,103.888324 33.612948,104.583931 33.7038728,106.749595 L31.0467052,107.316763 L31.0295376,106.542312 C31.0174566,105.619075 30.9278035,104.674855 30.8139884,104.143295 C30.4515607,102.442428 29.4399422,102.214798 25.8614451,102.977803 C24.266763,103.317977 21.8448555,103.945549 20.9108092,104.255838 C18.4634682,105.11104 17.7030058,106.755318 17.7246243,111.195376 C17.7977457,119.699711 17.8269942,120.359711 18.2053179,122.131792 C18.703815,124.469769 19.7593064,124.726647 24.6838728,123.676243 C30.9901156,122.330809 31.5293064,121.733757 31.3372832,116.144104 L33.993815,115.577572 C34.0065318,115.982601 33.9906358,116.430231 34.013526,116.536416 C34.0065318,119.279422 33.8590173,120.496416 33.333815,121.682254 Z M58.0933526,107.696358 C58.0653757,112.776705 57.8008671,114.833642 56.8356647,116.558035 C55.9327746,118.232197 54.0672254,119.556012 51.723526,120.203931 C50.7112717,120.494509 49.4078035,120.809249 47.9199422,121.126532 C44.2708671,121.905434 43.1416185,121.99763 41.6168786,121.619306 C39.8918497,121.172312 38.8522543,119.949595 38.3989017,117.823988 C38.0135838,116.016936 37.9741618,115.136301 37.9595376,108.990925 C37.9754335,105.764682 38.036474,105.011214 38.3213295,103.394277 C38.8242775,100.546358 40.0380925,98.7685549 42.3391908,97.573815 C43.4048555,97.0130058 45.1820231,96.485896 47.7679769,95.9346243 C51.5588439,95.1258382 52.7230636,95.0247399 54.2331792,95.3331214 C56.013526,95.6942775 57.2400578,97.0994798 57.7315607,99.4018497 C58.0793642,101.031503 58.103526,101.840925 58.0933526,107.696358 Z M79.6101156,114.106879 L69.6948555,99.4050289 L68.0658382,96.9748555 L67.2545087,95.7769364 L66.479422,94.5720231 L66.4082081,94.5872832 C66.4075723,95.1061272 66.4355491,95.5817341 66.4272832,96.0649711 C66.4298266,96.2493642 66.4393642,96.9888439 66.420289,98.2891329 L66.4667052,116.911561 L63.8095376,117.478728 L63.7993642,92.7738728 L68.1211561,91.8519075 L76.7978035,104.743526 L79.0721965,108.110289 L80.174104,109.801618 L81.3109827,111.485318 L81.3472254,111.477688 L81.3351445,110.553815 L81.3230636,109.630578 L81.3351445,107.776474 L81.3014451,89.0402312 L83.9579769,88.4736994 L83.9687861,113.177919 L79.6101156,114.106879 Z M77.8246821,74.2379191 L77.8138728,49.5336994 L84.1557225,48.1806358 L84.1665318,72.8848555 L77.8246821,74.2379191 Z M106.924451,108.279422 L97.0091908,93.5775723 L95.3795376,91.1473988 L94.5682081,89.9494798 L93.7931214,88.7445665 L93.7219075,88.7598266 C93.7212717,89.2786705 93.7492486,89.7542775 93.7409827,90.2375145 C93.743526,90.4219075 93.7530636,91.1613873 93.7339884,92.4616763 L93.7797688,111.084104 L91.1226012,111.651272 L91.1124277,86.9464162 L95.4342197,86.0244509 L104.110867,98.9160694 L106.38526,102.282832 L107.487168,103.974162 L108.624046,105.657861 L108.660289,105.650231 L108.648208,104.726358 L108.636127,103.803121 L108.648208,101.949017 L108.614509,83.2127746 L111.27104,82.6462428 L111.28185,107.350462 L106.924451,108.279422 Z M105.634971,68.3049133 L95.8214451,70.3987283 L89.1152601,47.1226012 L95.5276879,45.7542775 L98.143526,54.7164162 L99.4298266,59.1831792 C99.5862428,59.7427168 99.6739884,59.9824277 100.653179,63.7001734 L100.829942,63.662659 L101.408555,61.1689017 L102.01578,58.6319075 L103.35104,53.6056069 L105.978324,43.5250289 L112.533179,42.1268208 L105.634971,68.3049133 Z M117.350925,41.0986705 L132.63711,37.8374566 L132.649827,43.2802312 L123.706127,45.1883815 L123.691503,49.6367052 L132.619306,47.7323699 L132.628208,52.2868786 L123.699769,54.1918497 L123.726474,59.0013295 L132.636474,57.1001734 L132.649191,62.542948 L117.361734,65.8041618 L117.350925,41.0986705 Z M132.733757,100.36578 L132.729306,102.774335 L117.565838,106.00948 L117.470462,81.3230636 L132.749653,78.0631214 L132.745202,80.4723121 L120.122543,83.1650867 L120.130173,91.5346243 L132.737572,88.8450289 L132.753468,91.1753757 L120.110462,93.8726012 L120.107283,103.059191 L132.733757,100.36578 Z M154.63711,95.8036416 C153.752023,97.7334104 152.152254,98.7418497 148.56104,99.6193064 L144.919595,100.433179 C141.765838,101.105896 140.394971,101.102081 138.900116,100.346069 C137.898671,99.8195954 137.02948,98.5231214 136.696936,96.9640462 C136.197803,94.6260694 136.057919,85.2849711 136.452775,82.2742775 C136.81711,79.6406358 138.572023,77.4514451 141.229191,76.3654335 C142.558092,75.8224277 144.201098,75.3614451 147.353584,74.6887283 C150.649133,73.9854913 152.062601,74.0172832 153.196301,74.8127168 C153.97711,75.35 154.499133,76.2382659 154.749017,77.4069364 C154.877457,78.009711 154.916243,78.7053179 155.006532,80.8709827 L152.35,81.4375145 L152.332832,80.6636994 C152.320751,79.7404624 152.231098,78.7962428 152.117283,78.2646821 C151.754855,76.563815 150.743237,76.336185 147.16474,77.0991908 C145.570058,77.4393642 143.14815,78.0669364 142.214104,78.3772254 C139.766763,79.2324277 139.006301,80.8767052 139.027919,85.316763 C139.10104,93.8210983 139.130289,94.4810983 139.508613,96.2531792 C140.00711,98.5911561 141.062601,98.8480347 145.987168,97.7976301 C152.29341,96.4521965 152.832601,95.8551445 152.640578,90.2661272 L155.29711,89.6995954 C155.309827,90.1046243 155.293931,90.5522543 155.316821,90.6584393 C155.309827,93.4008092 155.161676,94.6178035 154.63711,95.8036416 Z M156.02896,57.5541618 L139.766763,61.0232948 L139.75659,36.3184393 L146.098439,34.9653757 L146.121965,53.9998266 L156.042312,51.8837572 L156.02896,57.5541618 Z M167.964913,95.2574566 L165.343353,95.8169942 L165.295665,73.7133526 L157.60711,75.353815 L157.610289,72.7595954 L175.607688,68.9197688 L175.61341,71.5489595 L167.953468,73.146185 L167.964913,95.2574566 Z M184.620694,41.045896 C183.584277,38.4516763 182.606358,35.7709827 181.653873,33.0483237 L181.370289,33.1087283 L181.48474,35.380578 C181.641792,38.7180925 181.656416,39.3075145 181.643064,42.1993064 L181.677399,52.0821387 L175.477977,53.4046821 L175.467803,28.6998266 L186.131445,26.4247977 L189.884162,36.032948 L191.37711,39.9001156 C191.875607,41.2010405 192.33341,42.4733526 192.798208,43.7825434 L193.045549,43.7297688 L192.945723,41.5284971 C192.782312,38.1553757 192.800116,37.8921387 192.790578,34.8941618 L192.756243,25.0113295 L199.062486,23.665896 L199.072659,48.3707514 L188.338439,50.6610405 L184.620694,41.045896 Z" id="Shape"></path>
					<path d="M55.1958382,100.016705 C54.886185,98.5644509 54.3298266,97.8675723 53.3601734,97.6666474 C52.356185,97.4733526 51.2352023,97.6017919 47.4087283,98.4182081 C42.9801156,99.3630636 41.8031792,100.095549 41.0726012,102.399827 C40.6084393,103.869249 40.6256069,104.12422 40.6020809,110.093468 C40.5944509,115.613815 40.617341,115.720636 40.8894798,116.996127 C41.1991329,118.448382 41.7478613,119.109017 42.7175145,119.309942 C43.7215029,119.503237 44.8075145,119.383064 48.6333526,118.566647 C53.0975723,117.614162 54.2745087,116.88104 55.0057225,114.577399 C55.4698844,113.107341 55.4883237,112.84474 55.4838728,106.918728 C55.483237,101.362775 55.4679769,101.292197 55.1958382,100.016705 Z" id="Path"></path>
				</g>
			</g>
		</g>
	</g>
</svg>