<svg version="1.1" id="text"
	xmlns="http://www.w3.org/2000/svg"
	xmlns:xlink="http://www.w3.org/1999/xlink" x="0px" y="0px" viewBox="0 0 3968.5 3118.11" style="enable-background:new 0 0 3968.5 3118.11;" xml:space="preserve">
	<style type="text/css">
	.st0{fill:#FFFFFF;}
	</style>
	<g>
		<g>
			<path class="st0" d="M1092.98,2636.62l-25.79,5.47l-0.14-217.3l-75.61,16l0.06-25.49l177-37.49l0.02,25.84l-75.33,15.6
			L1092.98,2636.62z"/>
			<path class="st0" d="M1412.16,2569.04l-26.13,5.54l0.12-112.88l-136.23,28.84l0.22,112.8l-26.13,5.54l0.27-242.86l25.78-5.47
			l0.08,107.01l136.23-28.84l-0.08-107.01l26.14-5.54L1412.16,2569.04z"/>
			<path class="st0" d="M1517.55,2409.85l117.77-24.93l0.12,22.9l-118.11,25.01l-0.17,90.31l123.34-26.11l-0.08,23.68l-149.13,31.56
			l0.26-242.86l149.13-31.58l-0.08,23.68l-123,26.04L1517.55,2409.85z"/>
			<path class="st0" d="M1850.12,2233.51l97.21-20.59c29.97-6.35,37.49-6.85,47.94-3.97c13.1,3.41,22.38,14.57,25.92,31.27
			c3.54,16.73,3.6,41.11,0.55,61.05c-3.97,25.96-20.03,44.66-42.94,51.68c-6.54,1.76-11.7,3.21-35.66,8.64l-67.25,14.24l0.09,94.99
			l-26.13,5.54L1850.12,2233.51z M1937.99,2339.03c38.33-8.12,50.41-14.67,56.64-31.65c3.66-10.25,4.54-43.92,1.43-58.55
			c-2.58-12.2-7.17-16.69-18.56-17.18c-4.75-0.08-8.59,0.73-30.96,5.1l-70.38,14.9l-0.19,100.51L1937.99,2339.03z"/>
			<path class="st0" d="M2234.45,2157.22c17.5,3.58,29.54,17.42,34.33,40.05c3.39,16.03,3.62,24,3.43,81.55
			c-0.35,49.96-2.99,70.16-12.5,87.11c-8.89,16.44-27.27,29.44-50.31,35.76c-9.96,2.84-22.78,5.91-37.41,9.01
			c-35.88,7.59-46.98,8.51-61.97,4.76c-16.95-4.44-27.15-16.47-31.57-37.37c-3.76-17.77-4.15-26.43-4.19-86.85
			c0.19-31.71,0.81-39.12,3.64-55.01c5-28,16.95-45.45,39.59-57.17c10.49-5.5,27.96-10.67,53.4-16.05
			C2208.15,2155.12,2219.6,2154.18,2234.45,2157.22z M2104.95,2226.5c-4.58,14.43-4.42,16.96-4.73,75.63
			c-0.16,54.28,0.07,55.33,2.72,67.87c3.02,14.3,8.41,20.79,17.93,22.77c9.87,1.92,20.54,0.76,58.17-7.21
			c43.9-9.3,55.49-16.49,62.7-39.12c4.59-14.45,4.78-17.03,4.81-75.29c0.09-54.62-0.06-55.33-2.71-67.87
			c-3.03-14.28-8.49-21.13-18.01-23.12c-9.87-1.91-20.9-0.68-58.52,7.29C2123.75,2196.66,2112.17,2203.85,2104.95,2226.5z"/>
			<path class="st0" d="M2588.56,2319.96l-39.71,8.41l-48.65-164.44l-6.17-20.52l-2.91-10.31l-2.91-10.3l-0.35,0.07l-3.01,11.56
			l-3.01,11.56l-6.38,23.19l-49.95,185.32l-39.02,8.25l-71.17-227.74l26.84-5.69l49.98,163.8l6.89,22.19
			c1.08,3.41,1.3,4.46,6.53,22.28l0.35-0.07l3.22-12.32l3.14-12.69l6.78-24.73l49.6-185.25l38.67-8.19l49,164.37l6.54,22.26
			l3.06,11.02l3.05,10.99l0.69-0.14l3.49-12.76l3.22-12.34l6.98-25.5l51.49-184.92l27.17-5.74L2588.56,2319.96z"/>
			<path class="st0" d="M2736.82,2151.7l117.77-24.95l0.12,22.9l-118.12,25.01l-0.17,90.33l123.34-26.13l-0.08,23.68l-149.13,31.58
			l0.27-242.87l149.13-31.58l-0.08,23.68l-122.99,26.04L2736.82,2151.7z"/>
			<path class="st0" d="M2938.02,2003.16l110.45-23.39c39.03-8.25,59.87,0.79,65.85,29.01c4.64,21.96,2.17,56.69-4.98,72.78
			c-5.45,12.07-14.53,19.09-33.03,26.28l0.08,0.35c7.81-0.93,11.52-0.62,16.14,0.59c9.4,3.11,17.11,12.02,19.25,22.13
			c0.89,4.19,1.44,10.26,1.31,16.47l-0.08,61.54l-25.79,5.47l-0.06-55.33c0.23-10.97-0.07-12.35-1.11-17.23
			c-2.07-9.76-7.65-15.49-16.46-17.62c-7.29-1.74-10.85-1.35-26.53,1.96l-79.09,16.76l-0.09,97.57l-26.13,5.54L2938.02,2003.16z
			 M3039.66,2103.22c28.57-6.06,42.57-15.56,48.39-32.81c3.18-9.06,3.53-40.07,0.95-52.27c-3.47-16.37-14.47-20.22-40.26-14.77
			l-84.66,17.92l-0.02,97.93L3039.66,2103.22z"/>
			<path class="st0" d="M1150.27,2750.85c17.51,3.58,29.54,17.42,34.34,40.07c3.39,16.03,3.62,23.98,3.43,81.55
			c-0.35,49.94-2.99,70.15-12.51,87.09c-8.89,16.46-27.26,29.44-50.31,35.78c-9.96,2.84-22.78,5.91-37.41,9.01
			c-35.88,7.59-46.98,8.49-61.97,4.74c-16.96-4.42-27.15-16.46-31.58-37.37c-3.76-17.76-4.14-26.41-4.19-86.84
			c0.2-31.71,0.82-39.14,3.65-55.02c4.99-28,16.95-45.45,39.59-57.17c10.48-5.49,27.96-10.65,53.39-16.03
			C1123.99,2748.77,1135.44,2747.81,1150.27,2750.85z M1020.79,2820.14c-4.58,14.45-4.42,16.96-4.74,75.65
			c-0.15,54.26,0.07,55.31,2.73,67.87c3.03,14.28,8.41,20.78,17.93,22.77c9.87,1.92,20.54,0.74,58.17-7.22
			c43.9-9.3,55.49-16.47,62.71-39.12c4.58-14.43,4.77-17.03,4.81-75.28c0.08-54.63-0.07-55.33-2.72-67.87
			c-3.03-14.3-8.49-21.15-18.01-23.12c-9.87-1.92-20.9-0.69-58.52,7.27C1039.59,2790.31,1028.01,2797.5,1020.79,2820.14z"/>
			<path class="st0" d="M1278.85,2826.67l113.58-24.05l-0.23,22.99l-113.23,23.97v111.77l-26.14,5.54l0.27-242.87l142.15-30.09
			l0.27,23.6l-116.37,24.64L1278.85,2826.67z"/>
			<path class="st0" d="M1736.83,2864.39l-26.13,5.54l0.13-112.88l-136.23,28.84l0.22,112.81l-26.14,5.52l0.27-242.86l25.78-5.47
			l0.09,107.01l136.23-28.84l-0.08-107.01l26.14-5.54L1736.83,2864.39z"/>
			<path class="st0" d="M1890.49,2730.28l-0.32,101.64l-25.79,5.47l-0.03-101.57l-85.42-123.14l30.32-6.43l49.69,71.39
			c3.2,4.78,6.32,9.22,9.87,13.91c1.07,1.6,1.15,1.96,9.1,13.74l0.7-0.15l4.65-9l4.37-8.57l9.65-18.04l49.96-92.49l31-6.57
			L1890.49,2730.28z"/>
			<path class="st0" d="M2033.67,2558.73l102.43-21.69c21.26-4.51,27.26-5.4,35.71-5.01c15.71,0.3,27.43,10.92,30.97,27.65
			c2.29,10.8,3.04,28.12,1.74,42.6c-2.02,19.73-9.78,31.19-28.94,42.16l-0.2,0.78c21.66,0.88,30.83,8.03,34.89,27.21
			c5.39,25.44,0.8,58.79-10.11,76.04c-8.44,13.43-27.05,23.56-53.18,29.1l-113.58,24.05L2033.67,2558.73z M2115,2760.66
			c43.83-9.65,44.53-9.79,52.65-14.43c14.02-7.7,18.57-18.85,18.73-42.18c-0.03-8.74-0.63-18.45-1.66-23.33
			c-2.29-10.8-6.53-15.36-15.63-17.06c-7.48-0.96-9.99-0.81-42.05,5.97l-67.59,14.31l-0.2,88.51L2115,2760.66z M2128.52,2645.67
			c26.13-5.54,34.4-9.47,42.19-19.12c5.78-7.05,7.59-13.99,8.48-28.73c0.37-10.28-0.23-19.98-1.49-25.91
			c-1.77-8.35-6.43-13.2-13.99-14.52c-5.25-0.71-11.66-0.07-28.04,3.39l-75.96,16.08l-0.18,83.39L2128.52,2645.67z"/>
			<path class="st0" d="M2283.51,2505.83l110.45-23.39c39.02-8.25,59.87,0.79,65.85,29.01c4.65,21.94,2.17,56.69-4.99,72.76
			c-5.45,12.08-14.52,19.11-33.02,26.3l0.08,0.34c7.81-0.91,11.52-0.61,16.14,0.61c9.4,3.11,17.11,12.02,19.25,22.13
			c0.88,4.19,1.44,10.24,1.3,16.47l-0.08,61.54l-25.78,5.45l-0.07-55.33c0.23-10.95-0.07-12.35-1.1-17.23
			c-2.07-9.76-7.65-15.49-16.47-17.62c-7.28-1.74-10.84-1.35-26.52,1.97l-79.1,16.74l-0.09,97.59l-26.13,5.52L2283.51,2505.83z
			 M2385.15,2605.89c28.57-6.04,42.57-15.56,48.39-32.81c3.18-9.05,3.53-40.07,0.95-52.25c-3.47-16.39-14.48-20.24-40.25-14.79
			l-84.68,17.94l-0.02,97.93L2385.15,2605.89z"/>
			<path class="st0" d="M2551.91,2691.81l-26.14,5.54l0.27-242.87l25.78-5.45L2551.91,2691.81z"/>
			<path class="st0" d="M2631.62,2432.13l107.31-22.73c19.87-4.2,36.48-4.81,46.15-2.13c17.45,5.05,30.35,21.25,35.14,43.88
			c5.68,26.84,5.05,101.23-0.96,131.28c-4.57,23.17-17.54,42.67-35.03,52.91c-9.99,6.13-28.49,13.32-38.95,15.53l-113.93,24.12
			L2631.62,2432.13z M2733.18,2629.77c18.82-3.98,36.82-11.8,44.69-19.29c13.97-13.15,18.99-32.42,20-72.32
			c0.51-35.41-0.7-68.64-2.99-79.44c-5.68-26.84-19.8-33.3-56.37-25.55l-80.85,17.11l-0.45,195.58L2733.18,2629.77z"/>
		</g>
	</g>
	<g>
		<path class="st0" d="M3840.68,949.11L3839.75,71L2439.1,369.81L753.71,728.94l3.3,633.17l-642.55,137.08l0.77,877.47l3002.1-640.46
		l-0.55-632.64L3840.68,949.11z M3601,367.2l0.2,85.6l-140.66,30.01l-0.23,69.96l140.41-29.96l0.14,71.63l-140.42,29.96l0.42,75.64
		l140.13-29.9l0.2,85.6l-240.43,51.29l-0.17-388.53L3601,367.2z M2757.73,547.1l0.16,388.54l-99.74,21.28l-0.16-388.54
		L2757.73,547.1z M1091.54,902.56l0.37,299.36l156.02-33.28l-0.2,89.17l-255.76,54.56l-0.16-388.54L1091.54,902.56z M638.25,1984.73
		c-13.92,30.35-39.08,46.21-95.56,60.01l-57.27,12.8c-49.6,10.58-71.16,10.52-94.67-1.37c-15.75-8.28-29.42-28.67-34.65-53.19
		c-7.85-36.77-10.05-183.68-3.84-231.03c5.73-41.42,33.33-75.85,75.12-92.93c20.9-8.54,46.74-15.79,96.32-26.37
		c51.83-11.06,74.06-10.56,91.89,1.95c12.28,8.45,20.5,22.42,24.43,40.8c2.02,9.48,2.62,20.42,4.05,54.48l-41.79,8.92l-0.27-12.18
		c-0.19-14.52-1.6-29.37-3.39-37.73c-5.7-26.75-21.61-30.33-77.89-18.33c-25.08,5.35-63.17,15.22-77.86,20.1
		c-38.49,13.45-50.45,39.31-50.11,109.14c1.15,133.75,1.61,144.13,7.56,172c7.84,36.77,24.44,40.81,101.89,24.29
		c99.18-21.16,107.66-30.55,104.64-118.46l41.78-8.91c0.2,6.37-0.05,13.41,0.31,15.08C648.83,1946.94,646.51,1966.08,638.25,1984.73
		z M1027.65,1764.77c-0.44,79.9-4.6,112.25-19.78,139.37c-14.2,26.33-43.54,47.15-80.4,57.34c-15.92,4.57-36.42,9.52-59.82,14.51
		c-57.39,12.25-75.15,13.7-99.13,7.75c-27.13-7.03-43.48-26.26-50.61-59.69c-6.06-28.42-6.68-42.27-6.91-138.92
		c0.25-50.74,1.21-62.59,5.69-88.02c7.91-44.79,27-72.75,63.19-91.54c16.76-8.82,44.71-17.11,85.38-25.78
		c59.62-12.72,77.93-14.31,101.68-9.46c28,5.68,47.29,27.78,55.02,63.99C1027.43,1659.95,1027.81,1672.68,1027.65,1764.77z
		 M1366.05,1865.59l-155.94-231.22l-25.62-38.22l-12.76-18.84l-12.19-18.95l-1.12,0.24c-0.01,8.16,0.43,15.64,0.3,23.24
		c0.04,2.9,0.19,14.53-0.11,34.98l0.73,292.88l-41.79,8.92l-0.16-388.54l67.97-14.5l136.46,202.75l35.77,52.95l17.33,26.6
		l17.88,26.48l0.57-0.12l-0.19-14.53l-0.19-14.52l0.19-29.16l-0.53-294.67l41.78-8.91l0.17,388.53L1366.05,1865.59z
		 M1337.97,1238.56l-0.17-388.53l99.74-21.28l0.17,388.53L1337.97,1238.56z M1795.63,1773.94l-155.94-231.22l-25.63-38.22
		l-12.76-18.84l-12.19-18.95l-1.12,0.24c-0.01,8.16,0.43,15.64,0.3,23.24c0.04,2.9,0.19,14.53-0.11,34.98l0.72,292.88l-41.79,8.92
		l-0.16-388.54l67.97-14.5l136.46,202.75l35.77,52.95l17.33,26.6l17.88,26.48l0.57-0.12l-0.19-14.53l-0.19-14.52l0.19-29.16
		l-0.53-294.67l41.78-8.91l0.17,388.53L1795.63,1773.94z M1775.35,1145.25l-154.34,32.93l-105.47-366.07l100.85-21.52l41.14,140.95
		l20.23,70.25c2.46,8.8,3.84,12.57,19.24,71.04l2.78-0.59l9.1-39.22l9.55-39.9l21-79.05l41.32-158.54l103.09-21.99L1775.35,1145.25z
		 M1959.61,717.37l240.41-51.29l0.2,85.6l-140.66,30.01l-0.23,69.96l140.41-29.95l0.14,71.63l-140.42,29.96l0.42,75.64l140.13-29.9
		l0.2,85.6l-240.43,51.29L1959.61,717.37z M2201.54,1649.48l-0.07,37.88l-238.48,50.88l-1.5-388.25l240.3-51.27l-0.07,37.89
		l-198.52,42.35l0.12,131.63l198.28-42.3l0.25,36.65l-198.84,42.42l-0.05,144.48L2201.54,1649.48z M2546.02,1577.73
		c-13.92,30.35-39.08,46.21-95.56,60.01l-57.27,12.8c-49.6,10.58-71.16,10.52-94.67-1.37c-15.75-8.28-29.42-28.67-34.65-53.19
		c-7.85-36.77-10.05-183.68-3.84-231.03c5.73-41.42,33.33-75.85,75.12-92.93c20.9-8.54,46.74-15.79,96.32-26.37
		c51.83-11.06,74.06-10.56,91.89,1.95c12.28,8.45,20.49,22.42,24.42,40.8c2.02,9.48,2.63,20.42,4.05,54.48l-41.78,8.91l-0.27-12.17
		c-0.19-14.52-1.6-29.37-3.39-37.73c-5.7-26.75-21.61-30.33-77.89-18.33c-25.08,5.35-63.17,15.22-77.86,20.1
		c-38.49,13.45-50.45,39.31-50.11,109.14c1.15,133.75,1.61,144.13,7.56,172c7.84,36.77,24.44,40.81,101.89,24.29
		c99.18-21.16,107.66-30.55,104.64-118.45l41.78-8.91c0.2,6.37-0.05,13.41,0.31,15.08
		C2556.6,1539.94,2554.27,1559.08,2546.02,1577.73z M2567.91,976.17l-255.76,54.56l-0.16-388.54l99.74-21.28l0.37,299.36
		l156.02-33.28L2567.91,976.17z M2755.63,1569.14l-41.23,8.8l-0.75-347.63l-120.92,25.8l0.05-40.8l283.05-60.39l0.09,41.35
		l-120.47,25.12L2755.63,1569.14z M3017.58,716.54c-16.3-40.8-31.68-82.96-46.66-125.78l-4.46,0.95l1.8,35.73
		c2.47,52.49,2.7,61.76,2.49,107.24l0.54,155.43l-97.5,20.8l-0.16-388.54l167.71-35.78l59.02,151.11l23.48,60.82
		c7.84,20.46,15.04,40.47,22.35,61.06l3.89-0.83l-1.57-34.62c-2.57-53.05-2.29-57.19-2.44-104.34l-0.54-155.43l99.18-21.16
		l0.16,388.54l-168.82,36.02L3017.58,716.54z"/>
		<path class="st0" d="M982.08,1643.99c-4.87-22.84-13.62-33.8-28.87-36.96c-15.79-3.04-33.42-1.02-93.6,11.82
		c-69.65,14.86-88.16,26.38-99.65,62.62c-7.3,23.11-7.03,27.12-7.4,121c-0.12,86.82,0.24,88.5,4.52,108.56
		c4.87,22.84,13.5,33.23,28.75,36.39c15.79,3.04,32.87,1.15,93.04-11.69c70.21-14.98,88.72-26.51,100.22-62.74
		c7.3-23.12,7.59-27.25,7.52-120.45C986.6,1665.16,986.36,1664.05,982.08,1643.99z"/>
	</g>
</svg>
