<svg viewBox="0 0 400 236" version="1.1"
	xmlns="http://www.w3.org/2000/svg"
	xmlns:xlink="http://www.w3.org/1999/xlink">
	<g id="FRYTG-digital-Logo-2020" stroke="none" stroke-width="1" fill="none" fill-rule="evenodd">
		<g id="frytg" fill="#FFFF14" transform="translate(2.000000, 0.000000)">
			<g id="Group">
				<polygon id="Path" points="68.8335079 18.1175258 32.5507853 18.1175258 29.3371728 44.1484536 59.7109948 44.1484536 57.4303665 61.1206186 27.2638743 61.1206186 22.495288 99.7505155 0.414659686 99.7505155 12.5434555 1.14536082 71.0104712 1.14536082"></polygon>
				<path d="M98.3780105,62.8907216 L93.8167539,99.7505155 L71.9434555,99.7505155 L83.9685864,1.14536082 L113.720419,1.14536082 C119.732984,1.14536082 124.91623,1.77010309 129.166492,3.12371134 C133.416754,4.37319588 136.837696,6.14329897 139.532984,8.43402062 C142.228272,10.7247423 144.197906,13.3278351 145.441885,16.4515464 C146.685864,19.5752577 147.307853,22.9072165 147.307853,26.5515464 C147.307853,30.1958763 146.789529,33.6319588 145.856545,36.8597938 C144.92356,40.0876289 143.472251,43.1072165 141.606283,45.814433 C139.740314,48.5216495 137.459686,50.9164948 134.868063,53.1030928 C132.172775,55.185567 129.166492,56.9556701 125.74555,58.3092784 C127.093194,59.0381443 128.337173,59.9752577 129.477487,61.1206186 C130.617801,62.2659794 131.550785,63.6195876 132.380105,65.1814433 L146.685864,99.8546392 L126.885864,99.8546392 C125.019895,99.8546392 123.464921,99.4381443 122.220942,98.7092784 C120.976963,97.9804124 120.147644,96.9391753 119.525654,95.585567 L108.848168,66.4309278 C108.329843,65.1814433 107.604188,64.3484536 106.774869,63.8278351 C105.94555,63.3072165 104.701571,62.9948454 103.146597,62.9948454 L98.3780105,62.9948454 L98.3780105,62.8907216 Z M103.975916,17.5969072 L100.243979,47.6886598 L108.226178,47.6886598 C111.336126,47.6886598 114.031414,47.1680412 116.208377,46.2309278 C118.38534,45.2938144 120.147644,43.9402062 121.598953,42.3783505 C122.946597,40.7123711 123.983246,38.8381443 124.605236,36.6515464 C125.227225,34.4649485 125.53822,32.1742268 125.53822,29.7793814 C125.53822,27.9051546 125.227225,26.2391753 124.708901,24.7814433 C124.190576,23.2195876 123.361257,21.9701031 122.220942,20.928866 C121.080628,19.8876289 119.629319,19.0546392 117.867016,18.4298969 C116.104712,17.8051546 114.135079,17.5969072 111.750785,17.5969072 L103.975916,17.5969072 Z" id="Shape" fill-rule="nonzero"></path>
				<path d="M198.20733,61.9536082 L193.542408,99.7505155 L171.565445,99.7505155 L176.230366,62.1618557 L150.936126,1.14536082 L170.528796,1.14536082 C172.394764,1.14536082 173.846073,1.56185567 174.986387,2.49896907 C176.023037,3.33195876 176.852356,4.5814433 177.267016,5.93505155 L186.700524,35.8185567 C188.048168,39.671134 189.084817,43.3154639 189.706806,46.7515464 C190.536126,45.085567 191.46911,43.3154639 192.505759,41.5453608 C193.542408,39.7752577 194.579058,37.9010309 195.823037,35.8185567 L212.513089,5.93505155 C213.238743,4.78969072 214.275393,3.6443299 215.519372,2.60309278 C216.763351,1.56185567 218.318325,1.04123711 220.184293,1.04123711 L238.429319,1.04123711 L198.20733,61.9536082 Z" id="Path"></path>
				<polygon id="Path" points="311.409424 1.14536082 309.128796 18.6381443 284.249215 18.6381443 274.297382 99.7505155 252.424084 99.7505155 262.272251 18.6381443 237.18534 18.6381443 239.362304 1.14536082 311.409424 1.14536082"></polygon>
				<path d="M353.497382,83.8195876 C356.19267,83.8195876 358.576963,83.6113402 360.753927,83.0907216 C362.93089,82.5701031 365.004188,81.9453608 366.973822,81.1123711 L368.839791,64.9731959 L360.442932,64.9731959 C359.095288,64.9731959 358.058639,64.6608247 357.332984,63.9319588 C356.60733,63.2030928 356.4,62.3701031 356.503665,61.2247423 L357.954974,49.042268 L390.713089,49.042268 L385.633508,90.2752577 C383.14555,92.1494845 380.553927,93.7113402 377.858639,95.0649485 C375.163351,96.4185567 372.364398,97.4597938 369.358115,98.3969072 C366.455497,99.2298969 363.34555,99.8546392 360.028272,100.271134 C356.710995,100.687629 353.290052,100.895876 349.66178,100.895876 C343.54555,100.895876 338.051309,99.7505155 333.075393,97.5639175 C328.099476,95.3773196 323.74555,92.2536082 320.220942,88.2969072 C316.696335,84.3402062 313.897382,79.7587629 311.927749,74.3443299 C309.958115,68.9298969 309.025131,63.2030928 309.025131,56.8515464 C309.025131,51.4371134 309.64712,46.2309278 310.891099,41.2329897 C312.135079,36.3391753 313.897382,31.757732 316.17801,27.4886598 C318.458639,23.2195876 321.257592,19.471134 324.471204,16.1391753 C327.684817,12.8072165 331.209424,9.89175258 335.148691,7.49690722 C339.087958,5.10206186 343.33822,3.22783505 347.899476,1.97835052 C352.460733,0.728865979 357.229319,1.70530257e-13 362.205236,1.70530257e-13 C366.351832,1.70530257e-13 370.187435,0.416494845 373.608377,1.14536082 C377.029319,1.8742268 380.035602,2.91546392 382.73089,4.26907216 C385.426178,5.5185567 387.810471,7.08041237 389.987435,8.74639175 C392.060733,10.4123711 393.926702,12.1824742 395.58534,13.9525773 L388.432461,22.8030928 C387.292147,24.3649485 385.840838,25.3020619 384.285864,25.7185567 C382.627225,26.0309278 380.968586,25.7185567 379.309948,24.5731959 C377.754974,23.5319588 376.303665,22.5948454 374.852356,21.7618557 C373.504712,20.928866 372.053403,20.3041237 370.602094,19.7835052 C369.150785,19.2628866 367.699476,18.8463918 366.040838,18.6381443 C364.485864,18.4298969 362.619895,18.2216495 360.650262,18.2216495 C356.4,18.2216495 352.460733,19.1587629 348.936126,20.928866 C345.411518,22.8030928 342.301571,25.3020619 339.813613,28.6340206 C337.325654,31.9659794 335.252356,35.9226804 333.801047,40.6082474 C332.349738,45.2938144 331.727749,50.3958763 331.727749,56.0185567 C331.727749,60.3917526 332.246073,64.2443299 333.282723,67.6804124 C334.319372,71.1164948 335.874346,74.0319588 337.740314,76.4268041 C339.709948,78.8216495 341.990576,80.5917526 344.685864,81.8412371 C347.277487,83.1948454 350.28377,83.8195876 353.497382,83.8195876 Z" id="Path"></path>
			</g>
			<g id="Group" transform="translate(7.000000, 111.000000)">
				<path d="M49.7577465,101.136364 C48.4101408,101.136364 47.3735211,100.929752 46.4405634,100.619835 C45.6112676,100.309917 44.8856338,99.7933884 44.3673239,99.2768595 C43.8490141,98.6570248 43.5380282,98.0371901 43.3307042,97.2107438 C43.1233803,96.3842975 43.0197183,95.5578512 43.0197183,94.6280992 L43.0197183,88.7396694 C39.8061972,92.9752066 36.2816901,96.2809917 32.4461972,98.6570248 C28.6107042,101.033058 24.4642254,102.272727 20.1104225,102.272727 C17.2078873,102.272727 14.616338,101.756198 12.2321127,100.72314 C9.84788732,99.6900826 7.77464789,98.1404959 6.11605634,95.9710744 C4.35380282,93.8016529 3.00619718,91.1157025 2.07323944,87.7066116 C1.14028169,84.4008264 0.621971831,80.3719008 0.621971831,75.7231405 C0.621971831,71.6942149 1.03661972,67.768595 1.86591549,63.946281 C2.69521127,60.1239669 3.93915493,56.5082645 5.39042254,53.2024793 C6.94535211,49.8966942 8.70760563,46.7975207 10.884507,44.0082645 C12.9577465,41.2190083 15.3419718,38.8429752 17.8298592,36.7768595 C20.3177465,34.8140496 23.0129577,33.2644628 25.915493,32.1280992 C28.7143662,30.9917355 31.6169014,30.4752066 34.7267606,30.4752066 C37.6292958,30.4752066 40.2208451,30.9917355 42.5014085,31.9214876 C44.7819718,32.8512397 46.8552113,34.1942149 48.6174648,35.7438017 L53.0749296,0.723140496 L73.6,0.723140496 L61.0569014,101.239669 L49.7577465,101.239669 L49.7577465,101.136364 Z M28.5070423,86.3636364 C29.9583099,86.3636364 31.4095775,85.8471074 32.964507,84.7107438 C34.5194366,83.677686 35.9707042,82.1280992 37.5256338,80.268595 C38.9769014,78.4090909 40.324507,76.1363636 41.5684507,73.6570248 C42.8123944,71.177686 43.9526761,68.3884298 44.7819718,65.4958678 L46.9588732,48.553719 C45.6112676,47.5206612 44.16,46.7975207 42.6050704,46.3842975 C41.0501408,45.9710744 39.4952113,45.661157 38.0439437,45.661157 C35.6597183,45.661157 33.3791549,46.4876033 31.3059155,48.0371901 C29.2326761,49.6900826 27.4704225,51.7561983 26.0191549,54.338843 C24.5678873,56.9214876 23.4276056,59.9173554 22.5983099,63.3264463 C21.7690141,66.6322314 21.3543662,70.1446281 21.3543662,73.553719 C21.3543662,77.9958678 21.976338,81.1983471 23.3239437,83.161157 C24.6715493,85.4338843 26.3301408,86.3636364 28.5070423,86.3636364 Z" id="Shape" fill-rule="nonzero"></path>
				<path d="M103.869296,31.5082645 L95.4726761,101.136364 L74.8439437,101.136364 L83.2405634,31.5082645 L103.869296,31.5082645 Z M107.808451,12.5 C107.808451,14.1528926 107.497465,15.7024793 106.771831,17.1487603 C106.046197,18.5950413 105.113239,19.8347107 103.972958,20.9710744 C102.832676,22.107438 101.48507,22.9338843 99.9301408,23.553719 C98.3752113,24.1735537 96.9239437,24.4834711 95.2653521,24.4834711 C93.7104225,24.4834711 92.155493,24.1735537 90.7042254,23.553719 C89.2529577,22.9338843 88.0090141,22.0041322 86.8687324,20.9710744 C85.7284507,19.8347107 84.8991549,18.5950413 84.1735211,17.1487603 C83.4478873,15.7024793 83.1369014,14.1528926 83.1369014,12.5 C83.1369014,10.8471074 83.4478873,9.29752066 84.1735211,7.85123967 C84.795493,6.40495868 85.7284507,5.06198347 86.8687324,3.92561983 C88.0090141,2.7892562 89.3566197,1.96280992 90.7042254,1.23966942 C92.155493,0.619834711 93.6067606,0.309917355 95.2653521,0.309917355 C96.9239437,0.309917355 98.4788732,0.619834711 99.9301408,1.23966942 C101.381408,1.85950413 102.729014,2.7892562 103.869296,3.82231405 C105.009577,4.95867769 105.942535,6.19834711 106.668169,7.74793388 C107.497465,9.19421488 107.808451,10.7438017 107.808451,12.5 Z" id="Shape" fill-rule="nonzero"></path>
				<path d="M168.76169,52.3760331 C168.76169,55.268595 168.347042,57.6446281 167.621408,59.7107438 C166.792113,61.7768595 165.962817,63.6363636 165.029859,65.392562 C164.096901,67.1487603 163.267606,69.0082645 162.43831,70.8677686 C161.609014,72.7272727 161.298028,75 161.298028,77.4793388 C161.298028,79.338843 161.609014,80.9917355 162.230986,82.5413223 C162.852958,84.0909091 163.47493,85.6404959 164.200563,87.2933884 C164.926197,88.946281 165.548169,90.5991736 166.170141,92.3553719 C166.792113,94.1115702 167.103099,96.177686 167.103099,98.553719 C167.103099,102.169421 166.273803,105.475207 164.718873,108.677686 C163.163944,111.880165 160.88338,114.669421 157.877183,117.045455 C154.870986,119.421488 151.242817,121.384298 146.992676,122.727273 C142.638873,124.173554 137.766761,124.793388 132.272676,124.793388 C127.711549,124.793388 123.668732,124.27686 120.040563,123.347107 C116.412394,122.417355 113.406197,121.177686 110.91831,119.524793 C108.430423,117.871901 106.460845,116.012397 105.113239,113.739669 C103.765634,111.570248 103.143662,109.090909 103.143662,106.61157 C103.143662,103.305785 103.869296,100.413223 105.320563,97.9338843 C106.771831,95.5578512 108.741408,93.4917355 111.229296,91.9421488 C113.613521,90.2892562 116.412394,89.0495868 119.522254,88.2231405 C122.632113,87.3966942 125.741972,86.7768595 128.955493,86.4669421 C132.169014,86.1570248 135.278873,86.053719 138.388732,86.2603306 C141.39493,86.4669421 144.193803,86.6735537 146.578028,87.1900826 C146.474366,86.6735537 146.474366,86.1570248 146.474366,85.5371901 C146.474366,84.9173554 146.474366,84.4008264 146.474366,83.7809917 C146.474366,81.4049587 147.096338,78.7190083 148.340282,75.6198347 C146.578028,76.7561983 144.608451,77.6859504 142.327887,78.4090909 C140.047324,79.1322314 137.248451,79.4421488 133.827606,79.4421488 C131.132394,79.4421488 128.644507,79.0289256 126.260282,78.0991736 C123.876056,77.2727273 121.699155,75.9297521 119.833239,74.0702479 C117.967324,72.3140496 116.516056,70.0413223 115.375775,67.3553719 C114.235493,64.6694215 113.717183,61.4669421 113.717183,57.7479339 C113.717183,54.338843 114.339155,50.9297521 115.686761,47.6239669 C117.034366,44.3181818 119.003944,41.4256198 121.595493,38.8429752 C124.187042,36.2603306 127.504225,34.1942149 131.339718,32.6446281 C135.175211,31.0950413 139.736338,30.268595 144.919437,30.268595 C147.614648,30.268595 150.102535,30.5785124 152.590423,31.1983471 C155.07831,31.8181818 157.255211,32.7479339 159.328451,33.8842975 L179.438873,33.8842975 L178.505915,40.392562 C178.091268,42.9752066 176.847324,44.6280992 174.566761,45.5578512 L168.658028,47.6239669 C168.554366,49.2768595 168.76169,50.8264463 168.76169,52.3760331 Z M148.029296,100.206612 C148.029296,99.8966942 148.029296,99.6900826 148.029296,99.3801653 C148.029296,99.0702479 148.029296,98.8636364 147.925634,98.6570248 C143.364507,97.9338843 139.425352,97.5206612 136.211831,97.6239669 C132.99831,97.6239669 130.406761,98.0371901 128.437183,98.553719 C126.467606,99.1735537 125.016338,100 124.08338,100.929752 C123.150423,101.96281 122.735775,102.995868 122.735775,104.235537 C122.735775,106.508264 123.56507,108.264463 125.223662,109.400826 C126.882254,110.53719 129.784789,111.157025 133.723944,111.157025 C135.797183,111.157025 137.663099,110.847107 139.425352,110.330579 C141.187606,109.81405 142.638873,109.090909 143.882817,108.057851 C145.126761,107.128099 146.059718,105.991736 146.785352,104.64876 C147.614648,103.409091 148.029296,101.859504 148.029296,100.206612 Z M139.632676,67.5619835 C141.291268,67.5619835 142.742535,67.1487603 143.986479,66.322314 C145.230423,65.4958678 146.267042,64.3595041 147.096338,63.0165289 C147.925634,61.6735537 148.547606,60.1239669 148.962254,58.3677686 C149.376901,56.714876 149.584225,54.9586777 149.687887,53.2024793 C149.687887,50.3099174 149.065915,48.0371901 147.821972,46.3842975 C146.578028,44.731405 144.712113,44.0082645 142.224225,44.0082645 C140.565634,44.0082645 139.114366,44.4214876 137.870423,45.1446281 C136.626479,45.9710744 135.589859,47.0041322 134.760563,48.2438017 C133.931268,49.5867769 133.309296,51.0330579 132.894648,52.7892562 C132.48,54.4421488 132.272676,56.3016529 132.272676,58.0578512 C132.272676,61.053719 132.894648,63.3264463 134.138592,64.9793388 C135.382535,66.6322314 137.248451,67.5619835 139.632676,67.5619835 Z" id="Shape" fill-rule="nonzero"></path>
				<path d="M208.775211,31.5082645 L200.378592,101.136364 L179.749859,101.136364 L188.146479,31.5082645 L208.775211,31.5082645 Z M212.610704,12.5 C212.610704,14.1528926 212.299718,15.7024793 211.574085,17.1487603 C210.848451,18.5950413 209.915493,19.8347107 208.775211,20.9710744 C207.63493,22.107438 206.287324,22.9338843 204.732394,23.553719 C203.177465,24.1735537 201.726197,24.4834711 200.067606,24.4834711 C198.512676,24.4834711 196.957746,24.1735537 195.506479,23.553719 C194.055211,22.9338843 192.811268,22.0041322 191.670986,20.9710744 C190.530704,19.8347107 189.701408,18.5950413 188.975775,17.1487603 C188.250141,15.7024793 187.939155,14.1528926 187.939155,12.5 C187.939155,10.8471074 188.250141,9.29752066 188.975775,7.85123967 C189.597746,6.40495868 190.530704,5.06198347 191.670986,3.92561983 C192.811268,2.7892562 194.158873,1.96280992 195.506479,1.23966942 C196.957746,0.619834711 198.409014,0.309917355 200.067606,0.309917355 C201.726197,0.309917355 203.281127,0.619834711 204.732394,1.23966942 C206.183662,1.85950413 207.531268,2.7892562 208.671549,3.82231405 C209.811831,4.95867769 210.744789,6.19834711 211.470423,7.74793388 C212.196056,9.29752066 212.610704,10.7438017 212.610704,12.5 Z" id="Shape" fill-rule="nonzero"></path>
				<path d="M220.385352,86.1570248 C220.385352,85.8471074 220.385352,85.4338843 220.385352,85.0206612 C220.385352,84.607438 220.385352,83.9876033 220.489014,83.0578512 C220.592676,82.231405 220.696338,81.0950413 220.8,79.7520661 C221.007324,78.4090909 221.214648,76.5495868 221.421972,74.3801653 L224.946479,45.8677686 L219.348732,45.8677686 C218.415775,45.8677686 217.586479,45.5578512 216.964507,44.8347107 C216.342535,44.1115702 216.135211,43.0785124 216.342535,41.7355372 L217.275493,33.5743802 L227.849014,31.4049587 L233.757746,14.4628099 C234.48338,12.2933884 236.03831,11.2603306 238.318873,11.2603306 L249.618028,11.2603306 L247.026479,31.6115702 L262.679437,31.6115702 L260.917183,45.8677686 L245.264225,45.8677686 L241.947042,73.2438017 C241.739718,75.1033058 241.532394,76.5495868 241.428732,77.5826446 C241.32507,78.6157025 241.221408,79.4421488 241.117746,79.9586777 C241.014085,80.4752066 241.014085,80.8884298 241.014085,81.0950413 C241.014085,81.3016529 241.014085,81.4049587 241.014085,81.5082645 C241.014085,82.8512397 241.32507,83.8842975 241.947042,84.8140496 C242.569014,85.6404959 243.501972,86.1570248 244.849577,86.1570248 C245.575211,86.1570248 246.197183,86.053719 246.611831,85.9504132 C247.130141,85.7438017 247.544789,85.6404959 247.855775,85.4338843 C248.166761,85.2272727 248.581408,85.0206612 248.892394,84.9173554 C249.20338,84.7107438 249.514366,84.7107438 249.929014,84.7107438 C250.550986,84.7107438 250.965634,84.8140496 251.27662,85.1239669 C251.587606,85.4338843 251.898592,85.8471074 252.209577,86.4669421 L256.770704,96.3842975 C253.971831,98.4504132 250.965634,99.8966942 247.855775,100.929752 C244.642254,101.96281 241.428732,102.479339 238.215211,102.479339 C235.52,102.479339 233.135775,102.066116 230.958873,101.342975 C228.781972,100.619835 226.916056,99.4834711 225.361127,98.1404959 C223.806197,96.6942149 222.562254,95.0413223 221.732958,93.0785124 C220.903662,90.9090909 220.385352,88.6363636 220.385352,86.1570248 Z" id="Path"></path>
				<path d="M321.663099,101.136364 L310.467606,101.136364 C309.12,101.136364 308.08338,100.929752 307.150423,100.619835 C306.321127,100.309917 305.595493,99.7933884 305.077183,99.2768595 C304.558873,98.6570248 304.247887,98.0371901 304.040563,97.2107438 C303.833239,96.3842975 303.729577,95.5578512 303.729577,94.6280992 L303.729577,89.6694215 C300.827042,93.5950413 297.613521,96.6942149 294.192676,98.9669421 C290.668169,101.239669 286.832676,102.272727 282.582535,102.272727 C280.094648,102.272727 277.606761,101.756198 275.326197,100.72314 C272.941972,99.6900826 270.972394,98.2438017 269.106479,96.177686 C267.344225,94.1115702 265.892958,91.5289256 264.752676,88.4297521 C263.716056,85.2272727 263.094085,81.5082645 263.094085,77.2727273 C263.094085,70.9710744 264.234366,64.9793388 266.51493,59.2975207 C268.795493,53.6157025 272.112676,48.6570248 276.259155,44.4214876 C280.405634,40.1859504 285.381408,36.7768595 291.082817,34.2975207 C296.784225,31.8181818 303.003944,30.5785124 309.845634,30.5785124 C313.162817,30.5785124 316.583662,30.785124 320.004507,31.1983471 C323.425352,31.6115702 326.742535,32.4380165 330.16338,33.5743802 L321.663099,101.136364 Z M290.979155,85.7438017 C292.534085,85.7438017 293.985352,85.1239669 295.43662,83.9876033 C296.887887,82.8512397 298.235493,81.3016529 299.479437,79.338843 C300.72338,77.3760331 301.967324,75.1033058 303.003944,72.4173554 C304.040563,69.731405 304.973521,66.9421488 305.802817,63.946281 L308.187042,44.6280992 L306.943099,44.6280992 C303.522254,44.6280992 300.412394,45.3512397 297.613521,46.9008264 C294.814648,48.4504132 292.430423,50.5165289 290.357183,53.0991736 C288.283944,55.6818182 286.729014,58.7809917 285.692394,62.1900826 C284.552113,65.7024793 284.033803,69.3181818 284.033803,73.3471074 C284.033803,75.6198347 284.241127,77.4793388 284.552113,79.0289256 C284.863099,80.5785124 285.381408,81.8181818 286.00338,82.8512397 C286.625352,83.8842975 287.350986,84.5041322 288.180282,84.9173554 C289.009577,85.5371901 289.942535,85.7438017 290.979155,85.7438017 Z" id="Shape" fill-rule="nonzero"></path>
				<polygon id="Path" points="334.828169 101.136364 347.060282 0.619834711 367.689014 0.619834711 355.456901 101.136364"></polygon>
			</g>
		</g>
	</g>
</svg>