
<svg viewBox="0 0 857 1200" version="1.1" xmlns="http://www.w3.org/2000/svg" xmlns:xlink="http://www.w3.org/1999/xlink">
    <g id="Social" stroke="none" stroke-width="1" fill="none" fill-rule="evenodd">
        <g id="strava-social-vector-copy" fill-rule="nonzero">
            <rect id="Rectangle" fill="#FC4C02" x="0" y="0" width="857" height="1200"></rect>
            <path d="M589.631362,892 L563.523067,945.839365 L537.398403,892 L499,892 L563.523067,1025 L628,892 L589.631362,892 Z M378,938.719797 C378,934.755837 376.652044,931.796954 373.973609,929.885787 C371.305374,927.957868 367.660367,927 363.096842,927 L346,927 L346,951 L362.923623,951 C367.615242,951 371.305374,949.946193 373.973609,947.84467 C376.652044,945.738579 378,942.808629 378,939.073096 L378,938.719797 Z M474.106754,884 L539,1017 L500.369719,1017 L474.106754,963.157527 L447.858761,1017 L421.640703,1017 L409.247939,1017 L375.657699,1017 L352.913924,981.242816 L352.586106,981.242816 L344.306805,981.242816 L344.306805,1017 L304,1017 L304,891.848304 L362.919153,891.848304 C373.710245,891.848304 382.579322,893.132007 389.520414,895.694749 C396.480953,898.252831 402.064357,901.748046 406.315534,906.158637 C409.997887,909.961568 412.750673,914.264924 414.597835,919.014314 C416.422538,923.785462 417.350621,929.406712 417.350621,935.815901 L417.350621,936.195106 C417.350621,945.364412 415.225033,953.11636 410.96338,959.427639 C406.728671,965.745135 400.931217,970.766497 393.566511,974.448205 L414.515507,1006.20042 L474.106754,884 Z M653.496274,884 L589,1017 L627.398403,1017 L653.496274,963.157527 L679.612011,1017 L718,1017 L653.496274,884 Z M188,928.338201 L223.39052,928.338201 L223.39052,1018 L263.600511,1018 L263.600511,928.338201 L299,928.338201 L299,893 L188,893 L188,928.338201 Z M186.301471,961.53083 C188.76267,965.913239 190,971.2515 190,977.516275 L190,977.880703 C190,984.387915 188.744716,990.26201 186.207206,995.465926 C183.689156,1000.68374 180.122295,1005.09086 175.53504,1008.70889 C170.937314,1012.31457 165.367078,1015.09566 158.830322,1017.05369 C152.296554,1019.01944 144.9369,1020 136.802233,1020 C124.527664,1020 113.068509,1018.23808 102.450207,1014.75439 C91.8333875,1011.25063 82.6873145,1006.00965 75,999.037635 L96.5149077,972.574869 C103.05017,977.777242 109.950496,981.512635 117.16801,983.75943 C124.396006,986.010858 131.577612,987.136572 138.693389,987.136572 C142.372469,987.136572 145.002728,986.657873 146.612604,985.722094 C148.232962,984.770874 149.01994,983.46449 149.01994,981.813752 L149.01994,981.460133 C149.01994,979.66733 147.830485,978.169466 145.490483,977.005148 C143.15047,975.822298 138.739769,974.585403 132.316716,973.285196 C125.548048,971.853733 119.087591,970.187554 112.954806,968.299011 C106.813033,966.419732 101.420835,963.979914 96.7767285,961.013527 C92.1251392,958.061038 88.4266107,954.31638 85.6646936,949.819701 C82.911743,945.315302 81.5352623,939.802547 81.5352623,933.295336 L81.5352623,932.937084 C81.5352623,927.008942 82.6499115,921.496188 84.895659,916.409629 C87.1144751,911.316894 90.3925832,906.866542 94.6985578,903.087912 C99.0060269,899.295383 104.351834,896.339806 110.727002,894.193383 C117.07525,892.062402 124.396006,891 132.672802,891 C144.366857,891 154.609625,892.425286 163.390645,895.277404 C172.173149,898.098636 180.056466,902.368319 187.069001,908.050935 L167.44526,936.13201 C161.705953,931.854607 155.649468,928.747699 149.281772,926.788123 C142.897626,924.830091 136.923419,923.849532 131.287355,923.849532 C128.309976,923.849532 126.101631,924.323598 124.668309,925.274818 C123.208046,926.22295 122.515322,927.472199 122.515322,929.004034 L122.515322,929.357653 C122.515322,931.030011 123.591063,932.450664 125.782948,933.638145 C127.973338,934.816361 132.213484,936.064066 138.515341,937.367362 C146.210138,938.77875 153.204729,940.50361 159.533517,942.504878 C165.83389,944.538575 171.273952,947.103473 175.795378,950.248986 C180.32877,953.388322 183.838778,957.13298 186.301471,961.53083 L186.301471,961.53083 Z" id="Strava-logo-Copy-6" fill="#FFFFFF"></path>
        </g>
    </g>
</svg>