<svg viewBox="0 0 857 1200" version="1.1"
	xmlns="http://www.w3.org/2000/svg"
	xmlns:xlink="http://www.w3.org/1999/xlink">
	<defs>
		<linearGradient x1="65.97%" y1="43.6962809%" x2="85.12%" y2="80.2098996%" id="linearGradient-1">
			<stop stop-color="#EFF7FC" offset="0%"></stop>
			<stop stop-color="#FFFFFF" offset="100%"></stop>
		</linearGradient>
	</defs>
	<g id="Social" stroke="none" stroke-width="1" fill="none" fill-rule="evenodd">
		<g id="social-telegram-sm" fill-rule="nonzero">
			<rect id="Rectangle" fill="#1E96C8" x="0" y="0" width="857" height="1200"></rect>
			<g id="Group" transform="translate(117.918767, 661.041556)">
				<path d="M189.717597,395.958444 C174.741501,395.958444 177.286313,390.303167 172.121186,376.042265 L128.081233,231.088543 L467.081233,29.9584444" id="Path" fill="#C8DAEA"></path>
				<path d="M191.081233,395.958444 C202.399415,395.958444 207.400165,390.711362 213.717597,384.485232 L274.081233,324.98515 L198.785142,278.958444" id="Path" fill="#A9C9DD"></path>
				<path d="M196.350687,278.131642 L382.018955,415.237497 C403.2061,426.921944 418.497625,420.87231 423.775118,395.576665 L499.351625,39.6095119 C507.089338,8.60269032 487.526215,-5.46055067 467.257429,3.73688876 L23.4734126,174.772884 C-6.8190025,186.917049 -6.64239497,203.808825 17.9517397,211.335468 L131.836723,246.863111 L395.492574,80.608495 C407.939182,73.0645839 419.362618,77.1203523 409.986677,85.4374577" id="Path" fill="url(#linearGradient-1)"></path>
			</g>
		</g>
	</g>
</svg>