<svg viewBox="0 0 857 1200" version="1.1"
	xmlns="http://www.w3.org/2000/svg"
	xmlns:xlink="http://www.w3.org/1999/xlink">
	<g id="Social" stroke="none" stroke-width="1" fill="none" fill-rule="evenodd">
		<g id="social-twitter-sm" fill-rule="nonzero">
			<rect id="Rectangle" fill="#1DA1F2" x="0" y="0" width="857" height="1200"></rect>
			<path d="M276.18344,1081.59 C465.99552,1081.59 569.81472,924.223215 569.81472,787.755447 C569.81472,783.285715 569.81472,778.836117 569.51292,774.406653 C589.710007,759.787626 607.144472,741.686591 621,720.951073 C602.165247,729.302662 582.185085,734.779632 561.72648,737.199153 C583.269849,724.292944 599.393605,703.993714 607.09708,680.079198 C586.839409,692.10832 564.677,700.585846 541.56624,705.145939 C509.577105,671.107404 458.746673,662.776353 417.577731,684.824361 C376.408789,706.872368 355.139853,753.816202 365.69732,799.332456 C282.720342,795.169757 205.410853,755.950349 153.0088,691.434734 C125.61789,738.621509 139.608636,798.98735 184.95936,829.291742 C168.536233,828.804653 152.471181,824.371275 138.12,816.36576 C138.12,816.788572 138.12,817.231519 138.12,817.674465 C138.133443,866.833324 172.76164,909.173811 220.9138,918.907858 C205.720576,923.05424 189.779721,923.660357 174.31588,920.679643 C187.835472,962.747933 226.57908,991.566854 270.73092,992.396697 C234.187669,1021.13651 189.044917,1036.73821 142.56652,1036.69134 C134.35562,1036.67557 126.152706,1036.17808 118,1035.20143 C165.194195,1065.50856 220.107258,1081.5843 276.18344,1081.50946" id="Path" fill="#FFFFFF"></path>
		</g>
	</g>
</svg>